<?xml version="1.0" encoding="utf-8"?>
<!-- Generator: Adobe Illustrator 25.2.1, SVG Export Plug-In . SVG Version: 6.00 Build 0)  -->
<svg version="1.1" id="Capa_1" xmlns="http://www.w3.org/2000/svg" xmlns:xlink="http://www.w3.org/1999/xlink" x="0px" y="0px"
	 viewBox="0 0 259.2 119" style="enable-background:new 0 0 259.2 119;" xml:space="preserve">
<style type="text/css">
	.st0{fill:#717070;}
	.st1{fill:none;stroke:#DD0D24;stroke-width:9;stroke-miterlimit:10;}
</style>
<g>
	<path class="st0" d="M49.2,40c-2.2-1.5-4.6-2.7-7.2-3.7c-2.6-1-5.3-1.5-8-1.5c-1.1,0-2.3,0.1-3.6,0.3c-1.2,0.2-2.4,0.5-3.4,1.1
		c-1.1,0.5-1.9,1.2-2.6,2.1s-1,2-1,3.4c0,1.4,0.7,2.6,2.1,3.5c1.4,0.9,3.2,1.7,5.4,2.4l13,4.1c2.9,0.9,5.5,2,7.9,3.2
		c2.4,1.2,4.5,2.7,6.2,4.6c1.7,1.8,3,4.1,4,6.7c0.9,2.6,1.4,5.7,1.4,9.4c0,3.5-0.6,6.7-1.9,9.6c-1.3,2.9-3.1,5.4-5.3,7.6
		c-2.3,2.1-4.9,3.9-7.9,5.2c-3,1.3-6.3,2.1-9.7,2.3v13.7H28.4v-13.7c-5-0.1-9.8-1.1-14.4-2.9c-4.6-1.9-8.8-4.4-12.5-7.7l12.2-12.3
		c2.9,2.8,6,4.8,9,6.1c3.1,1.3,6.7,1.9,10.7,1.9c1.3,0,2.6-0.1,3.9-0.4c1.3-0.3,2.5-0.7,3.6-1.4c1.1-0.7,1.9-1.6,2.5-2.7
		c0.6-1.1,1-2.6,1-4.3c0-1.4-0.3-2.5-0.8-3.4c-0.5-0.9-1.2-1.7-2.1-2.4c-0.9-0.6-1.9-1.2-3.1-1.6c-1.2-0.5-2.4-0.9-3.6-1.2
		l-12.8-4.1c-5.8-1.9-10.2-4.4-13.2-7.4c-3-3.1-4.5-7.4-4.5-13.2c0-3.5,0.6-6.6,1.9-9.3c1.2-2.8,2.9-5.1,5.1-7.1
		c2.1-2,4.7-3.6,7.6-4.7c2.9-1.1,6-1.8,9.4-2V6.2h10.2v13.7c3.5,0.2,7.2,0.8,10.9,2C53.3,23,57,25.1,60.9,28L49.2,40z"/>
	<path class="st0" d="M107.8,98.6H89.5V42.3c-2.4,0.9-5.1,1.5-8.1,1.9c-3,0.3-5.8,0.6-8.4,0.7V32.7c5.7-0.1,10.1-1.1,13.2-3
		c3.1-1.8,5.5-4.6,7.2-8.2h14.4V98.6z"/>
	<path class="st0" d="M184.7,98.6H132V85c7.3-5.7,13.2-10.5,17.6-14.4c4.4-3.9,7.9-7.3,10.2-10.3c2.4-3,3.9-5.8,4.7-8.4
		c0.8-2.6,1.1-5.5,1.1-8.8c0-3.2-0.6-5.6-1.9-7.2c-1.2-1.7-3-2.5-5.1-2.5c-1.6,0-2.9,0.4-3.8,1.2c-1,0.8-1.8,1.8-2.3,3.1
		c-0.6,1.2-0.9,2.5-1.1,3.9c-0.2,1.4-0.3,2.7-0.3,3.8c0,0.8,0,1.5,0.1,2.1c0,0.7,0.1,1.5,0.3,2.5l-18.7-1.7v-3.3
		c0-3.1,0.6-6.1,1.7-9.2c1.1-3,2.8-5.7,4.9-8.1c2.1-2.4,4.8-4.3,8-5.8c3.2-1.5,6.8-2.2,11-2.2c3.9,0,7.5,0.5,10.7,1.6
		c3.2,1.1,6,2.6,8.3,4.5c2.3,2,4.1,4.4,5.4,7.3c1.3,2.9,1.9,6.2,1.9,9.8c0,4.2-0.5,8-1.5,11.2c-1,3.2-2.6,6.4-4.9,9.4
		c-2.3,3-5.3,6.1-9,9.2c-3.7,3.1-8.3,6.7-13.7,10.6v0.2h29.2V98.6z"/>
	<path class="st0" d="M233.5,98.6h-18.3V42.3c-2.4,0.9-5.1,1.5-8.1,1.9c-3,0.3-5.8,0.6-8.4,0.7V32.7c5.7-0.1,10.1-1.1,13.2-3
		c3.1-1.8,5.5-4.6,7.2-8.2h14.4V98.6z"/>
</g>
<line class="st1" x1="2.9" y1="112.6" x2="254.3" y2="6.3"/>
<line class="st1" x1="2.9" y1="6.3" x2="254.3" y2="112.6"/>
</svg>
