<?xml version="1.0" encoding="utf-8"?>
<!-- Generator: Adobe Illustrator 25.2.1, SVG Export Plug-In . SVG Version: 6.00 Build 0)  -->
<svg version="1.1" id="Capa_1" xmlns="http://www.w3.org/2000/svg" xmlns:xlink="http://www.w3.org/1999/xlink" x="0px" y="0px"
	 viewBox="0 0 285.4 134.9" style="enable-background:new 0 0 285.4 134.9;" xml:space="preserve">
<style type="text/css">
	.st0{fill:#717070;}
	.st1{fill:none;stroke:#DD0D24;stroke-width:9;stroke-miterlimit:10;}
</style>
<g>
	<path class="st0" d="M62.6,47.4c-2.2-1.5-4.6-2.7-7.2-3.7c-2.6-1-5.3-1.5-8-1.5c-1.1,0-2.3,0.1-3.6,0.3c-1.2,0.2-2.4,0.5-3.4,1.1
		c-1.1,0.5-1.9,1.2-2.6,2.1s-1,2-1,3.4c0,1.4,0.7,2.6,2.1,3.5c1.4,0.9,3.2,1.7,5.4,2.4l13,4.1c2.9,0.9,5.5,2,7.9,3.2
		c2.4,1.2,4.5,2.7,6.2,4.6c1.7,1.8,3,4.1,4,6.7c0.9,2.6,1.4,5.7,1.4,9.4c0,3.5-0.6,6.7-1.9,9.6c-1.3,2.9-3.1,5.4-5.3,7.6
		c-2.3,2.1-4.9,3.9-7.9,5.2c-3,1.3-6.3,2.1-9.7,2.3v13.7H41.9v-13.7c-5-0.1-9.8-1.1-14.4-2.9c-4.6-1.9-8.8-4.4-12.5-7.7l12.2-12.3
		c2.9,2.8,6,4.8,9,6.1c3.1,1.3,6.7,1.9,10.7,1.9c1.3,0,2.6-0.1,3.9-0.4c1.3-0.3,2.5-0.7,3.6-1.4c1.1-0.7,1.9-1.6,2.5-2.7
		c0.6-1.1,1-2.6,1-4.3c0-1.4-0.3-2.5-0.8-3.4c-0.5-0.9-1.2-1.7-2.1-2.4c-0.9-0.6-1.9-1.2-3.1-1.6c-1.2-0.5-2.4-0.9-3.6-1.2L35.5,71
		c-5.8-1.9-10.2-4.4-13.2-7.4c-3-3.1-4.5-7.4-4.5-13.2c0-3.5,0.6-6.6,1.9-9.3c1.2-2.8,2.9-5.1,5.1-7.1c2.1-2,4.7-3.6,7.6-4.7
		c2.9-1.1,6-1.8,9.4-2V13.6H52v13.7c3.5,0.2,7.2,0.8,10.9,2c3.7,1.2,7.5,3.2,11.4,6.2L62.6,47.4z"/>
	<path class="st0" d="M121.2,106h-18.3V49.7c-2.4,0.9-5.1,1.5-8.1,1.9c-3,0.3-5.8,0.6-8.4,0.7V40.1c5.7-0.1,10.1-1.1,13.2-3
		c3.1-1.8,5.5-4.6,7.2-8.2h14.4V106z"/>
	<path class="st0" d="M148.3,28.9h54.6v14.2c-3.3,3.4-6.5,7.4-9.6,12.2c-3.1,4.7-5.8,9.8-8.2,15.4c-2.4,5.5-4.4,11.3-6,17.4
		c-1.6,6-2.6,12-2.9,18H155c2.2-11.4,5.8-22.4,10.7-32.9c5-10.6,11.3-20.3,19-29.2h-36.4V28.9z"/>
	<path class="st0" d="M263.2,83.8c0,4.2-0.7,7.8-2.1,10.9c-1.4,3-3.3,5.5-5.8,7.4c-2.5,1.9-5.4,3.3-8.7,4.2c-3.4,0.9-7,1.3-10.9,1.3
		c-3.9,0-7.6-0.4-10.9-1.3c-3.4-0.9-6.3-2.3-8.7-4.2c-2.5-1.9-4.4-4.4-5.8-7.4c-1.4-3-2.1-6.6-2.1-10.9c0-4.4,1.2-8.3,3.7-11.5
		c2.5-3.2,5.9-5.3,10.3-6.3v-0.2c-3.4-1.4-6.1-3.7-8-6.9c-2-3.2-2.9-6.6-2.9-10.4c0-3.7,0.6-6.9,1.9-9.6c1.2-2.7,3-4.9,5.2-6.6
		c2.2-1.7,4.9-3,8-3.8c3.1-0.8,6.5-1.2,10.3-1.2c3.2,0,6.3,0.4,9.2,1.2c2.9,0.8,5.4,2.1,7.5,3.8c2.1,1.7,3.8,3.9,5,6.6
		c1.2,2.7,1.8,5.9,1.8,9.6c0,3.8-1,7.2-2.9,10.4c-2,3.2-4.6,5.5-8,6.9v0.2c4.4,1,7.8,3.1,10.3,6.3C261.9,75.5,263.2,79.4,263.2,83.8
		z M244.9,82.9c0-3.2-0.7-5.8-2-7.9c-1.3-2.1-3.7-3.1-7.2-3.1c-3.5,0-5.9,1-7.2,3.1c-1.3,2.1-2,4.7-2,7.9c0,3.2,0.7,5.9,2,8
		c1.3,2.1,3.7,3.1,7.2,3.1c3.5,0,5.9-1,7.2-3.1C244.2,88.8,244.9,86.1,244.9,82.9z M243.2,50.2c0-3.5-0.7-5.9-2-7.3
		c-1.4-1.4-3.2-2.1-5.4-2.1s-4.1,0.7-5.4,2.1c-1.4,1.4-2,3.8-2,7.3c0,3.5,0.7,6,2,7.4c1.4,1.4,3.2,2.1,5.4,2.1s4.1-0.7,5.4-2.1
		C242.5,56.2,243.2,53.8,243.2,50.2z"/>
</g>
<line class="st1" x1="16.3" y1="119.9" x2="267.7" y2="13.7"/>
<line class="st1" x1="16.3" y1="13.7" x2="267.7" y2="119.9"/>
</svg>
