<svg xmlns="http://www.w3.org/2000/svg" width="242" height="53" viewBox="0 0 242 53"><defs><style>.a{fill:#f7f7f7;font-size:12px;font-family:AkzidenzGroteskBE-Regular;}.b{fill:#ff031c;}.c,.e{fill:none;}.c{stroke:#600b12;stroke-width:2px;}.d{stroke:none;}</style></defs><g transform="translate(-818 -848)"><g transform="translate(249.331 -1705)"><text class="a" transform="translate(630 2564)"><tspan x="1.624" y="11">Puedes bloquear canales para </tspan><tspan x="13.498" y="24">que solo tú puedas verlos</tspan></text><g transform="translate(614.669 2563.217)"><g transform="translate(-24 -0.217)"><path class="b" d="M19.054,10.38a8.669,8.669,0,1,0,8.655,8.669,8.669,8.669,0,0,0-8.655-8.669Zm0,2.669a5.987,5.987,0,0,1,3.177.932l-8.246,8.246a5.973,5.973,0,0,1,5.069-9.178Zm0,11.987a5.9,5.9,0,0,1-3.191-.932l8.246-8.246a5.9,5.9,0,0,1,.932,3.191,5.987,5.987,0,0,1-5.987,5.987Z" transform="translate(4.272 4.583)"/><path class="b" d="M17.1,6.754a6.664,6.664,0,1,0-13.315,0V12.8a1,1,0,0,0,1.991,0V6.754a4.674,4.674,0,0,1,9.333,0V12.8a.96.96,0,0,0,.169.522L17.1,12.6Z" transform="translate(1.555 0.217)"/><path class="b" d="M11.987,19.828A11.38,11.38,0,0,0,13.7,25.8H11.987a52.906,52.906,0,0,1-9.079-.819A3.586,3.586,0,0,1,0,21.494V12.825a3.586,3.586,0,0,1,2.895-3.5,53.3,53.3,0,0,1,9.065-.833h1.13a49.813,49.813,0,0,1,6.679.607,11.3,11.3,0,0,0-7.78,10.731Z" transform="translate(0 3.804)"/></g></g></g><g class="c" transform="translate(818 848)"><rect class="d" width="242" height="53" rx="13"/><rect class="e" x="1" y="1" width="240" height="51" rx="12"/></g></g></svg>