<?xml version="1.0" encoding="utf-8"?>
<!-- Generator: Adobe Illustrator 25.2.1, SVG Export Plug-In . SVG Version: 6.00 Build 0)  -->
<svg version="1.1" id="Capa_1" xmlns="http://www.w3.org/2000/svg" xmlns:xlink="http://www.w3.org/1999/xlink" x="0px" y="0px"
	 viewBox="0 0 422 255" style="enable-background:new 0 0 422 255;" xml:space="preserve">
<style type="text/css">
	.st0{fill:none;}
	.st1{fill:#FF0000;}
	.st2{fill:#FFFFFF;}
	.st3{enable-background:new    ;}
	.st4{fill:#DD0D23;}
	.st5{font-family:'Arial-BoldItalicMT';}
	.st6{font-size:39px;}
	.st7{fill:url(#SVGID_1_);}
	.st8{fill:url(#SVGID_2_);}
	.st9{fill:url(#SVGID_3_);}
	.st10{fill:url(#SVGID_4_);}
	.st11{fill:url(#SVGID_5_);}
</style>
<g transform="translate(-170 -139)">
	<g transform="translate(284 348.33)">
		<line class="st0" x1="51.2" y1="3.9" x2="51.2" y2="40.8"/>
		<rect x="55.9" y="3.9" class="st1" width="0.5" height="36.9"/>
		<line class="st0" x1="194.7" y1="3.9" x2="194.7" y2="40.8"/>
		<g transform="translate(0 0)">
			<path class="st2" d="M17.9,45.5c0.2,0,0.4-0.1,0.5-0.2c0.2-0.1,0.3-0.3,0.4-0.4c0.1-0.2,0.2-0.4,0.1-0.6c0-0.3-0.1-0.5-0.2-0.8
				c-0.2-0.2-0.4-0.4-0.7-0.4c0.2-0.1,0.4-0.2,0.5-0.4c0.1-0.2,0.2-0.4,0.2-0.6c0-0.2,0-0.4-0.1-0.6c-0.1-0.1-0.2-0.3-0.3-0.4
				c-0.1-0.1-0.3-0.2-0.5-0.2c-0.2,0-0.4-0.1-0.6-0.1H15v4.8h2.3C17.5,45.6,17.7,45.6,17.9,45.5L17.9,45.5z M16,41.6h1.2
				c0.1,0,0.2,0,0.2,0.1c0.1,0,0.1,0.1,0.2,0.2c0,0.1,0.1,0.2,0.1,0.3c0,0.2-0.1,0.3-0.2,0.4c-0.1,0.1-0.3,0.1-0.5,0.1H16L16,41.6z
				 M16,44.8v-1.3h1.1c0.2,0,0.4,0,0.6,0.2c0.2,0.1,0.2,0.3,0.2,0.5c0,0.1,0,0.2,0,0.3c0,0.1-0.1,0.1-0.2,0.2
				c-0.1,0-0.2,0.1-0.2,0.1h-0.3L16,44.8z M12.7,42.7l-1.1-1.9h-1.2l1.8,2.9v1.9h1v-1.8l1.6-2.6v-0.4h-1L12.7,42.7z M34.8,40.8
				l-1.1,3.4l0,0l-1.1-3.4h-4.4l-0.5,0.9h1.9v3.9h1.1v-3.9h1.2l1.2,3.9h1.2l1.6-4.8L34.8,40.8z M26.6,40.8l-1.1,1.9l-1.1-1.9h-1.2
				l1.8,2.9v1.9h1.1v-1.8l1.8-2.9L26.6,40.8z M8.4,44.5h1.8l0.4,1.1h1.1l-1.8-4.8H8.7l-1.5,3.9H5v-3.9H4v4.8h4L8.4,44.5z M9.2,41.9
				L9.2,41.9l0.6,1.8H8.6L9.2,41.9z M23.1,41.4c-0.2-0.2-0.5-0.4-0.7-0.5c-0.3-0.1-0.7-0.2-1-0.2c-0.3,0-0.7,0.1-1,0.2
				c-0.3,0.1-0.5,0.3-0.7,0.5c-0.2,0.2-0.4,0.5-0.5,0.8c-0.1,0.3-0.2,0.7-0.2,1c0,0.3,0,0.7,0.2,1c0.1,0.3,0.3,0.6,0.5,0.8
				c0.2,0.2,0.5,0.4,0.7,0.5c0.3,0.1,0.6,0.2,1,0.2c0.3,0,0.7,0,1-0.1c0.3-0.1,0.5-0.3,0.7-0.5c0.2-0.2,0.4-0.5,0.5-0.8
				c0.1-0.3,0.2-0.6,0.2-1c0-0.3-0.1-0.7-0.2-1C23.5,41.9,23.3,41.7,23.1,41.4L23.1,41.4z M22.6,43.8c-0.1,0.6-0.6,1-1.2,1
				c-0.2,0-0.4,0-0.6-0.1c-0.2-0.1-0.3-0.2-0.4-0.4c-0.1-0.2-0.2-0.3-0.2-0.5c-0.1-0.2-0.1-0.4-0.1-0.6c0-0.2,0-0.4,0.1-0.6
				c0-0.2,0.1-0.4,0.2-0.5c0.1-0.2,0.2-0.3,0.4-0.4c0.2-0.1,0.4-0.1,0.6-0.1c0.2,0,0.4,0,0.6,0.1c0.2,0.1,0.3,0.2,0.4,0.4
				c0.1,0.2,0.2,0.3,0.2,0.5c0,0.2,0.1,0.4,0.1,0.6C22.6,43.4,22.6,43.6,22.6,43.8L22.6,43.8z M1.1,43.9h1.1c0.3,0,0.5,0,0.8-0.1
				c0.2-0.1,0.4-0.2,0.5-0.3c0.1-0.1,0.2-0.3,0.3-0.5c0.1-0.2,0.1-0.4,0.1-0.6c0-0.2-0.1-0.3-0.1-0.5c-0.1-0.2-0.2-0.4-0.3-0.5
				c-0.1-0.2-0.3-0.3-0.5-0.3c-0.2-0.1-0.5-0.1-0.8-0.1H0v4.8h1.1L1.1,43.9z M1.1,41.6h0.8c0.1,0,0.2,0,0.4,0c0.1,0,0.2,0,0.3,0.1
				c0.1,0.1,0.2,0.1,0.2,0.2c0.1,0.2,0.1,0.5,0,0.7c0,0.1-0.1,0.2-0.2,0.2C2.4,43,2.3,43,2.2,43c-0.1,0-0.2,0-0.4,0H1.1V41.6z"/>
			<path class="st2" d="M20.2,22c-0.8-0.2-1.6,0-2.2,0.5c-0.7,0.6-1,1.5-0.8,2.4c0.2,0.9,1,1.6,1.9,1.9c1.3,0.3,2.6-0.5,2.9-1.9
				c0.1-0.6,0-1.3-0.3-1.8C21.3,22.6,20.8,22.2,20.2,22z"/>
			<path class="st2" d="M11.2,31.4c-1.2-3.7,1-7,3.6-9.5c3.2-3,7.4-4,12-4.2l0.1-0.1c-4.1-1.7-8.4-2.8-11.9-6
				c-2.7-2.4-5.1-5.3-7-8.4c-0.6-1-1.1-2-1.5-3.2H0v37.9h20C16.7,36.9,12.8,34.8,11.2,31.4z"/>
			<path class="st2" d="M31.1,17.3c0.2,0,0.2-0.2,0.2-0.3c-0.1-2.7,0.1-5.5,0.6-8.2c0.4-3.2,1.6-6.2,3.4-8.9H16.7
				c1.9,1.6,2.5,2.5,4.3,4.2C25,8.4,27.7,12.8,31.1,17.3z"/>
		</g>
		<g transform="translate(69.749 2.137)">
			<path class="st2" d="M105.9,23.4c-0.3-0.8-0.8-1.5-1.4-2.1c-1.2-1.1-2.7-1.9-4.3-2.2c-1.4-0.4-3.2-0.6-4.3-1.5
				c-0.5-0.4-0.7-0.9-0.7-1.5c0-0.6,0.3-1.1,0.8-1.4c1.4-0.8,3.1-0.8,4.5-0.1c0.9,0.3,1.7,0.8,2.5,1.4l2.2-4.8
				c-1.1-0.7-2.3-1.3-3.5-1.6c-3.5-1-7.6-0.8-10.4,1.7c-3.1,2.7-3.5,8.4,0.2,10.8c1.3,0.8,2.7,1.4,4.2,1.7c1.6,0.4,4.5,1.2,4,3.2
				c-0.6,2.2-4.2,1.6-6.1,0.9c-1.5-0.6-2.8-1.4-3.9-2.5c-0.1,2-0.8,4-2,5.5c1.8,1.6,4,2.7,6.3,3.3c4.9,1.2,8.4-0.5,9.8-1.9
				c1.7-1.6,2.7-3.8,2.6-6.1C106.3,25.2,106.1,24.3,105.9,23.4"/>
			<path class="st2" d="M57.9,22.1l-14.7-12v24.1h6.4V22.7l15.1,11.4V10h-6.7L57.9,22.1z"/>
			<path class="st2" d="M87.4,24.9V10H81v14.4c0,2.7-1.2,4.3-4,4.3s-4-1.6-4-4.3V10h-6.5v14.8c0,6.5,4.4,9.7,10.5,9.7
				c3.7,0,6.9-1.2,8.7-3.7c0.1-0.1,0.4-0.7,0.8-1.4C87.2,28,87.5,26.5,87.4,24.9"/>
			<path class="st2" d="M85.7,30.8c0.3-0.5,0.6-0.9,0.8-1.4C86.1,30.2,85.7,30.7,85.7,30.8"/>
			<path class="st2" d="M30.6,28.9v-4.1H41v-5.4H30.6v-3.9l10.6,0V10H27.6l-3.4,6.6v17.5h17.1v-5.3H30.6z"/>
			<path class="st2" d="M13.3,20.3L7.7,10H0l13.2,24.2L30.6,0h-6.9L13.3,20.3z"/>
		</g>
	</g>
	<g class="st3">
		<path class="st2" d="M172.7,225.7h7.1c1.6,0,2.8,0.1,3.7,0.4c1.1,0.3,2.1,0.9,2.9,1.8s1.4,1.9,1.8,3.1c0.4,1.2,0.6,2.8,0.6,4.6
			c0,1.6-0.2,3-0.6,4.1c-0.5,1.4-1.2,2.5-2.1,3.4c-0.7,0.7-1.6,1.2-2.7,1.5c-0.9,0.3-2,0.4-3.5,0.4h-7.3V225.7z M176.6,228.9v12.8
			h2.9c1.1,0,1.9-0.1,2.4-0.2c0.6-0.2,1.2-0.4,1.6-0.8s0.8-1,1-1.9c0.3-0.9,0.4-2,0.4-3.5s-0.1-2.6-0.4-3.4
			c-0.3-0.8-0.6-1.4-1.1-1.9c-0.5-0.4-1.1-0.8-1.8-0.9c-0.5-0.1-1.6-0.2-3.2-0.2H176.6z"/>
		<path class="st2" d="M192.1,245v-19.3h3.9V245H192.1z"/>
		<path class="st2" d="M198.7,238.7l3.8-0.4c0.2,1.3,0.7,2.2,1.4,2.8c0.7,0.6,1.6,0.9,2.8,0.9c1.3,0,2.2-0.3,2.8-0.8
			c0.6-0.5,1-1.2,1-1.9c0-0.5-0.1-0.8-0.4-1.2c-0.3-0.3-0.7-0.6-1.4-0.8c-0.5-0.2-1.5-0.4-3.1-0.8c-2.1-0.5-3.6-1.2-4.4-1.9
			c-1.2-1.1-1.8-2.4-1.8-3.9c0-1,0.3-1.9,0.8-2.8c0.6-0.9,1.4-1.5,2.4-2s2.3-0.7,3.8-0.7c2.4,0,4.3,0.5,5.5,1.6
			c1.2,1.1,1.9,2.5,1.9,4.3l-3.9,0.2c-0.2-1-0.5-1.7-1.1-2.1c-0.5-0.4-1.4-0.7-2.5-0.7c-1.1,0-2,0.2-2.7,0.7
			c-0.4,0.3-0.6,0.7-0.6,1.2c0,0.5,0.2,0.8,0.6,1.2c0.5,0.4,1.7,0.8,3.6,1.3c1.9,0.4,3.3,0.9,4.2,1.4c0.9,0.5,1.6,1.1,2.1,2
			c0.5,0.8,0.8,1.9,0.8,3.1c0,1.1-0.3,2.1-0.9,3.1s-1.5,1.7-2.6,2.2c-1.1,0.5-2.5,0.7-4.2,0.7c-2.4,0-4.3-0.6-5.6-1.7
			C199.7,242.5,199,240.9,198.7,238.7z"/>
		<path class="st2" d="M217.7,245v-19.3H231v3.3h-9.3v4.6h8.1v3.3h-8.1v8.2H217.7z"/>
		<path class="st2" d="M234.2,245v-19.3h8.2c2.1,0,3.6,0.2,4.5,0.5c0.9,0.3,1.7,1,2.2,1.9s0.8,1.9,0.8,3c0,1.4-0.4,2.6-1.3,3.6
			c-0.9,0.9-2.1,1.5-3.8,1.8c0.8,0.5,1.5,1,2.1,1.6c0.5,0.6,1.3,1.6,2.2,3.1l2.4,3.8h-4.7l-2.8-4.2c-1-1.5-1.7-2.5-2.1-2.8
			c-0.4-0.4-0.8-0.7-1.2-0.8c-0.4-0.1-1.1-0.2-2-0.2h-0.8v8.1H234.2z M238.1,233.8h2.9c1.9,0,3-0.1,3.5-0.2s0.8-0.4,1.1-0.8
			s0.4-0.9,0.4-1.5c0-0.7-0.2-1.2-0.5-1.6c-0.3-0.4-0.8-0.7-1.5-0.8c-0.3,0-1.3-0.1-2.8-0.1h-3V233.8z"/>
		<path class="st2" d="M253.7,225.7h3.9v10.5c0,1.7,0,2.7,0.1,3.2c0.2,0.8,0.6,1.4,1.2,1.9c0.6,0.5,1.5,0.7,2.6,0.7
			c1.1,0,1.9-0.2,2.5-0.7c0.6-0.5,0.9-1,1-1.7s0.2-1.8,0.2-3.3v-10.7h3.9v10.2c0,2.3-0.1,4-0.3,4.9s-0.6,1.8-1.2,2.4
			c-0.6,0.7-1.3,1.2-2.3,1.6c-0.9,0.4-2.2,0.6-3.7,0.6c-1.8,0-3.2-0.2-4.2-0.6c-1-0.4-1.7-1-2.3-1.7c-0.6-0.7-0.9-1.4-1.1-2.1
			c-0.3-1.1-0.4-2.7-0.4-4.9V225.7z"/>
		<path class="st2" d="M277.5,245v-16.1h-5.7v-3.3h15.4v3.3h-5.7V245H277.5z"/>
		<path class="st2" d="M305.1,245h-4.2l-1.7-4.4h-7.7l-1.6,4.4h-4.1l7.5-19.3h4.1L305.1,245z M297.9,237.4l-2.7-7.2l-2.6,7.2H297.9z
			"/>
		<path class="st2" d="M313.8,245v-19.2h3.9v15.9h9.7v3.3H313.8z"/>
		<path class="st2" d="M347.6,245h-4.2l-1.7-4.4h-7.7l-1.6,4.4h-4.1l7.5-19.3h4.1L347.6,245z M340.4,237.4l-2.7-7.2l-2.6,7.2H340.4z
			"/>
		<path class="st2" d="M356.2,245v-19.3h6.3c2.4,0,3.9,0.1,4.6,0.3c1.1,0.3,2,0.9,2.8,1.9c0.7,1,1.1,2.2,1.1,3.8
			c0,1.2-0.2,2.2-0.6,3s-1,1.4-1.6,1.9c-0.7,0.5-1.3,0.8-2,0.9c-0.9,0.2-2.3,0.3-4,0.3h-2.5v7.3H356.2z M360.1,228.9v5.5h2.1
			c1.5,0,2.6-0.1,3.1-0.3c0.5-0.2,0.9-0.5,1.2-0.9c0.3-0.4,0.4-0.9,0.4-1.5c0-0.7-0.2-1.3-0.6-1.7s-0.9-0.7-1.6-0.9
			c-0.5-0.1-1.4-0.1-2.8-0.1H360.1z"/>
		<path class="st2" d="M374.2,245v-19.3h8.2c2.1,0,3.6,0.2,4.5,0.5c0.9,0.3,1.7,1,2.2,1.9s0.8,1.9,0.8,3c0,1.4-0.4,2.6-1.3,3.6
			c-0.9,0.9-2.1,1.5-3.8,1.8c0.8,0.5,1.5,1,2.1,1.6c0.5,0.6,1.3,1.6,2.2,3.1l2.4,3.8h-4.7l-2.8-4.2c-1-1.5-1.7-2.5-2.1-2.8
			c-0.4-0.4-0.8-0.7-1.2-0.8c-0.4-0.1-1.1-0.2-2-0.2h-0.8v8.1H374.2z M378.1,233.8h2.9c1.9,0,3-0.1,3.5-0.2s0.8-0.4,1.1-0.8
			s0.4-0.9,0.4-1.5c0-0.7-0.2-1.2-0.5-1.6c-0.3-0.4-0.8-0.7-1.5-0.8c-0.3,0-1.3-0.1-2.8-0.1h-3V233.8z"/>
		<path class="st2" d="M392.9,235.5c0-2,0.3-3.6,0.9-5c0.4-1,1-1.9,1.8-2.7c0.8-0.8,1.6-1.4,2.5-1.7c1.2-0.5,2.6-0.8,4.2-0.8
			c2.8,0,5.1,0.9,6.8,2.6c1.7,1.8,2.6,4.2,2.6,7.4c0,3.1-0.8,5.6-2.5,7.3c-1.7,1.8-4,2.6-6.8,2.6c-2.9,0-5.2-0.9-6.9-2.6
			C393.7,240.9,392.9,238.5,392.9,235.5z M396.9,235.3c0,2.2,0.5,3.8,1.5,5c1,1.1,2.3,1.7,3.8,1.7s2.8-0.6,3.8-1.7
			c1-1.1,1.5-2.8,1.5-5c0-2.2-0.5-3.9-1.5-5c-1-1.1-2.3-1.6-3.9-1.6s-2.9,0.6-3.9,1.7C397.4,231.4,396.9,233.1,396.9,235.3z"/>
		<path class="st2" d="M423.7,237.9v-3.3h8.4v7.7c-0.8,0.8-2,1.5-3.6,2.1c-1.6,0.6-3.1,0.9-4.7,0.9c-2,0-3.8-0.4-5.3-1.3
			c-1.5-0.8-2.6-2.1-3.4-3.6c-0.8-1.6-1.1-3.3-1.1-5.1c0-2,0.4-3.8,1.3-5.4c0.8-1.6,2.1-2.8,3.7-3.6c1.2-0.6,2.8-1,4.6-1
			c2.4,0,4.3,0.5,5.6,1.5c1.3,1,2.2,2.4,2.6,4.2l-3.9,0.7c-0.3-0.9-0.8-1.7-1.5-2.2c-0.8-0.5-1.7-0.8-2.8-0.8
			c-1.7,0-3.1,0.5-4.1,1.6c-1,1.1-1.5,2.7-1.5,4.8c0,2.3,0.5,4,1.5,5.2c1,1.1,2.4,1.7,4,1.7c0.8,0,1.6-0.2,2.5-0.5
			c0.8-0.3,1.5-0.7,2.1-1.2v-2.5H423.7z"/>
		<path class="st2" d="M435.7,245v-19.3h8.2c2.1,0,3.6,0.2,4.5,0.5c0.9,0.3,1.7,1,2.2,1.9s0.8,1.9,0.8,3c0,1.4-0.4,2.6-1.3,3.6
			c-0.9,0.9-2.1,1.5-3.8,1.8c0.8,0.5,1.5,1,2.1,1.6c0.5,0.6,1.3,1.6,2.2,3.1l2.4,3.8h-4.7l-2.8-4.2c-1-1.5-1.7-2.5-2.1-2.8
			c-0.4-0.4-0.8-0.7-1.2-0.8c-0.4-0.1-1.1-0.2-2-0.2h-0.8v8.1H435.7z M439.6,233.8h2.9c1.9,0,3-0.1,3.5-0.2s0.8-0.4,1.1-0.8
			s0.4-0.9,0.4-1.5c0-0.7-0.2-1.2-0.5-1.6c-0.3-0.4-0.8-0.7-1.5-0.8c-0.3,0-1.3-0.1-2.8-0.1h-3V233.8z"/>
		<path class="st2" d="M472.6,245h-4.2l-1.7-4.4h-7.7l-1.6,4.4h-4.1l7.5-19.3h4.1L472.6,245z M465.4,237.4l-2.7-7.2l-2.6,7.2H465.4z
			"/>
		<path class="st2" d="M474.6,245v-19.3h5.8l3.5,13.2l3.5-13.2h5.9V245h-3.6v-15.2l-3.8,15.2h-3.8l-3.8-15.2V245H474.6z"/>
		<path class="st2" d="M514.6,245h-4.2l-1.7-4.4h-7.7l-1.6,4.4h-4.1l7.5-19.3h4.1L514.6,245z M507.4,237.4l-2.7-7.2l-2.6,7.2H507.4z
			"/>
		<path class="st2" d="M529,237.9l3.8,1.2c-0.6,2.1-1.5,3.7-2.9,4.7c-1.3,1-3.1,1.5-5.1,1.5c-2.6,0-4.7-0.9-6.3-2.6
			c-1.7-1.8-2.5-4.2-2.5-7.2c0-3.2,0.8-5.7,2.5-7.5c1.7-1.8,3.8-2.7,6.6-2.7c2.4,0,4.3,0.7,5.8,2.1c0.9,0.8,1.5,2,2,3.6l-3.9,0.9
			c-0.2-1-0.7-1.8-1.4-2.4c-0.7-0.6-1.6-0.9-2.6-0.9c-1.4,0-2.6,0.5-3.5,1.5c-0.9,1-1.3,2.7-1.3,5c0,2.4,0.4,4.2,1.3,5.2
			s2,1.6,3.4,1.6c1,0,1.9-0.3,2.7-1C528.2,240.3,528.7,239.3,529,237.9z"/>
		<path class="st2" d="M536,245v-19.3h3.9V245H536z"/>
		<path class="st2" d="M542.9,235.5c0-2,0.3-3.6,0.9-5c0.4-1,1-1.9,1.8-2.7c0.8-0.8,1.6-1.4,2.5-1.7c1.2-0.5,2.6-0.8,4.2-0.8
			c2.8,0,5.1,0.9,6.8,2.6c1.7,1.8,2.6,4.2,2.6,7.4c0,3.1-0.8,5.6-2.5,7.3c-1.7,1.8-4,2.6-6.8,2.6c-2.9,0-5.2-0.9-6.9-2.6
			C543.7,240.9,542.9,238.5,542.9,235.5z M546.9,235.3c0,2.2,0.5,3.8,1.5,5c1,1.1,2.3,1.7,3.8,1.7c1.6,0,2.8-0.6,3.8-1.7
			c1-1.1,1.5-2.8,1.5-5c0-2.2-0.5-3.9-1.5-5c-1-1.1-2.3-1.6-3.9-1.6c-1.6,0-2.9,0.6-3.9,1.7C547.4,231.4,546.9,233.1,546.9,235.3z
			 M549.8,224.6l1.8-3.9h4.2l-3.6,3.9H549.8z"/>
		<path class="st2" d="M564.7,245v-19.3h3.8l7.9,12.9v-12.9h3.6V245h-3.9l-7.8-12.6V245H564.7z"/>
	</g>
	<g class="st3">
		<path class="st2" d="M205,274v-19.3h6.3c2.4,0,3.9,0.1,4.6,0.3c1.1,0.3,2,0.9,2.8,1.9c0.7,1,1.1,2.2,1.1,3.8c0,1.2-0.2,2.2-0.6,3
			s-1,1.4-1.6,1.9c-0.7,0.5-1.3,0.8-2,0.9c-0.9,0.2-2.3,0.3-4,0.3h-2.5v7.3H205z M208.9,257.9v5.5h2.1c1.5,0,2.6-0.1,3.1-0.3
			c0.5-0.2,0.9-0.5,1.2-0.9c0.3-0.4,0.4-0.9,0.4-1.5c0-0.7-0.2-1.3-0.6-1.7s-0.9-0.7-1.6-0.9c-0.5-0.1-1.4-0.1-2.8-0.1H208.9z"/>
		<path class="st2" d="M223,274v-19.3h8.2c2.1,0,3.6,0.2,4.5,0.5c0.9,0.3,1.7,1,2.2,1.9s0.8,1.9,0.8,3c0,1.4-0.4,2.6-1.3,3.6
			c-0.9,0.9-2.1,1.5-3.8,1.8c0.8,0.5,1.5,1,2.1,1.6c0.5,0.6,1.3,1.6,2.2,3.1l2.4,3.8h-4.7l-2.8-4.2c-1-1.5-1.7-2.5-2.1-2.8
			c-0.4-0.4-0.8-0.7-1.2-0.8c-0.4-0.1-1.1-0.2-2-0.2h-0.8v8.1H223z M226.9,262.8h2.9c1.9,0,3-0.1,3.5-0.2s0.8-0.4,1.1-0.8
			s0.4-0.9,0.4-1.5c0-0.7-0.2-1.2-0.5-1.6c-0.3-0.4-0.8-0.7-1.5-0.8c-0.3,0-1.3-0.1-2.8-0.1h-3V262.8z"/>
		<path class="st2" d="M242.5,274v-19.3h14.3v3.3h-10.4v4.3h9.7v3.3h-9.7v5.3h10.8v3.3H242.5z"/>
		<path class="st2" d="M260.4,274v-19.3h5.8l3.5,13.2l3.5-13.2h5.9V274h-3.6v-15.2l-3.8,15.2h-3.8l-3.8-15.2V274H260.4z"/>
		<path class="st2" d="M282.8,274v-19.3h3.9V274H282.8z"/>
		<path class="st2" d="M290.4,254.7h3.9v10.5c0,1.7,0,2.7,0.1,3.2c0.2,0.8,0.6,1.4,1.2,1.9c0.6,0.5,1.5,0.7,2.6,0.7
			c1.1,0,1.9-0.2,2.5-0.7c0.6-0.5,0.9-1,1-1.7s0.2-1.8,0.2-3.3v-10.7h3.9v10.2c0,2.3-0.1,4-0.3,4.9s-0.6,1.8-1.2,2.4
			c-0.6,0.7-1.3,1.2-2.3,1.6c-0.9,0.4-2.2,0.6-3.7,0.6c-1.8,0-3.2-0.2-4.2-0.6c-1-0.4-1.7-1-2.3-1.7c-0.6-0.7-0.9-1.4-1.1-2.1
			c-0.3-1.1-0.4-2.7-0.4-4.9V254.7z"/>
		<path class="st2" d="M309.9,274v-19.3h5.8l3.5,13.2l3.5-13.2h5.9V274H325v-15.2l-3.8,15.2h-3.8l-3.8-15.2V274H309.9z"/>
		<path class="st2" d="M340,274v-19.3h6.3c2.4,0,3.9,0.1,4.6,0.3c1.1,0.3,2,0.9,2.8,1.9c0.7,1,1.1,2.2,1.1,3.8c0,1.2-0.2,2.2-0.6,3
			s-1,1.4-1.6,1.9c-0.7,0.5-1.3,0.8-2,0.9c-0.9,0.2-2.3,0.3-4,0.3h-2.5v7.3H340z M343.9,257.9v5.5h2.1c1.5,0,2.6-0.1,3.1-0.3
			c0.5-0.2,0.9-0.5,1.2-0.9c0.3-0.4,0.4-0.9,0.4-1.5c0-0.7-0.2-1.3-0.6-1.7s-0.9-0.7-1.6-0.9c-0.5-0.1-1.4-0.1-2.8-0.1H343.9z"/>
		<path class="st2" d="M373.4,274h-4.2l-1.7-4.4h-7.7l-1.6,4.4H354l7.5-19.3h4.1L373.4,274z M366.2,266.4l-2.7-7.2l-2.6,7.2H366.2z"
			/>
		<path class="st2" d="M375.5,274v-19.3h8.2c2.1,0,3.6,0.2,4.5,0.5c0.9,0.3,1.7,1,2.2,1.9s0.8,1.9,0.8,3c0,1.4-0.4,2.6-1.3,3.6
			c-0.9,0.9-2.1,1.5-3.8,1.8c0.8,0.5,1.5,1,2.1,1.6c0.5,0.6,1.3,1.6,2.2,3.1l2.4,3.8h-4.7l-2.8-4.2c-1-1.5-1.7-2.5-2.1-2.8
			c-0.4-0.4-0.8-0.7-1.2-0.8c-0.4-0.1-1.1-0.2-2-0.2h-0.8v8.1H375.5z M379.4,262.8h2.9c1.9,0,3-0.1,3.5-0.2s0.8-0.4,1.1-0.8
			s0.4-0.9,0.4-1.5c0-0.7-0.2-1.2-0.5-1.6c-0.3-0.4-0.8-0.7-1.5-0.8c-0.3,0-1.3-0.1-2.8-0.1h-3V262.8z"/>
		<path class="st2" d="M412.4,274h-4.2l-1.7-4.4h-7.7l-1.6,4.4H393l7.5-19.3h4.1L412.4,274z M405.2,266.4l-2.7-7.2l-2.6,7.2H405.2z"
			/>
		<path class="st2" d="M437.4,274h-4.2l-1.7-4.4h-7.7l-1.6,4.4H418l7.5-19.3h4.1L437.4,274z M430.2,266.4l-2.7-7.2l-2.6,7.2H430.2z"
			/>
		<path class="st2" d="M439.4,254.7h7.1c1.6,0,2.8,0.1,3.7,0.4c1.1,0.3,2.1,0.9,2.9,1.8c0.8,0.9,1.4,1.9,1.8,3.1
			c0.4,1.2,0.6,2.8,0.6,4.6c0,1.6-0.2,3-0.6,4.1c-0.5,1.4-1.2,2.5-2.1,3.4c-0.7,0.7-1.6,1.2-2.7,1.5c-0.9,0.3-2,0.4-3.5,0.4h-7.3
			V254.7z M443.3,257.9v12.8h2.9c1.1,0,1.9-0.1,2.4-0.2c0.6-0.2,1.2-0.4,1.6-0.8c0.4-0.4,0.8-1,1-1.9c0.3-0.9,0.4-2,0.4-3.5
			s-0.1-2.6-0.4-3.4c-0.3-0.8-0.6-1.4-1.1-1.9c-0.5-0.4-1.1-0.8-1.8-0.9c-0.5-0.1-1.6-0.2-3.2-0.2H443.3z"/>
		<path class="st2" d="M458.9,254.7h3.9v10.5c0,1.7,0,2.7,0.1,3.2c0.2,0.8,0.6,1.4,1.2,1.9c0.6,0.5,1.5,0.7,2.6,0.7
			c1.1,0,1.9-0.2,2.5-0.7c0.6-0.5,0.9-1,1-1.7s0.2-1.8,0.2-3.3v-10.7h3.9v10.2c0,2.3-0.1,4-0.3,4.9s-0.6,1.8-1.2,2.4
			c-0.6,0.7-1.3,1.2-2.3,1.6c-0.9,0.4-2.2,0.6-3.7,0.6c-1.8,0-3.2-0.2-4.2-0.6c-1-0.4-1.7-1-2.3-1.7c-0.6-0.7-0.9-1.4-1.1-2.1
			c-0.3-1.1-0.4-2.7-0.4-4.9V254.7z"/>
		<path class="st2" d="M478.6,274v-19.2h3.9v15.9h9.7v3.3H478.6z"/>
		<path class="st2" d="M497.3,274v-16.1h-5.7v-3.3h15.4v3.3h-5.7V274H497.3z"/>
		<path class="st2" d="M508.2,264.5c0-2,0.3-3.6,0.9-5c0.4-1,1-1.9,1.8-2.7c0.8-0.8,1.6-1.4,2.5-1.7c1.2-0.5,2.6-0.8,4.2-0.8
			c2.8,0,5.1,0.9,6.8,2.6c1.7,1.8,2.6,4.2,2.6,7.4c0,3.1-0.8,5.6-2.5,7.3c-1.7,1.8-4,2.6-6.8,2.6c-2.9,0-5.2-0.9-6.9-2.6
			C509,269.9,508.2,267.5,508.2,264.5z M512.2,264.3c0,2.2,0.5,3.8,1.5,5c1,1.1,2.3,1.7,3.8,1.7c1.6,0,2.8-0.6,3.8-1.7
			c1-1.1,1.5-2.8,1.5-5c0-2.2-0.5-3.9-1.5-5c-1-1.1-2.3-1.6-3.9-1.6c-1.6,0-2.9,0.6-3.9,1.7C512.7,260.4,512.2,262.1,512.2,264.3z"
			/>
		<path class="st2" d="M529,267.7l3.8-0.4c0.2,1.3,0.7,2.2,1.4,2.8c0.7,0.6,1.6,0.9,2.8,0.9c1.3,0,2.2-0.3,2.8-0.8
			c0.6-0.5,1-1.2,1-1.9c0-0.5-0.1-0.8-0.4-1.2c-0.3-0.3-0.7-0.6-1.4-0.8c-0.5-0.2-1.5-0.4-3.1-0.8c-2.1-0.5-3.6-1.2-4.4-1.9
			c-1.2-1.1-1.8-2.4-1.8-3.9c0-1,0.3-1.9,0.8-2.8c0.6-0.9,1.4-1.5,2.4-2c1.1-0.4,2.3-0.7,3.8-0.7c2.4,0,4.3,0.5,5.5,1.6
			c1.2,1.1,1.9,2.5,1.9,4.3l-3.9,0.2c-0.2-1-0.5-1.7-1.1-2.1c-0.5-0.4-1.4-0.7-2.5-0.7c-1.1,0-2,0.2-2.7,0.7
			c-0.4,0.3-0.6,0.7-0.6,1.2c0,0.5,0.2,0.8,0.6,1.2c0.5,0.4,1.7,0.8,3.6,1.3c1.9,0.4,3.3,0.9,4.2,1.4c0.9,0.5,1.6,1.1,2.1,2
			c0.5,0.8,0.8,1.9,0.8,3.1c0,1.1-0.3,2.1-0.9,3.1s-1.5,1.7-2.6,2.2c-1.1,0.5-2.5,0.7-4.2,0.7c-2.4,0-4.3-0.6-5.6-1.7
			C530,271.5,529.2,269.9,529,267.7z"/>
	</g>
	<text transform="matrix(1 0 0 1 267.02 324)" class="st4 st5 st6">X 48 HORAS</text>
	<g transform="translate(-30.726 -80.631)">
		
			<linearGradient id="SVGID_1_" gradientUnits="userSpaceOnUse" x1="116.5308" y1="764.3204" x2="116.5308" y2="763.3204" gradientTransform="matrix(65.9081 0 0 -69.7527 -7378.6514 53533.0234)">
			<stop  offset="0" style="stop-color:#DD0D23"/>
			<stop  offset="1" style="stop-color:#6F0712"/>
		</linearGradient>
		<path class="st7" d="M269.3,265.9l19.8-1.2c-0.5,3.2-0.3,5.7,0.6,7.4c1.4,2.7,4,4.1,7.9,4.1c2.6,0.1,5.2-0.6,7.3-2.1
			c1.8-1.1,3.1-2.9,3.7-4.9c0.5-1.6,0.1-3.4-1-4.7c-1.1-1.4-4.3-2.7-9.4-3.9c-8.4-2.1-14.1-4.8-17-8.2c-2.9-3.4-3.7-7.7-2.3-13
			c1.1-3.7,3-7,5.6-9.8c3-3.2,6.7-5.7,10.9-7.3c4.4-1.8,10.1-2.6,17-2.6c8.5,0,14.5,1.6,18,4.8c3.6,3.2,4.8,8.3,3.8,15.3l-19.6,1.1
			c0.3-3-0.2-5.2-1.4-6.6c-1.3-1.4-3.3-2.1-6.2-2.1c-2-0.1-4.1,0.4-5.8,1.5c-1.4,0.9-2.4,2.2-2.8,3.8c-0.3,1,0,2.1,0.7,2.9
			c0.7,0.9,2.8,1.7,6.2,2.5c8.4,2,14.3,4,17.6,6c3,1.6,5.3,4.3,6.4,7.5c1,3.3,0.9,6.7-0.1,10c-1.3,4.5-3.6,8.6-6.8,12
			c-3.3,3.7-7.5,6.5-12.1,8.3c-5.3,2-11,3-16.7,2.8c-11.3,0-18.5-2.2-21.6-6.6S268,272.7,269.3,265.9z"/>
		
			<linearGradient id="SVGID_2_" gradientUnits="userSpaceOnUse" x1="116.4023" y1="764.1766" x2="116.4023" y2="763.1766" gradientTransform="matrix(73.113 0 0 -67.444 -8147.814 51759.8867)">
			<stop  offset="0" style="stop-color:#DD0D23"/>
			<stop  offset="1" style="stop-color:#6F0712"/>
		</linearGradient>
		<path class="st8" d="M344.4,220.8h54.8l-3.9,14.4H361l-2.9,10.7H390l-3.7,13.8h-31.8l-3.6,13.3h35.3l-4.1,15.3h-55.8L344.4,220.8z
			"/>
		
			<linearGradient id="SVGID_3_" gradientUnits="userSpaceOnUse" x1="116.1996" y1="764.1764" x2="116.1996" y2="763.1764" gradientTransform="matrix(88.33 0 0 -67.44 -9837.0498 51756.8398)">
			<stop  offset="0" style="stop-color:#DD0D23"/>
			<stop  offset="1" style="stop-color:#6F0712"/>
		</linearGradient>
		<path class="st9" d="M403.1,220.8h22.5l6.1,20.7l17-20.7H471l-29.5,32.7l13.1,34.8h-23l-7.2-21.7l-18.9,21.7h-22.9l32.4-35.1
			L403.1,220.8z"/>
		
			<linearGradient id="SVGID_4_" gradientUnits="userSpaceOnUse" x1="116.4199" y1="764.1764" x2="116.4199" y2="763.1764" gradientTransform="matrix(72.033 0 0 -67.44 -7890.1753 51756.8398)">
			<stop  offset="0" style="stop-color:#DD0D23"/>
			<stop  offset="1" style="stop-color:#6F0712"/>
		</linearGradient>
		<path class="st10" d="M459.9,220.8h22.7l7.2,22.8l19.5-22.8h22.6L495.6,260l-7.7,28.2h-20.5L475,260L459.9,220.8z"/>
		
			<linearGradient id="SVGID_5_" gradientUnits="userSpaceOnUse" x1="117.4975" y1="764.2466" x2="117.4975" y2="763.2466" gradientTransform="matrix(37.861 0 0 -68.547 -3907.4248 52607.5977)">
			<stop  offset="0" style="stop-color:#DD0D23"/>
			<stop  offset="1" style="stop-color:#6F0712"/>
		</linearGradient>
		<path class="st11" d="M526.8,272.5h18.6l-4.6,16.8h-18.6L526.8,272.5z M540.1,220.8h20l-4.2,15.6l-12.4,31.4h-12.3l4.7-31.4
			L540.1,220.8z"/>
	</g>
</g>
</svg>
