<svg xmlns="http://www.w3.org/2000/svg" width="92.307" height="38.005" viewBox="0 0 92.307 38.005"><defs><style>.a{fill:#b51e23;}.b{fill:#b1afaf;}.c{fill:#fff;font-size:14px;font-family:Helvetica;letter-spacing:0.01em;}</style></defs><g transform="translate(-364.362 -1388.773)"><g transform="translate(364.362 1408.497)"><path class="a" d="M178.216,13.45v6.683h-6.987V13.45H167.38V30.681h3.849V23.237h6.987v7.444h3.731V13.45Z" transform="translate(-167.38 -12.655)"/><path class="b" d="M246.389,12.51c2.335,0,8.459.99,8.459,9.136s-6.133,9.127-8.459,9.127-8.459-.99-8.459-9.127,6.133-9.136,8.459-9.136m0,15.227c1.988,0,4.788-1.21,4.788-6.057s-2.8-6.065-4.788-6.065-4.788,1.21-4.788,6.065,2.8,6.057,4.788,6.057" transform="translate(-178.25 -12.51)"/><path class="b" d="M233.751,20.727H225.8v3.2h4.052a4.534,4.534,0,0,1-4.543,3.8c-1.988,0-4.779-1.21-4.779-6.065s2.792-6.057,4.779-6.057a4.534,4.534,0,0,1,4.551,3.849h3.747c-1.007-6.116-6.192-6.92-8.3-6.92-2.326,0-8.459.99-8.459,9.127s6.141,9.136,8.459,9.136,8.459-.99,8.459-9.136v-.914" transform="translate(-175.002 -12.513)"/><path class="a" d="M202,13.32v.4a6.911,6.911,0,0,1,2.724,2.783h1.963V30.551h3.773V16.5h4.576V13.32Z" transform="translate(-172.714 -12.635)"/><path class="a" d="M194.049,12.51c2.326,0,8.459.99,8.459,9.136s-6.141,9.127-8.459,9.127-8.459-.99-8.459-9.127,6.133-9.136,8.459-9.136m0,15.227c1.988,0,4.788-1.21,4.788-6.057s-2.8-6.065-4.788-6.065-4.788,1.21-4.788,6.065,2.8,6.057,4.788,6.057" transform="translate(-170.186 -12.51)"/><path class="b" d="M259.8,13.42a11,11,0,0,1,3.68,8.172,13.755,13.755,0,0,1-3.722,8.916l14.161-8.73Z" transform="translate(-181.614 -12.65)"/></g><text class="c" transform="translate(364.818 1399.773)"><tspan x="0" y="0">Acceso a</tspan></text></g></svg>