<svg xmlns="http://www.w3.org/2000/svg" width="119.803" height="31.542" viewBox="0 0 119.803 31.542"><defs><style>.a{fill:none;stroke:#7c0e1a;stroke-miterlimit:10;}.b{fill:#d9d9d9;}</style></defs><g transform="translate(-351 -1330)"><line class="a" y2="31.542" transform="translate(389.499 1330)"/><g transform="translate(-4)"><path class="b" d="M11.286,37.434a1.059,1.059,0,0,0,.345-.157A.73.73,0,0,0,11.866,37a.926.926,0,0,0-.047-.871.738.738,0,0,0-.416-.283.785.785,0,0,0,.306-.251.644.644,0,0,0,.1-.377.785.785,0,0,0-.039-.345.557.557,0,0,0-.2-.228.722.722,0,0,0-.306-.126,1.931,1.931,0,0,0-.385,0H9.457v3.006h1.436A1.624,1.624,0,0,0,11.286,37.434Zm-1.193-2.449h.793l.149.055a.212.212,0,0,1,.1.283.3.3,0,0,1-.11.267.44.44,0,0,1-.29.086h-.675Zm0,1.986v-.824h.722a.565.565,0,0,1,.345.094.408.408,0,0,1,.133.337.447.447,0,0,1-.039.188.267.267,0,0,1-.11.118.479.479,0,0,1-.157.071h-.181ZM7.974,35.66l-.706-1.185H6.522l1.107,1.836v1.169h.659V36.327l.981-1.617v-.235h-.6ZM21.9,34.475l-.706,2.119h0l-.667-2.119H17.729l-.33.557h1.185v2.449h.659V35.032h.785l.785,2.449h.746l1-3.006Zm-5.172,0-.706,1.185-.7-1.185h-.746L15.7,36.311v1.169h.659V36.327l1.114-1.852ZM5.266,36.829H6.388l.228.667h.691l-1.13-3.022H5.494l-.918,2.456H3.139V34.475H2.5v3.006H5.031Zm.565-1.57h0l.377,1.107H5.423Zm8.688-.385a1.358,1.358,0,0,0-.463-.337,1.7,1.7,0,0,0-1.24,0,1.389,1.389,0,0,0-.471.337,1.632,1.632,0,0,0-.29.51,1.978,1.978,0,0,0-.1.62,1.923,1.923,0,0,0,.1.612,1.507,1.507,0,0,0,.29.5,1.279,1.279,0,0,0,.471.33,1.7,1.7,0,0,0,1.24,0,1.248,1.248,0,0,0,.463-.33,1.389,1.389,0,0,0,.29-.5,1.727,1.727,0,0,0,.1-.612,1.774,1.774,0,0,0-.1-.62,1.491,1.491,0,0,0-.29-.51Zm-.314,1.5a.785.785,0,0,1-.141.322.722.722,0,0,1-.251.235.785.785,0,0,1-.377.086.84.84,0,0,1-.385-.086A.785.785,0,0,1,12.8,36.7a1.083,1.083,0,0,1-.141-.322,1.9,1.9,0,0,1-.039-.369,2.064,2.064,0,0,1,.039-.385,1.232,1.232,0,0,1,.141-.33.719.719,0,0,1,.636-.314.714.714,0,0,1,.628.314.879.879,0,0,1,.141.33,1.57,1.57,0,0,1,.047.385,1.444,1.444,0,0,1-.047.353ZM.659,36.445h.7a1.115,1.115,0,0,0,.479-.086.808.808,0,0,0,.5-.526,1.044,1.044,0,0,0,0-.714.785.785,0,0,0-.181-.306.9.9,0,0,0-.322-.22,1.248,1.248,0,0,0-.479-.078H0V37.52H.659Zm0-1.421h.518a1,1,0,0,1,.22,0,.408.408,0,0,1,.181.063.361.361,0,0,1,.133.133.526.526,0,0,1,.047.235.471.471,0,0,1-.047.228.33.33,0,0,1-.133.141.408.408,0,0,1-.181.063,1,1,0,0,1-.22,0H.659Z" transform="translate(355 1323.593)"/><path class="b" d="M15.64,19.426a1.536,1.536,0,0,0-1.9,1.821,1.648,1.648,0,0,0,1.185,1.177,1.54,1.54,0,0,0,1.648-2.307A1.742,1.742,0,0,0,15.64,19.426Z" transform="translate(352.051 1326.83)"/><path class="b" d="M7.063,21.573c-.73-2.276.6-4.426,2.26-5.98,2.025-1.907,4.662-2.519,7.526-2.661l.039-.047c-2.582-1.059-5.274-1.789-7.487-3.8A21.975,21.975,0,0,1,5.015,3.773,7.44,7.44,0,0,1,4.089,1.78H0V25.591H12.557C10.485,25.026,8.076,23.692,7.063,21.573Z" transform="translate(355 1330.617)"/><path class="b" d="M22.443,12.689c.118,0,.11-.11.133-.181a24.055,24.055,0,0,1,.361-5.14,13.138,13.138,0,0,1,2.19-5.588H13.41c1.185,1,1.57,1.57,2.684,2.613A96.472,96.472,0,0,1,22.443,12.689Z" transform="translate(352.114 1330.617)"/></g><g transform="translate(3)"><path class="b" d="M139.813,22.7a4.575,4.575,0,0,0-.926-1.421,6.153,6.153,0,0,0-2.951-1.515A8.123,8.123,0,0,1,133,18.742a1.216,1.216,0,0,1-.471-1.012,1.154,1.154,0,0,1,.542-.989,3.3,3.3,0,0,1,3.139-.071,5.894,5.894,0,0,1,1.64,1.012l1.507-3.288a9.567,9.567,0,0,0-2.441-1.13c-2.354-.675-5.25-.565-7.173,1.154-2.1,1.876-2.417,5.784.141,7.424a10.43,10.43,0,0,0,2.888,1.185c1.122.267,3.139.785,2.755,2.174-.4,1.5-2.857,1.075-4.175.589a8.044,8.044,0,0,1-2.723-1.711,6.537,6.537,0,0,1-1.35,3.806,10.2,10.2,0,0,0,4.332,2.284c3.406.84,5.753-.337,6.781-1.326a5.494,5.494,0,0,0,1.8-4.238,4.921,4.921,0,0,0-.377-1.907" transform="translate(327.611 1328.229)"/><path class="b" d="M98.538,22l-10.1-8.225L88.43,30.3H92.8V22.394l10.375,7.825V13.69H98.538Z" transform="translate(335.971 1328.054)"/><path class="b" d="M123.2,23.873V13.67h-4.442v9.9c0,1.884-.879,2.959-2.763,2.959s-2.763-1.075-2.763-2.959V13.686H108.79v10.2c0,4.473,3.053,6.671,7.2,6.671a7.183,7.183,0,0,0,6-2.558c.055-.086.29-.471.589-1a7.385,7.385,0,0,0,.62-3.139" transform="translate(331.589 1328.058)"/><path class="b" d="M125.61,31.627a5.211,5.211,0,0,0,.589-1c-.3.534-.534.918-.589,1" transform="translate(327.97 1324.409)"/><path class="b" d="M76.211,26.647V23.822H83.4V20.094H76.211V17.418l7.275.008V13.69H74.155L71.84,18.25V30.3H83.573V26.647Z" transform="translate(339.541 1328.054)"/><path class="b" d="M59.8,18.864,55.957,11.8h-5.3l9.033,16.638L71.662,4.91H66.929Z" transform="translate(344.098 1329.943)"/></g></g></svg>