<svg xmlns="http://www.w3.org/2000/svg" width="173.252" height="29.163" viewBox="0 0 173.252 29.163"><defs><style>.a{fill:#fff;}</style></defs><g transform="translate(-328 -1459)"><g transform="translate(94 28)"><line class="a" y2="29.163" transform="translate(262.289 1431)"/><path class="a" d="M10.437,22.222a1.131,1.131,0,0,0,.308-.141.745.745,0,0,0,.231-.257.784.784,0,0,0,.077-.373.745.745,0,0,0-.129-.45.617.617,0,0,0-.386-.257.745.745,0,0,0,.283-.231.591.591,0,0,0,.1-.347.861.861,0,0,0-.064-.334.566.566,0,0,0-.18-.206,1.093,1.093,0,0,0-.283-.116,1.658,1.658,0,0,0-.373,0H8.74v2.776h1.285A1.748,1.748,0,0,0,10.437,22.222ZM9.331,19.96h.861a.244.244,0,0,1,.09.206.347.347,0,0,1,0,.167.283.283,0,0,1-.1.257.424.424,0,0,1-.27.077H9.331Zm0,1.838v-.771H10a.5.5,0,0,1,.321.09.386.386,0,0,1,.116.308.373.373,0,0,1,0,.18.135.135,0,0,1-.09.116h-.321ZM7.365,20.577l-.643-1.093H6.028l1.028,1.7v1.08h.656V21.194L8.624,19.7v-.219h-.6Zm12.853-1.093-.6,1.967h0L19,19.5H16.426l-.3.514h1.093v2.262h.6V20h.733l.72,2.262h.694l.925-2.776Zm-4.781,0-.656,1.093-.643-1.093h-.694l1.028,1.7v1.08h.6V21.194l1.041-1.709ZM4.871,21.644H5.912l.206.617h.63L5.72,19.484H5.141L4.28,21.759H2.995V19.484H2.3v2.776H4.653Zm.514-1.478h0l.347,1.028H5.026Zm8.046-.321a1.285,1.285,0,0,0-.437-.308,1.362,1.362,0,0,0-.578-.116,1.285,1.285,0,0,0-.566.116,1.08,1.08,0,0,0-.437.308,1.375,1.375,0,0,0-.27.463,1.709,1.709,0,0,0-.09.578,1.581,1.581,0,0,0,.09.566,1.375,1.375,0,0,0,.27.463,1.286,1.286,0,0,0,1,.411,1.362,1.362,0,0,0,.578-.1,1.491,1.491,0,0,0,.437-.308,1.17,1.17,0,0,0,.257-.463,1.581,1.581,0,0,0,.1-.566,1.71,1.71,0,0,0-.1-.578,1.17,1.17,0,0,0-.257-.463Zm-.3,1.388a.861.861,0,0,1-.129.3.707.707,0,0,1-.231.206.655.655,0,0,1-.36.09.643.643,0,0,1-.347-.09.707.707,0,0,1-.231-.206.861.861,0,0,1-.129-.3,1.62,1.62,0,0,1,0-.347,1.5,1.5,0,0,1,0-.347.823.823,0,0,1,.129-.308.746.746,0,0,1,.231-.218.771.771,0,0,1,.347-.077.784.784,0,0,1,.36.077.745.745,0,0,1,.231.219.823.823,0,0,1,.129.308,1.517,1.517,0,0,1,0,.347,1.594,1.594,0,0,1,0,.347Zm-12.519,0h.668a1.105,1.105,0,0,0,.437-.077.72.72,0,0,0,.3-.206.643.643,0,0,0,.167-.283.964.964,0,0,0,.064-.334.951.951,0,0,0-.064-.321.681.681,0,0,0-.167-.3.848.848,0,0,0-.3-.193,1.105,1.105,0,0,0-.437-.039H0v2.776H.617Zm0-1.285h.848a.283.283,0,0,1,.116.129.488.488,0,0,1,0,.206.514.514,0,0,1,0,.219.283.283,0,0,1-.116.129l-.18.154H.617Z" transform="translate(234 1436.54)"/><path class="a" d="M9.528,11.011a1.427,1.427,0,0,0-1.761,1.671,1.491,1.491,0,0,0,1.105,1.093,1.427,1.427,0,0,0,1.517-.643,1.478,1.478,0,0,0,0-1.491,1.594,1.594,0,0,0-.861-.63Z" transform="translate(236.207 1434.128)"/><path class="a" d="M6.516,19.29c-.668-2.108.553-4.087,2.1-5.527a10.5,10.5,0,0,1,6.953-2.481h0c-2.339-1-4.833-1.671-6.876-3.535a19.909,19.909,0,0,1-4.049-4.9A6.761,6.761,0,0,1,3.779,1H0V23.03H11.658A7.982,7.982,0,0,1,6.516,19.29Z" transform="translate(234 1431.285)"/><path class="a" d="M15.924,11.09c.1,0,.1-.1.116-.167a23.135,23.135,0,0,1,.334-4.781A12.262,12.262,0,0,1,18.405,1H7.57c1.093.938,1.452,1.452,2.481,2.429a88.494,88.494,0,0,1,5.874,7.66Z" transform="translate(236.16 1431.285)"/></g><g transform="translate(98.914 28)"><path class="a" d="M71.651,15.459a3.65,3.65,0,0,0-.694-1.028,4.64,4.64,0,0,0-2.249-1.144,6.542,6.542,0,0,1-2.236-.784.9.9,0,0,1-.347-.771.861.861,0,0,1,.411-.745,2.493,2.493,0,0,1,2.365,0,4.5,4.5,0,0,1,1.285.745L71.33,9.161A7.712,7.712,0,0,0,69.466,8.3a5.861,5.861,0,0,0-5.45.887c-1.607,1.427-1.838,4.4.1,5.655a8.136,8.136,0,0,0,2.2.887c.848.219,2.365.63,2.1,1.658s-2.172.823-3.175.45a6.234,6.234,0,0,1-2.056-1.285,4.936,4.936,0,0,1-1.041,2.9,8.046,8.046,0,0,0,3.29,1.735,5.5,5.5,0,0,0,5.141-1,4.229,4.229,0,0,0,1.362-3.239,3.753,3.753,0,0,0-.283-1.452" transform="translate(251.728 1433.278)"/><path class="a" d="M51.756,14.694,44.07,8.434V21H47.4l-.013-6.015,7.9,5.951V8.37H51.756Z" transform="translate(246.573 1433.388)"/><path class="a" d="M64.5,16.12V8.409h-3.38v7.519c0,1.427-.668,2.249-2.108,2.249s-2.1-.823-2.1-2.249V8.37H53.52v7.712c0,3.406,2.326,5.141,5.488,5.141a5.411,5.411,0,0,0,4.563-1.954s.231-.347.45-.758a5.578,5.578,0,0,0,.476-2.365" transform="translate(249.269 1433.388)"/><path class="a" d="M61.34,17a4.062,4.062,0,0,0,.45-.758c-.218.411-.411.694-.45.758" transform="translate(251.5 1435.633)"/><path class="a" d="M39.679,18.228V16.082h5.475V13.241H39.679V11.211h5.54V8.37H38.124L36.35,11.84V21h8.933V18.228Z" transform="translate(244.371 1433.388)"/><path class="a" d="M33.473,14.907l-2.93-5.373H26.52l6.863,12.66L42.5,4.29H38.885Z" transform="translate(241.566 1432.224)"/></g><g transform="translate(93.621 28)"><path class="a" d="M109.679,20.511,109.345,10l-.129-4.267-11.3.347.1,2.969L81.21,9.6l.411,12.236,16.863-.566.077,1.992,11.182-.463V20.5ZM86.2,10.614h0a4.087,4.087,0,0,1,2.571.733,2.146,2.146,0,0,1,.54.668h0a.958.958,0,0,1,.167.308V12.4a6.843,6.843,0,0,0,.218.835h0v.09h0l-1.105.18h0l-.925.129h0a1.825,1.825,0,0,0-.064-.283.643.643,0,0,0,0-.167,1.542,1.542,0,0,0-.218-.437h0l-.013-.051-.077-.077a2.288,2.288,0,0,0-1.028-.321v-.27h0V10.691Zm0,9.473H86.12v.129h0v.077H85.079a2.9,2.9,0,0,1-1.285-.411h0l-.283-.193h0a2.493,2.493,0,0,1-.643-.63,2.571,2.571,0,0,1-.347-.6.293.293,0,0,0-.09-.244v-.129a3.277,3.277,0,0,1-.206-.437h0a1.285,1.285,0,0,1,0-.334h.283l.18-.077h.463a.064.064,0,0,1,.064,0h.823v.1h0v.09a.785.785,0,0,1,0,.193,1.735,1.735,0,0,0,.244.411l.1.1h0l.154.09a2.442,2.442,0,0,0,.784.283h0v.064h.193a.244.244,0,0,1,.167,0h0v.36h0V19.1h0v.219h0V19.7h0v.231Zm3.856-1.967h0a.72.72,0,0,1,0,.154.347.347,0,0,1-.077.206.464.464,0,0,1,0,.116h0a1.285,1.285,0,0,1-.244.4h0l-.09.1a.231.231,0,0,1-.09.129.128.128,0,0,1-.077.064h0l-.116.1a.617.617,0,0,1-.141.116h0a2.481,2.481,0,0,1-.668.386h0a4.061,4.061,0,0,1-.591.206h0a2.1,2.1,0,0,1-.45.09h0a4.1,4.1,0,0,1-.63,0v-.8h0v-.154h0v-.116h0V18.93h0v-.219H87.5l.129-.1h-.257a1.092,1.092,0,0,0,.527-.72,2.172,2.172,0,0,0,0-.3h0a.759.759,0,0,0,0-.167h0l-.244-.283h0a1.979,1.979,0,0,0-.54-.283h0l-.18-.077-.707-.424h0c-.4,0-.617-.116-.63-.167h-.129a4.087,4.087,0,0,1-2.481-1.041,1.1,1.1,0,0,1-.167-.18,1.8,1.8,0,0,1-.193-.308,2.7,2.7,0,0,1-.283-1.105v-.129a2.57,2.57,0,0,1,.283-1.285.718.718,0,0,1,0-.1,1.671,1.671,0,0,1,.283-.373,3.856,3.856,0,0,1,2.236-1h.591v1.607h0a1.568,1.568,0,0,1-.437.1h-.334l-.206.09h0a1.954,1.954,0,0,0-.283.27.784.784,0,0,0-.09.129h0v.373a.578.578,0,0,0,.167.373,1.092,1.092,0,0,0,.386.231,1.2,1.2,0,0,0,.257.1h0l.321.09h0l.566.09h0v.064l.116-.1h0c.566.1,1.054.219,1.465.334l.3.077.257.09.231.09.193.09.129.1h0a2.2,2.2,0,0,1,.334.27h0l.141.1h0a.154.154,0,0,0,.064,0h0a.206.206,0,0,1,0,.116,2.571,2.571,0,0,1,.63,2.763Zm3.715,1.9H91.621v.064h0V19.5h0v-.617h0V18.7h0v-.411h0V16.167h0v-.758h0v-.334h0V13.789h0V13.4h0v-.347h0v-.09h0v-.283h0v-.154h0V12.4h0v-.9h0v-.488h0v-.167h0v-.257h0v-.141H93.7v.938h0v1.028h0v.09h0v.411h0v.077h0l.064,1.645h0v.437h0v1.35l-.116,2.506a.321.321,0,0,1,0,.1h0v.206h0v.553h0Zm.206-7.9h0v-.27h0V10.781h0v-.244h0V10.4h4.113l.077,1.787H97.4l-1.966.064H94.076Zm.129,3.7h0v-.45h0v-.72h0v-.231h0v-.1h0v-.064h3.817v.077h0v.6h0v.694h0v.244H94.487a.154.154,0,0,1-.141,0H94.14Zm3.265,4.1H94.14v-.077h0v-.27h0v-.514h0v-.925h4.319v.681h0v.116h0v.27h0v.681ZM102.507,7.5l1.08,2.236-.874,2.121h0v.1h0l-.707,1.722L98.934,7.632Zm.527,13.83h0l-3.483.129,5.488-14.1,3.483-.129-2.892,7.288h.039v.129h0v.1h-.077l-2.571,6.426Zm2.571-.09h0l-1.054-2.172.4-1h0v-.077h0l.938-2.326h0l.141-.373h0v-.116l2.93,6.041Z" transform="translate(257.169 1432.635)"/><path class="a" d="M144.217,18.384,143.831,7.87,103.1,9.387l.334,10.514Zm-38.289.231h0l-.116-2.866v-.3h0v-.219h0v-.193h0v-.27h0V14.6h0v-.823h0l-.064-1.452h1.889v.231h0v.167h0v.823h0v.1h0v1.285h0v.077h0V15.4h0v.154h0v.283h0l.1,2.661Zm15.257-4.229V12.9h3.637v.54h0v.591h0v.206h-3.547Zm18.38-.656h-.09V12.626h0V12.24h3.419v1.517h-3.547Zm3.984,1.954h0V16.1h0v.386h0v.1h0v.386h-3.8v-.386h0V16.34h0v-.283h0v.077h0V15.8h3.933Zm-4.177-6.658h3.907v1.427h-.823l-1.7.064h-1.234V9.04Zm-2.249.077h0l1.838-.077h0v.8h0v.913h0v.077h0v.347h0v1.427h0v.386h0v.874h0v.244l.077,1.954h0v.167h0v.514h0v.129h-1.53v-.54h0v-.54h0v-.18h0V15.35h0L137.43,13.6h0v-.064h0v-.656h0V12.7h0V11.585h0v-.257h0v-.3h0v-.09h0v-.45h0v-.116h0V9.605h0V9.117Zm-1.015,5.758h0l.077,2.1h0v.077h0v.219h-1.748V15.325h0V15.17h0v-.129h0v-.27h0v-.077h0V12.973a.449.449,0,0,0,0-.077.462.462,0,0,1,0-.09,4.423,4.423,0,0,1,.257-.54l.206-.373a.963.963,0,0,1,.09-.154l.18-.308h0L136,9.824h0l.09,2.493Zm-3.856-2.185h0v-.1h0a.926.926,0,0,1,.18-.321h0l.154-.283a.244.244,0,0,1,.129-.231l.141-.27h0c.1-.193.206-.36.308-.514h0l.167-.308h0c.116-.244.231-.488.36-.707s.206-.36.308-.527l.1-.167h0l1.774-.064h0a.18.18,0,0,0,0,.077.862.862,0,0,0-.077.154l-.1.167c-.077.167-.193.36-.321.6l-.373.656c-.18.4-.321.6-.411.63h0a.218.218,0,0,1,0,.09h0l-.09.167h0l-.219.424h0v.18l-.09.141-.18.27h0a3.568,3.568,0,0,1-.257.5,1.4,1.4,0,0,1-.1.193l-.129.231-.244.4c0,.09-.09.167-.129.244s-.09.167-.129.244l-.668,1.285c0,.116-.129.219-.18.334s-.231.4-.321.566v.116a.719.719,0,0,1-.064.1h0l-.116-3.02ZM126.235,9.5l1.774-.064c.09.1.154.206.244.321l.116.167.219.347.347.578h0l.077.129h0a2.828,2.828,0,0,1,.437.591h0l.141.219h0a.244.244,0,0,1,.167.27h0l.154.231h0a.309.309,0,0,1,0,.129h0l.848,1.285.116,3.033h0a.714.714,0,0,0,0-.1l-.077-.116-.077-.129a2.455,2.455,0,0,1-.18-.27l-.668-1.015-.257-.411c-.141-.206-.283-.437-.437-.681a10.14,10.14,0,0,1-.823-1.285h0a2.731,2.731,0,0,1-.167-.257h0a.4.4,0,0,1,0-.1h0l-.129-.219h0l-.1-.154-.154-.257h0l-.116-.18h0v-.1h0l-.09-.1a4.5,4.5,0,0,1-.257-.424c-.476-.694-.784-1.17-.938-1.427l-.064-.116a.205.205,0,0,0,0-.077Zm0,.578,1.157,1.684h0l.193.321h0l.1.1h0v.1h0a.4.4,0,0,1,.077.167l.167.257a.18.18,0,0,1,.1.129v.064h0v.27h0v.077h0v.219h0l.09,2.4h0l.09,1.774h-.077l-1.517.064h-.3l-.09-2.995v-1.53h0v-.334h0v-.27h0v-.141h0v-.3h0l-.077-2.082Zm-1,6.259h0v.424h0v.386h0v.077h0v.463h-3.882v.244h0v-.386h0v-.231h0v-.283h0v-.18h0v-.321h3.535Zm-4.164-6.619h3.766v1.491h-3.727V9.734Zm-2.224,0h1.838v.81h0v.925h0v.09h0v.36h0V12h0V13.41h0V13.8h0v.694h0v.45l.077,1.967v.463h0v.553h-1.838v-.488h0v-.527h0v-.154h0v-.167h0V14.836h0v-.643h0v-.116h0V12.921h0V12.7h0v-.681h0v-.129h0v-.424h0v-.09h0v-.116a.244.244,0,0,1,0-.09v-.566h0V9.8Zm-5.784.219h0l1.607-.064c1.2,0,1.8.167,1.8.45h.154a2.711,2.711,0,0,1,.3.244,1.593,1.593,0,0,1,.231.27l.154.27.116.308a3.138,3.138,0,0,1,.077.4s0,.09,0,.141V12.1a2.93,2.93,0,0,1,0,.694h0a1.08,1.08,0,0,1,0,.257h0a1.774,1.774,0,0,1-.81.925h0a.231.231,0,0,1-.09.064h-.09a.745.745,0,0,1,.514.231h0a1.634,1.634,0,0,1,.18.219.527.527,0,0,1,.09.141,1.515,1.515,0,0,1,.141.244h0v.077h0a1.774,1.774,0,0,1,.154.617h0v.3h0l.206.925h0v.129h0a.759.759,0,0,1,.1.244.308.308,0,0,1,0,.1h0v.09h0a2.644,2.644,0,0,1,.141.231h0v.064h-1.9a2.776,2.776,0,0,1-.308-.63v-.09a1.439,1.439,0,0,1-.154-.488l-.129-.54a1.038,1.038,0,0,0-.1-.527.321.321,0,0,1,0-.09,1.041,1.041,0,0,0-.219-.308l-.077-.064h0a1.555,1.555,0,0,0-.5-.18h-1.337v-.553h0v-.745h.745a3.856,3.856,0,0,0,.733-.09.54.54,0,0,0,.154,0,1.08,1.08,0,0,0,.244-.09h0a.848.848,0,0,0,.527-.861V12.06a.733.733,0,0,0,0-.18.18.18,0,0,0,0-.077l-.077-.154-.09-.116a.835.835,0,0,0-.6-.206h0a2.352,2.352,0,0,0-.733,0h-.925V9.875Zm-2.211.09h1.761l.129,3.367v.1h0v.09h0v.977h0l.141,3.625h-1.774L110.8,9.926Zm-7.455.27h6.041v.244h0v.3h0v.733h0v.09h0v.257h-3.342L104.257,12h-.6v-.1h0v-.129h0V10.479h0Z" transform="translate(263.414 1433.245)"/></g></g></svg>