<svg xmlns="http://www.w3.org/2000/svg" width="23.762" height="24" viewBox="0 0 23.762 24"><defs><style>.a{fill:#dd0d23;}</style></defs><path class="a" d="M16.822,10.38a6.441,6.441,0,1,0,6.431,6.441,6.441,6.441,0,0,0-6.431-6.441Zm0,1.983a4.448,4.448,0,0,1,2.36.692l-6.127,6.127a4.438,4.438,0,0,1,3.766-6.819Zm0,8.907a4.385,4.385,0,0,1-2.371-.692l6.127-6.127a4.385,4.385,0,0,1,.692,2.371,4.448,4.448,0,0,1-4.448,4.448Z" transform="translate(0.509 0.737)"/><path class="a" d="M13.673,4.962a4.952,4.952,0,1,0-9.893,0v4.49a.74.74,0,0,0,1.479,0V4.962a3.472,3.472,0,0,1,6.934,0v4.49a.713.713,0,0,0,.126.388l1.353-.535Z" transform="translate(0.185 0.217)"/><path class="a" d="M8.907,16.914a8.456,8.456,0,0,0,1.269,4.438H8.907a39.309,39.309,0,0,1-6.746-.608A2.665,2.665,0,0,1,0,18.152V11.711a2.665,2.665,0,0,1,2.151-2.6A39.6,39.6,0,0,1,8.886,8.49h.839a37.011,37.011,0,0,1,4.962.451,8.393,8.393,0,0,0-5.78,7.973Z" transform="translate(0 0.645)"/></svg>