<svg xmlns="http://www.w3.org/2000/svg" width="176.824" height="57.697" viewBox="0 0 176.824 57.697"><defs><style>.a{fill:#b51e23;}.b{fill:#b1afaf;}.c{fill:#fff;font-size:10px;font-family:AkzidenzGrotesk-Black;font-weight:800;}</style></defs><g transform="translate(0 0)"><g transform="translate(0 22.662)"><path class="a" d="M20.758,26.02v12.8H7.371V26.02H0V59.028H7.371V44.769H20.758V59.028H27.9V26.02Z" transform="translate(0 -24.447)"/><path class="b" d="M136.879,24.41c4.462,0,16.229,1.895,16.229,17.5S141.341,59.4,136.879,59.4,120.65,57.5,120.65,41.909s11.757-17.5,16.229-17.5m0,29.1c3.79,0,9.171-2.312,9.171-11.606s-5.362-11.615-9.171-11.615-9.171,2.312-9.171,11.615,5.362,11.606,9.171,11.606" transform="translate(-6.345 -24.363)"/><path class="b" d="M116.992,40.125H101.748V46.2h7.769c-1.383,5.684-5.561,7.276-8.7,7.276-3.79,0-9.161-2.312-9.161-11.615s5.362-11.606,9.161-11.606c3.155,0,7.361,1.573,8.726,7.371h7.172c-1.895-11.71-11.862-13.264-15.9-13.264-4.462,0-16.22,1.895-16.22,17.489S96.348,59.4,100.82,59.4s16.229-1.895,16.229-17.5c0-.606,0-1.175-.057-1.743" transform="translate(-4.449 -24.36)"/><path class="a" d="M59.22,25.79v.777a13.34,13.34,0,0,1,5.211,5.315h3.79V58.807h7.153V31.882h8.754V25.79Z" transform="translate(-3.115 -24.435)"/><path class="a" d="M47.349,24.41c4.462,0,16.22,1.895,16.22,17.5S51.849,59.4,47.349,59.4,31.12,57.5,31.12,41.909s11.757-17.5,16.229-17.5m0,29.1c3.79,0,9.171-2.312,9.171-11.606s-5.372-11.615-9.171-11.615-9.171,2.312-9.171,11.615,5.353,11.606,9.171,11.606" transform="translate(-1.637 -24.363)"/><path class="b" d="M158.1,26a21.08,21.08,0,0,1,7.049,15.651c0,10.033-7.125,17.053-7.125,17.053l27.115-16.722Z" transform="translate(-8.311 -24.446)"/></g><text class="c" transform="translate(0.654 8)"><tspan x="0" y="0">Con acceso a</tspan></text></g></svg>