<svg xmlns="http://www.w3.org/2000/svg" width="37.146" height="47.353" viewBox="0 0 37.146 47.353"><defs><style>.a{fill:#fff;}</style></defs><g transform="translate(-355 -1332.397)"><path class="a" d="M18.58,39.381a1.744,1.744,0,0,0,.569-.258,1.2,1.2,0,0,0,.388-.452,1.525,1.525,0,0,0-.078-1.434,1.214,1.214,0,0,0-.685-.465,1.292,1.292,0,0,0,.5-.413,1.059,1.059,0,0,0,.168-.62,1.292,1.292,0,0,0-.065-.568.917.917,0,0,0-.323-.375,1.189,1.189,0,0,0-.5-.207,3.179,3.179,0,0,0-.633,0H15.569v4.949h2.364A2.674,2.674,0,0,0,18.58,39.381ZM16.616,35.35h1.3l.245.09a.35.35,0,0,1,.168.465.491.491,0,0,1-.181.439.724.724,0,0,1-.478.142H16.564Zm0,3.269V37.262H17.8a.93.93,0,0,1,.569.155.672.672,0,0,1,.22.556.736.736,0,0,1-.065.31.439.439,0,0,1-.181.194.788.788,0,0,1-.258.116h-.3Zm-3.489-2.158L11.964,34.51H10.737l1.822,3.023v1.925h1.085v-1.9L15.259,34.9V34.51h-.982ZM36.048,34.51,34.885,38h0l-1.1-3.489h-4.6l-.543.917H30.6v4.031h1.085V35.428h1.292l1.292,4.031h1.227l1.654-4.949Zm-8.515,0-1.163,1.951-1.15-1.951H23.993l1.848,3.023v1.925h1.085v-1.9l1.835-3.049ZM8.67,38.386h1.848l.375,1.1h1.137L10.168,34.51H9.044L7.533,38.554H5.168V34.51H4.109v4.949H8.282ZM9.6,35.8h0l.62,1.822H8.928Zm14.3-.633a2.235,2.235,0,0,0-.762-.556,2.791,2.791,0,0,0-2.041,0,2.287,2.287,0,0,0-.775.556,2.687,2.687,0,0,0-.478.84,3.256,3.256,0,0,0-.168,1.021,3.166,3.166,0,0,0,.168,1.008,2.481,2.481,0,0,0,.478.827,2.106,2.106,0,0,0,.775.543,2.791,2.791,0,0,0,2.041,0,2.054,2.054,0,0,0,.762-.543,2.287,2.287,0,0,0,.478-.827,2.843,2.843,0,0,0,.168-1.008,2.92,2.92,0,0,0-.168-1.021,2.455,2.455,0,0,0-.478-.84Zm-.517,2.468a1.292,1.292,0,0,1-.233.53,1.189,1.189,0,0,1-.413.388,1.292,1.292,0,0,1-.62.142,1.382,1.382,0,0,1-.633-.142,1.292,1.292,0,0,1-.413-.388,1.783,1.783,0,0,1-.233-.53,3.127,3.127,0,0,1-.065-.607,3.4,3.4,0,0,1,.065-.633,2.028,2.028,0,0,1,.233-.543,1.184,1.184,0,0,1,1.047-.517,1.176,1.176,0,0,1,1.034.517,1.447,1.447,0,0,1,.233.543,2.584,2.584,0,0,1,.078.633,2.377,2.377,0,0,1-.078.581Zm-22.3.116h1.15a1.835,1.835,0,0,0,.788-.142,1.331,1.331,0,0,0,.827-.866,1.718,1.718,0,0,0,0-1.176,1.292,1.292,0,0,0-.3-.5,1.473,1.473,0,0,0-.53-.362,2.055,2.055,0,0,0-.788-.129H0v4.949H1.085Zm0-2.339h.853a1.642,1.642,0,0,1,.362,0,.672.672,0,0,1,.3.1.594.594,0,0,1,.22.22.866.866,0,0,1,.078.388.775.775,0,0,1-.078.375.543.543,0,0,1-.22.233.672.672,0,0,1-.3.1,1.642,1.642,0,0,1-.362,0H1.085Z" transform="translate(355 1340.15)"/><path class="a" d="M16.889,19.459a2.529,2.529,0,0,0-3.127,3,2.713,2.713,0,0,0,1.951,1.938,2.535,2.535,0,0,0,2.713-3.8A2.868,2.868,0,0,0,16.889,19.459Z" transform="translate(359.003 1335.756)"/><path class="a" d="M11.628,34.366c-1.2-3.747.982-7.287,3.721-9.845,3.333-3.14,7.675-4.147,12.391-4.38l.065-.078c-4.251-1.744-8.683-2.946-12.326-6.254A36.177,36.177,0,0,1,8.256,5.062,12.249,12.249,0,0,1,6.732,1.78H0v39.2H20.673C17.262,40.051,13.3,37.854,11.628,34.366Z" transform="translate(355 1330.617)"/><path class="a" d="M28.282,19.74c.194,0,.181-.181.22-.3a39.6,39.6,0,0,1,.594-8.463,21.629,21.629,0,0,1,3.6-9.2H13.41c1.951,1.654,2.584,2.584,4.419,4.3C21.925,10.488,24.78,15.088,28.282,19.74Z" transform="translate(358.916 1330.617)"/></g></svg>