<svg xmlns="http://www.w3.org/2000/svg" xmlns:xlink="http://www.w3.org/1999/xlink" width="353.855" height="29.163" viewBox="0 0 353.855 29.163"><defs><style>.a{fill:none;}.b,.e{fill:#fff;}.c{clip-path:url(#a);}.d{clip-path:url(#c);}.e{fill-rule:evenodd;}</style><clipPath id="a"><rect class="a" width="75.46" height="17.634"/></clipPath><clipPath id="c"><rect class="a" width="76.797" height="8.701"/></clipPath></defs><line class="b" y2="29.163" transform="translate(28.289)"/><line class="b" y2="29.163" transform="translate(97.027)"/><line class="b" y2="29.163" transform="translate(181.111)"/><line class="b" y2="29.163" transform="translate(269.656)"/><path class="b" d="M10.437,22.222a1.131,1.131,0,0,0,.308-.141.745.745,0,0,0,.231-.257.784.784,0,0,0,.077-.373.745.745,0,0,0-.129-.45.617.617,0,0,0-.386-.257.745.745,0,0,0,.283-.231.591.591,0,0,0,.1-.347.861.861,0,0,0-.064-.334.566.566,0,0,0-.18-.206,1.093,1.093,0,0,0-.283-.116,1.658,1.658,0,0,0-.373,0H8.74v2.776h1.285A1.748,1.748,0,0,0,10.437,22.222ZM9.331,19.96h.861a.244.244,0,0,1,.09.206.347.347,0,0,1,0,.167.283.283,0,0,1-.1.257.424.424,0,0,1-.27.077H9.331Zm0,1.838v-.771H10a.5.5,0,0,1,.321.09.386.386,0,0,1,.116.308.373.373,0,0,1,0,.18.135.135,0,0,1-.09.116h-.321ZM7.365,20.577l-.643-1.093H6.028l1.028,1.7v1.08h.656V21.194L8.624,19.7v-.219h-.6Zm12.853-1.093-.6,1.967h0L19,19.5H16.426l-.3.514h1.093v2.262h.6V20h.733l.72,2.262h.694l.925-2.776Zm-4.781,0-.656,1.093-.643-1.093h-.694l1.028,1.7v1.08h.6V21.194l1.041-1.709ZM4.871,21.644H5.912l.206.617h.63L5.72,19.484H5.141L4.28,21.759H2.995V19.484H2.3v2.776H4.653Zm.514-1.478h0l.347,1.028H5.026Zm8.046-.321a1.285,1.285,0,0,0-.437-.308,1.362,1.362,0,0,0-.578-.116,1.285,1.285,0,0,0-.566.116,1.08,1.08,0,0,0-.437.308,1.375,1.375,0,0,0-.27.463,1.709,1.709,0,0,0-.09.578,1.581,1.581,0,0,0,.09.566,1.375,1.375,0,0,0,.27.463,1.286,1.286,0,0,0,1,.411,1.362,1.362,0,0,0,.578-.1,1.491,1.491,0,0,0,.437-.308,1.17,1.17,0,0,0,.257-.463,1.581,1.581,0,0,0,.1-.566,1.71,1.71,0,0,0-.1-.578,1.17,1.17,0,0,0-.257-.463Zm-.3,1.388a.861.861,0,0,1-.129.3.707.707,0,0,1-.231.206.655.655,0,0,1-.36.09.643.643,0,0,1-.347-.09.707.707,0,0,1-.231-.206.861.861,0,0,1-.129-.3,1.62,1.62,0,0,1,0-.347,1.5,1.5,0,0,1,0-.347.823.823,0,0,1,.129-.308.746.746,0,0,1,.231-.218.771.771,0,0,1,.347-.077.784.784,0,0,1,.36.077.745.745,0,0,1,.231.219.823.823,0,0,1,.129.308,1.517,1.517,0,0,1,0,.347,1.594,1.594,0,0,1,0,.347Zm-12.519,0h.668a1.105,1.105,0,0,0,.437-.077.72.72,0,0,0,.3-.206.643.643,0,0,0,.167-.283.964.964,0,0,0,.064-.334.951.951,0,0,0-.064-.321.681.681,0,0,0-.167-.3.848.848,0,0,0-.3-.193,1.105,1.105,0,0,0-.437-.039H0v2.776H.617Zm0-1.285h.848a.283.283,0,0,1,.116.129.488.488,0,0,1,0,.206.514.514,0,0,1,0,.219.283.283,0,0,1-.116.129l-.18.154H.617Z" transform="translate(0 5.54)"/><path class="b" d="M9.528,11.011a1.427,1.427,0,0,0-1.761,1.671,1.491,1.491,0,0,0,1.105,1.093,1.427,1.427,0,0,0,1.517-.643,1.478,1.478,0,0,0,0-1.491,1.594,1.594,0,0,0-.861-.63Z" transform="translate(2.207 3.128)"/><path class="b" d="M6.516,19.29c-.668-2.108.553-4.087,2.1-5.527a10.5,10.5,0,0,1,6.953-2.481h0c-2.339-1-4.833-1.671-6.876-3.535a19.909,19.909,0,0,1-4.049-4.9A6.761,6.761,0,0,1,3.779,1H0V23.03H11.658A7.982,7.982,0,0,1,6.516,19.29Z" transform="translate(0 0.285)"/><path class="b" d="M15.924,11.09c.1,0,.1-.1.116-.167a23.135,23.135,0,0,1,.334-4.781A12.262,12.262,0,0,1,18.405,1H7.57c1.093.938,1.452,1.452,2.481,2.429a88.494,88.494,0,0,1,5.874,7.66Z" transform="translate(2.16 0.285)"/><path class="b" d="M71.651,15.459a3.65,3.65,0,0,0-.694-1.028,4.64,4.64,0,0,0-2.249-1.144,6.542,6.542,0,0,1-2.236-.784.9.9,0,0,1-.347-.771.861.861,0,0,1,.411-.745,2.493,2.493,0,0,1,2.365,0,4.5,4.5,0,0,1,1.285.745L71.33,9.161A7.712,7.712,0,0,0,69.466,8.3a5.861,5.861,0,0,0-5.45.887c-1.607,1.427-1.838,4.4.1,5.655a8.136,8.136,0,0,0,2.2.887c.848.219,2.365.63,2.1,1.658s-2.172.823-3.175.45a6.234,6.234,0,0,1-2.056-1.285,4.936,4.936,0,0,1-1.041,2.9,8.046,8.046,0,0,0,3.29,1.735,5.5,5.5,0,0,0,5.141-1,4.229,4.229,0,0,0,1.362-3.239,3.753,3.753,0,0,0-.283-1.452" transform="translate(17.728 2.278)"/><path class="b" d="M51.756,14.694,44.07,8.434V21H47.4l-.013-6.015,7.9,5.951V8.37H51.756Z" transform="translate(12.573 2.388)"/><path class="b" d="M64.5,16.12V8.409h-3.38v7.519c0,1.427-.668,2.249-2.108,2.249s-2.1-.823-2.1-2.249V8.37H53.52v7.712c0,3.406,2.326,5.141,5.488,5.141a5.411,5.411,0,0,0,4.563-1.954s.231-.347.45-.758a5.578,5.578,0,0,0,.476-2.365" transform="translate(15.269 2.388)"/><path class="b" d="M61.34,17a4.062,4.062,0,0,0,.45-.758c-.218.411-.411.694-.45.758" transform="translate(17.5 4.633)"/><path class="b" d="M39.679,18.228V16.082h5.475V13.241H39.679V11.211h5.54V8.37H38.124L36.35,11.84V21h8.933V18.228Z" transform="translate(10.371 2.388)"/><path class="b" d="M33.473,14.907l-2.93-5.373H26.52l6.863,12.66L42.5,4.29H38.885Z" transform="translate(7.566 1.224)"/><path class="b" d="M109.679,20.511,109.345,10l-.129-4.267-11.3.347.1,2.969L81.21,9.6l.411,12.236,16.863-.566.077,1.992,11.182-.463V20.5ZM86.2,10.614h0a4.087,4.087,0,0,1,2.571.733,2.146,2.146,0,0,1,.54.668h0a.958.958,0,0,1,.167.308V12.4a6.843,6.843,0,0,0,.218.835h0v.09h0l-1.105.18h0l-.925.129h0a1.825,1.825,0,0,0-.064-.283.643.643,0,0,0,0-.167,1.542,1.542,0,0,0-.218-.437h0l-.013-.051-.077-.077a2.288,2.288,0,0,0-1.028-.321v-.27h0V10.691Zm0,9.473H86.12v.129h0v.077H85.079a2.9,2.9,0,0,1-1.285-.411h0l-.283-.193h0a2.493,2.493,0,0,1-.643-.63,2.571,2.571,0,0,1-.347-.6.293.293,0,0,0-.09-.244v-.129a3.277,3.277,0,0,1-.206-.437h0a1.285,1.285,0,0,1,0-.334h.283l.18-.077h.463a.064.064,0,0,1,.064,0h.823v.1h0v.09a.785.785,0,0,1,0,.193,1.735,1.735,0,0,0,.244.411l.1.1h0l.154.09a2.442,2.442,0,0,0,.784.283h0v.064h.193a.244.244,0,0,1,.167,0h0v.36h0V19.1h0v.219h0V19.7h0v.231Zm3.856-1.967h0a.72.72,0,0,1,0,.154.347.347,0,0,1-.077.206.464.464,0,0,1,0,.116h0a1.285,1.285,0,0,1-.244.4h0l-.09.1a.231.231,0,0,1-.09.129.128.128,0,0,1-.077.064h0l-.116.1a.617.617,0,0,1-.141.116h0a2.481,2.481,0,0,1-.668.386h0a4.061,4.061,0,0,1-.591.206h0a2.1,2.1,0,0,1-.45.09h0a4.1,4.1,0,0,1-.63,0v-.8h0v-.154h0v-.116h0V18.93h0v-.219H87.5l.129-.1h-.257a1.092,1.092,0,0,0,.527-.72,2.172,2.172,0,0,0,0-.3h0a.759.759,0,0,0,0-.167h0l-.244-.283h0a1.979,1.979,0,0,0-.54-.283h0l-.18-.077-.707-.424h0c-.4,0-.617-.116-.63-.167h-.129a4.087,4.087,0,0,1-2.481-1.041,1.1,1.1,0,0,1-.167-.18,1.8,1.8,0,0,1-.193-.308,2.7,2.7,0,0,1-.283-1.105v-.129a2.57,2.57,0,0,1,.283-1.285.718.718,0,0,1,0-.1,1.671,1.671,0,0,1,.283-.373,3.856,3.856,0,0,1,2.236-1h.591v1.607h0a1.568,1.568,0,0,1-.437.1h-.334l-.206.09h0a1.954,1.954,0,0,0-.283.27.784.784,0,0,0-.09.129h0v.373a.578.578,0,0,0,.167.373,1.092,1.092,0,0,0,.386.231,1.2,1.2,0,0,0,.257.1h0l.321.09h0l.566.09h0v.064l.116-.1h0c.566.1,1.054.219,1.465.334l.3.077.257.09.231.09.193.09.129.1h0a2.2,2.2,0,0,1,.334.27h0l.141.1h0a.154.154,0,0,0,.064,0h0a.206.206,0,0,1,0,.116,2.571,2.571,0,0,1,.63,2.763Zm3.715,1.9H91.621v.064h0V19.5h0v-.617h0V18.7h0v-.411h0V16.167h0v-.758h0v-.334h0V13.789h0V13.4h0v-.347h0v-.09h0v-.283h0v-.154h0V12.4h0v-.9h0v-.488h0v-.167h0v-.257h0v-.141H93.7v.938h0v1.028h0v.09h0v.411h0v.077h0l.064,1.645h0v.437h0v1.35l-.116,2.506a.321.321,0,0,1,0,.1h0v.206h0v.553h0Zm.206-7.9h0v-.27h0V10.781h0v-.244h0V10.4h4.113l.077,1.787H97.4l-1.966.064H94.076Zm.129,3.7h0v-.45h0v-.72h0v-.231h0v-.1h0v-.064h3.817v.077h0v.6h0v.694h0v.244H94.487a.154.154,0,0,1-.141,0H94.14Zm3.265,4.1H94.14v-.077h0v-.27h0v-.514h0v-.925h4.319v.681h0v.116h0v.27h0v.681ZM102.507,7.5l1.08,2.236-.874,2.121h0v.1h0l-.707,1.722L98.934,7.632Zm.527,13.83h0l-3.483.129,5.488-14.1,3.483-.129-2.892,7.288h.039v.129h0v.1h-.077l-2.571,6.426Zm2.571-.09h0l-1.054-2.172.4-1h0v-.077h0l.938-2.326h0l.141-.373h0v-.116l2.93,6.041Z" transform="translate(23.169 1.635)"/><path class="b" d="M144.217,18.384,143.831,7.87,103.1,9.387l.334,10.514Zm-38.289.231h0l-.116-2.866v-.3h0v-.219h0v-.193h0v-.27h0V14.6h0v-.823h0l-.064-1.452h1.889v.231h0v.167h0v.823h0v.1h0v1.285h0v.077h0V15.4h0v.154h0v.283h0l.1,2.661Zm15.257-4.229V12.9h3.637v.54h0v.591h0v.206h-3.547Zm18.38-.656h-.09V12.626h0V12.24h3.419v1.517h-3.547Zm3.984,1.954h0V16.1h0v.386h0v.1h0v.386h-3.8v-.386h0V16.34h0v-.283h0v.077h0V15.8h3.933Zm-4.177-6.658h3.907v1.427h-.823l-1.7.064h-1.234V9.04Zm-2.249.077h0l1.838-.077h0v.8h0v.913h0v.077h0v.347h0v1.427h0v.386h0v.874h0v.244l.077,1.954h0v.167h0v.514h0v.129h-1.53v-.54h0v-.54h0v-.18h0V15.35h0L137.43,13.6h0v-.064h0v-.656h0V12.7h0V11.585h0v-.257h0v-.3h0v-.09h0v-.45h0v-.116h0V9.605h0V9.117Zm-1.015,5.758h0l.077,2.1h0v.077h0v.219h-1.748V15.325h0V15.17h0v-.129h0v-.27h0v-.077h0V12.973a.449.449,0,0,0,0-.077.462.462,0,0,1,0-.09,4.423,4.423,0,0,1,.257-.54l.206-.373a.963.963,0,0,1,.09-.154l.18-.308h0L136,9.824h0l.09,2.493Zm-3.856-2.185h0v-.1h0a.926.926,0,0,1,.18-.321h0l.154-.283a.244.244,0,0,1,.129-.231l.141-.27h0c.1-.193.206-.36.308-.514h0l.167-.308h0c.116-.244.231-.488.36-.707s.206-.36.308-.527l.1-.167h0l1.774-.064h0a.18.18,0,0,0,0,.077.862.862,0,0,0-.077.154l-.1.167c-.077.167-.193.36-.321.6l-.373.656c-.18.4-.321.6-.411.63h0a.218.218,0,0,1,0,.09h0l-.09.167h0l-.219.424h0v.18l-.09.141-.18.27h0a3.568,3.568,0,0,1-.257.5,1.4,1.4,0,0,1-.1.193l-.129.231-.244.4c0,.09-.09.167-.129.244s-.09.167-.129.244l-.668,1.285c0,.116-.129.219-.18.334s-.231.4-.321.566v.116a.719.719,0,0,1-.064.1h0l-.116-3.02ZM126.235,9.5l1.774-.064c.09.1.154.206.244.321l.116.167.219.347.347.578h0l.077.129h0a2.828,2.828,0,0,1,.437.591h0l.141.219h0a.244.244,0,0,1,.167.27h0l.154.231h0a.309.309,0,0,1,0,.129h0l.848,1.285.116,3.033h0a.714.714,0,0,0,0-.1l-.077-.116-.077-.129a2.455,2.455,0,0,1-.18-.27l-.668-1.015-.257-.411c-.141-.206-.283-.437-.437-.681a10.14,10.14,0,0,1-.823-1.285h0a2.731,2.731,0,0,1-.167-.257h0a.4.4,0,0,1,0-.1h0l-.129-.219h0l-.1-.154-.154-.257h0l-.116-.18h0v-.1h0l-.09-.1a4.5,4.5,0,0,1-.257-.424c-.476-.694-.784-1.17-.938-1.427l-.064-.116a.205.205,0,0,0,0-.077Zm0,.578,1.157,1.684h0l.193.321h0l.1.1h0v.1h0a.4.4,0,0,1,.077.167l.167.257a.18.18,0,0,1,.1.129v.064h0v.27h0v.077h0v.219h0l.09,2.4h0l.09,1.774h-.077l-1.517.064h-.3l-.09-2.995v-1.53h0v-.334h0v-.27h0v-.141h0v-.3h0l-.077-2.082Zm-1,6.259h0v.424h0v.386h0v.077h0v.463h-3.882v.244h0v-.386h0v-.231h0v-.283h0v-.18h0v-.321h3.535Zm-4.164-6.619h3.766v1.491h-3.727V9.734Zm-2.224,0h1.838v.81h0v.925h0v.09h0v.36h0V12h0V13.41h0V13.8h0v.694h0v.45l.077,1.967v.463h0v.553h-1.838v-.488h0v-.527h0v-.154h0v-.167h0V14.836h0v-.643h0v-.116h0V12.921h0V12.7h0v-.681h0v-.129h0v-.424h0v-.09h0v-.116a.244.244,0,0,1,0-.09v-.566h0V9.8Zm-5.784.219h0l1.607-.064c1.2,0,1.8.167,1.8.45h.154a2.711,2.711,0,0,1,.3.244,1.593,1.593,0,0,1,.231.27l.154.27.116.308a3.138,3.138,0,0,1,.077.4s0,.09,0,.141V12.1a2.93,2.93,0,0,1,0,.694h0a1.08,1.08,0,0,1,0,.257h0a1.774,1.774,0,0,1-.81.925h0a.231.231,0,0,1-.09.064h-.09a.745.745,0,0,1,.514.231h0a1.634,1.634,0,0,1,.18.219.527.527,0,0,1,.09.141,1.515,1.515,0,0,1,.141.244h0v.077h0a1.774,1.774,0,0,1,.154.617h0v.3h0l.206.925h0v.129h0a.759.759,0,0,1,.1.244.308.308,0,0,1,0,.1h0v.09h0a2.644,2.644,0,0,1,.141.231h0v.064h-1.9a2.776,2.776,0,0,1-.308-.63v-.09a1.439,1.439,0,0,1-.154-.488l-.129-.54a1.038,1.038,0,0,0-.1-.527.321.321,0,0,1,0-.09,1.041,1.041,0,0,0-.219-.308l-.077-.064h0a1.555,1.555,0,0,0-.5-.18h-1.337v-.553h0v-.745h.745a3.856,3.856,0,0,0,.733-.09.54.54,0,0,0,.154,0,1.08,1.08,0,0,0,.244-.09h0a.848.848,0,0,0,.527-.861V12.06a.733.733,0,0,0,0-.18.18.18,0,0,0,0-.077l-.077-.154-.09-.116a.835.835,0,0,0-.6-.206h0a2.352,2.352,0,0,0-.733,0h-.925V9.875Zm-2.211.09h1.761l.129,3.367v.1h0v.09h0v.977h0l.141,3.625h-1.774L110.8,9.926Zm-7.455.27h6.041v.244h0v.3h0v.733h0v.09h0v.257h-3.342L104.257,12h-.6v-.1h0v-.129h0V10.479h0Z" transform="translate(29.414 2.245)"/><g transform="translate(187.654 9.897)"><g class="c"><g class="c"><path class="b" d="M206.977,18.994h-8.74V17.105h-.5v1.889H196.09a2.163,2.163,0,1,0,0,.5h1.645v1.889h.5V19.547h8.74Zm-13.02,1.915a1.671,1.671,0,1,1,1.671-1.671,1.671,1.671,0,0,1-1.671,1.671m11.246.167a.437.437,0,1,0,.437.437.437.437,0,0,0-.437-.437m1.774,1.208V19.714h-2.93v2.571h-.321v.373h3.753v-.373Zm-.373-.745h-.347v-.823l-.347.347a.874.874,0,0,1,.116.45.835.835,0,0,1-.848.848.851.851,0,1,1,.424-1.581l.334-.347h-.771v-.347h1.4Z" transform="translate(-132.931 -5.023)"/><path class="b" d="M182.03,7.7c1.285,0,4.691.591,4.691,5.373s-3.355,5.373-4.691,5.373-4.64-.553-4.64-5.334S180.745,7.7,182.03,7.7m0,9c1.131,0,2.571-.707,2.571-3.573s-1.452-3.56-2.571-3.56-2.571.733-2.571,3.6,1.375,3.535,2.571,3.535" transform="translate(-137.044 -7.7)"/><path class="b" d="M193.2,14.458c0,2.686-1.607,3.856-4.152,3.856a4.306,4.306,0,0,1-3.213-1.285,3.663,3.663,0,0,1-.784-2.468V7.89H187.2v6.568A1.787,1.787,0,0,0,189.01,16.5c1.439,0,2.031-.707,2.031-1.941V7.89H193.2Z" transform="translate(-134.86 -7.646)"/><path class="b" d="M193.842,14.931c0,.578.231,1.607,1.915,1.594.99,0,1.941-.231,2.069-1.285s-.72-1.015-1.787-1.285l-1.093-.257c-1.44-.437-2.943-.72-2.943-2.956,0-1.144.694-3.02,3.972-3.02s4.152,1.954,4.01,3.3h-2.031c0-.463-.347-1.478-2.2-1.478-.668,0-1.5.373-1.568,1.028a.874.874,0,0,0,.591,1.041l2.468.6c1.375.347,2.738.951,2.738,2.776,0,3.072-3.188,3.329-4.074,3.316-3.547,0-4.164-1.787-4.1-3.419Z" transform="translate(-132.931 -7.694)"/><path class="b" d="M172.9,18.2H170.73V7.89H172.9v3.972h3.727V7.89h2.146V18.2h-2.159V13.661h-3.7Z" transform="translate(-138.945 -7.646)"/><path class="b" d="M172.009,9.934V7.89H164.22V9.934h2.815v8.252h2.031V9.934Z" transform="translate(-140.802 -7.646)"/><path class="b" d="M165.532,18.185V7.89H163.4v6.054L159.671,7.89H157.64v10.3h2.134V12.131l3.766,6.054Z" transform="translate(-142.679 -7.646)"/><path class="b" d="M158.585,9.689h-4.2v2.146h3.894v1.812h-3.894V16.3h4.254v1.889H152.21V7.89h6.375Z" transform="translate(-144.228 -7.646)"/><path class="b" d="M204.958,9.689h-4.216v2.146h3.907v1.812h-3.907V16.3H205v1.889H198.57V7.89h6.388Z" transform="translate(-131.002 -7.646)"/><path class="b" d="M148.018,18.182H146V7.9h4.614c1.967,0,2.918,1.478,2.892,3.432a2.9,2.9,0,0,1-2.969,3.252h-2.571Zm2.056-5.283c1.285,0,1.285-1.182,1.285-1.684,0-.887-.373-1.414-1.594-1.414h-1.787v3.1Z" transform="translate(-146 -7.643)"/><path class="b" d="M204.354,7.84a.668.668,0,0,1,.668.681.681.681,0,1,1-.681-.681Zm0,.1a.578.578,0,1,0,.553.578.566.566,0,0,0-.553-.578Zm-.116.964H204.1V8.148h.219a.334.334,0,0,1,.231,0,.154.154,0,0,1,.077.154.206.206,0,0,1-.154.18h0c.064,0,.116,0,.129.18a.36.36,0,0,0,0,.18h-.129V8.65a.141.141,0,0,0-.167-.129h-.077Zm0-.411h.077c.1,0,.193,0,.193-.129s0-.141-.193-.141h-.077Z" transform="translate(-129.55 -7.66)"/></g></g></g><g transform="translate(277.059 11.092)"><g class="d"><g class="d"><path class="e" d="M264.234,15.543v1.619h6.658V15.543a2.378,2.378,0,0,1-1.864-1.093l-3.367-5.745H263.18l-.476.835,2.892,5.051c.386.694-.09.964-.643.951h-.72m-6.594,0v1.619h5.334V15.543H262.4c-.566,0-.99-.347-.617-.951l1.671-2.8L262.4,10.081l-2.918,4.55c-.578.887-1.08.848-1.864.848m7.339-.99h-2.571l.784-1.388h1Zm12.172-4.2c1.838,0,1.838.8,1.838,1.607h1.722V8.641h-3.56Zm-.411,4.036c0,1.182,1.941,1.182,1.941,1.182V17.1h-6.992V15.543s1.941,0,1.941-1.182V8.641h3.11Zm-3.509-4.036c-1.851,0-1.851.8-1.851,1.607h-1.722V8.641h3.573Zm-41.219,3.972c0,1.17,1.941,1.182,1.941,1.182v1.607h-6.992v-1.5s1.941,0,1.941-1.182V11.418c0-1.182-1.941-1.17-1.941-1.17V8.641h5.051Zm8.3.72c0,.784,0,2.314-2.262,2.314-4.267,0-1.285-3.637-3.856-3.637h-1.8V12h2.018c.758,0,1.285-.231,1.285-.8s-.463-.758-1.285-.758h-2.018v-1.8h3.252c1.8,0,2.982.887,2.982,2.339,0,.784-.386,1.375-1.375,1.954,1.414.5,1.208,1.491,1.208,2.352,0,.167,0,.437.334.437s.334-.27.334-.437V14.258h1.17Zm52.067-1.17v3.239h-5.771V15.415H289.3c.733,0,1.285-.3,1.285-1.555Zm-6.169,3.239h-5.064v-1.5s1.954,0,1.954-1.182V11.418c0-1.182-1.954-1.17-1.954-1.17V8.641h5.064Zm.4-3.419V12.086h.386a.99.99,0,0,0,1.105-1h1.555v3.56H288.1c0-.514-.347-.951-1.105-.951Zm5.771-1.8V8.641h-5.771v1.671H289.3c.733,0,1.285.3,1.285,1.568Zm-37.518-1.581V8.641h-6.658v1.607a2.365,2.365,0,0,1,1.864,1.105L253.4,17.1h2.481l.488-.835-2.892-5.051c-.4-.707.09-.964.643-.964Zm6.594,0V8.641H256.1v1.607h.617c.566,0,1,.36.63.964l-1.671,2.8.977,1.632,2.918-4.55c.578-.887,1.08-.848,1.864-.848m-40.821,4.01c0,1.17,1.941,1.182,1.941,1.182v1.607H215.56v-1.5s1.941,0,1.941-1.182V11.418c0-1.182-1.941-1.17-1.941-1.17V8.641h5.051Zm.4-5.668c3.3,0,5.81,0,5.81,2.571s-2.506,2.571-5.81,2.571V12.279c1.427,0,2.468,0,2.468-1.041s-1.041-.874-2.468-.874Zm24.678,5.668c0,1.17,1.941,1.182,1.941,1.182v1.607h-7v-1.5s1.941,0,1.941-1.182V11.418c0-1.182-1.941-1.17-1.941-1.17V8.641h7v1.607s-1.954,0-1.954,1.17Z" transform="translate(-215.56 -8.641)"/></g></g></g></svg>