<svg xmlns="http://www.w3.org/2000/svg" width="141.795" height="35.896" viewBox="0 0 141.795 35.896"><defs><style>.a{fill:#fff;}</style></defs><g transform="translate(-338.379 -1438.365)"><path class="a" d="M139.5,35.994l-.684-21.527-.263-8.737-23.133.711.211,6.079L81.21,13.651l.842,25.054,34.528-1.158.158,4.079,22.9-.947V35.968ZM91.421,15.73h0a8.369,8.369,0,0,1,5.263,1.5A4.395,4.395,0,0,1,97.79,18.6h0a1.962,1.962,0,0,1,.342.632v.158a14.012,14.012,0,0,0,.447,1.711h0v.184h0l-2.263.368h0l-1.895.263h0a3.738,3.738,0,0,0-.132-.579,1.316,1.316,0,0,0,0-.342,3.158,3.158,0,0,0-.447-.895h0l-.026-.105-.158-.158a4.684,4.684,0,0,0-2.105-.658v-.553h0V15.888Zm0,19.4h-.158v.263h0v.158H89.131A5.948,5.948,0,0,1,86.5,34.7h0l-.579-.395h0a5.106,5.106,0,0,1-1.316-1.29,5.263,5.263,0,0,1-.711-1.237.6.6,0,0,0-.184-.5V31.02a6.709,6.709,0,0,1-.421-.895h0a2.633,2.633,0,0,1,0-.684h.579l.368-.158h.947a.132.132,0,0,1,.132,0H87v.211h0v.184a1.607,1.607,0,0,1,0,.395,3.551,3.551,0,0,0,.5.842l.211.211h0l.316.184a5,5,0,0,0,1.605.579h0v.132h.395a.5.5,0,0,1,.342,0h0v.737h0V33.1h0v.447h0v.79h0v.474Zm7.9-4.026h0a1.475,1.475,0,0,1,0,.316.71.71,0,0,1-.158.421.95.95,0,0,1,0,.237h0a2.632,2.632,0,0,1-.5.816h0l-.184.211a.474.474,0,0,1-.184.263.263.263,0,0,1-.158.132h0l-.237.211a1.263,1.263,0,0,1-.289.237h0a5.079,5.079,0,0,1-1.368.79h0a8.316,8.316,0,0,1-1.211.421h0a4.29,4.29,0,0,1-.921.184h0a8.394,8.394,0,0,1-1.289,0V33.7h0v-.316h0v-.237h0v-.395h0V32.31h1.263l.263-.211h-.526a2.237,2.237,0,0,0,1.079-1.474,4.447,4.447,0,0,0,0-.605h0a1.553,1.553,0,0,0,0-.342h0l-.5-.579h0a4.053,4.053,0,0,0-1.105-.579h0l-.368-.158-1.447-.868h0c-.816,0-1.263-.237-1.29-.342h-.263a8.369,8.369,0,0,1-5.079-2.132,2.263,2.263,0,0,1-.342-.368,3.687,3.687,0,0,1-.395-.632,5.526,5.526,0,0,1-.579-2.263v-.263a5.263,5.263,0,0,1,.579-2.632,1.473,1.473,0,0,1,0-.211,3.421,3.421,0,0,1,.579-.763,7.9,7.9,0,0,1,4.579-2.053h1.211v3.29h0a3.211,3.211,0,0,1-.895.211h-.684l-.421.184h0a4,4,0,0,0-.579.553,1.6,1.6,0,0,0-.184.263h0V21.1a1.184,1.184,0,0,0,.342.763,2.237,2.237,0,0,0,.79.474,2.448,2.448,0,0,0,.526.211h0l.658.184h0l1.158.184h0v.132l.237-.211h0c1.158.211,2.158.447,3,.684l.605.158.526.184.474.184.395.184.263.211h0a4.5,4.5,0,0,1,.684.553h0l.289.211h0a.316.316,0,0,0,.132,0h0a.421.421,0,0,1,0,.237,5.263,5.263,0,0,1,1.29,5.658Zm7.606,3.895h-4.395v.132h0V33.915h0V32.652h0v-.368h0v-.842h0V27.1h0V25.547h0v-.684h0V22.231h0v-.79h0v-.711h0v-.184h0v-.579h0v-.316h0v-.263h0V17.546h0v-1h0V16.2h0v-.526h0v-.289h4.263v1.921h0v2.105h0V19.6h0v.842h0V20.6h0l.132,3.369h0v.895h0v2.763l-.237,5.132a.658.658,0,0,1,0,.211h0v.421h0v1.132h0Zm.421-16.185h0v-.553h0V16.073h0v-.5h0v-.289h8.421l.158,3.658h-1.553l-4.026.132h-2.79Zm.263,7.579h0v-.921h0V23.994h0V23.52h0V23.31h0v-.132h7.816v.158h0v1.237h0v1.421h0v.5H108.4a.316.316,0,0,1-.289,0h-.421Zm6.684,8.4h-6.606v-.158h0v-.553h0V33.021h0V31.126h8.842v1.395h0v.237h0v.553h0V34.7ZM124.817,9.362l2.211,4.579-1.79,4.342h0v.211h0l-1.447,3.526-6.29-12.4ZM125.9,37.679h0l-7.132.263L130,9.072l7.132-.263-5.921,14.922h.079v.263h0V24.2h-.158L125.87,37.363Zm5.263-.184h0L129,33.047l.816-2.053h0v-.158h0l1.921-4.763h0l.289-.763h0v-.237l6,12.369Z" transform="translate(257.169 1432.635)"/><path class="a" d="M187.288,29.4,186.5,7.87l-83.4,3.105.684,21.527Zm-78.4.474h0L108.653,24V23.4h0V22.95h0v-.395h0V22h0V21.66h0V19.976h0L108.521,17h3.869v.474h0v.342h0V19.5h0v.211h0v2.632h0V22.5h0v.79h0v.316h0v.579h0l.211,5.448Zm31.238-8.658V18.16h7.448v1.105h0v1.211h0V20.9h-7.263Zm37.633-1.342h-.184V17.607h0v-.79h7v3.105h-7.263Zm8.158,4h0v.842h0v.79h0v.211h0v.79h-7.79v-.79h0v-.5h0v-.579h0v.158h0v-.684h8.053Zm-8.553-13.632h8V13.16h-1.684l-3.474.132h-2.526V10.265Zm-4.605.158h0l3.763-.158h0V11.87h0v1.868h0V13.9h0v.711h0v2.921h0v.79h0v1.79h0v.5l.158,4h0v.342h0V26h0v.263H173.55V25.16h0V24.055h0v-.368h0v-.5h0l-.158-3.579h0v-.132h0V18.134h0v-.368h0v-2.29h0v-.526h0v-.605h0V14.16h0v-.921h0V13h0V11.423h0v-1Zm-2.079,11.79h0l.158,4.29h0v.158h0v.447h-3.579V23.134h0v-.316h0v-.263h0V22h0v-.158h0V18.318a.917.917,0,0,0,0-.158.943.943,0,0,1,0-.184,9.055,9.055,0,0,1,.526-1.105l.421-.763a1.972,1.972,0,0,1,.184-.316l.368-.632h0l1.711-3.29h0l.184,5.105Zm-7.9-4.474h0V17.5h0a1.9,1.9,0,0,1,.368-.658h0l.316-.579a.5.5,0,0,1,.263-.474l.289-.553h0c.211-.395.421-.737.632-1.053h0l.342-.632h0c.237-.5.474-1,.737-1.447s.421-.737.632-1.079l.21-.342h0l3.632-.132h0a.368.368,0,0,0,0,.158,1.765,1.765,0,0,0-.158.316l-.21.342c-.158.342-.395.737-.658,1.237l-.763,1.342c-.368.816-.658,1.237-.842,1.29h0a.446.446,0,0,1,0,.184h0l-.184.342h0l-.447.868h0V17l-.184.289-.368.553h0a7.3,7.3,0,0,1-.526,1.026,2.871,2.871,0,0,1-.211.395l-.263.474-.5.816c0,.184-.184.342-.263.5s-.184.342-.263.5L163,24.186c0,.237-.263.447-.368.684s-.474.816-.658,1.158v.237a1.47,1.47,0,0,1-.132.211h0l-.237-6.184Zm-12.316-6.5,3.632-.132c.184.211.316.421.5.658l.237.342.447.711L156,13.976h0l.158.263h0a5.789,5.789,0,0,1,.895,1.211h0l.29.447h0a.5.5,0,0,1,.342.553h0l.316.474h0a.632.632,0,0,1,0,.263h0l1.737,2.632.237,6.211h0a1.456,1.456,0,0,0,0-.211l-.158-.237-.158-.263a5.031,5.031,0,0,1-.368-.553l-1.368-2.079-.526-.842c-.289-.421-.579-.895-.895-1.395a20.763,20.763,0,0,1-1.684-2.632h0a5.589,5.589,0,0,1-.342-.526h0a.816.816,0,0,1,0-.211h0l-.263-.447h0L154,16.318l-.316-.526h0l-.237-.368h0v-.211h0L153.26,15a9.219,9.219,0,0,1-.526-.868c-.974-1.421-1.605-2.395-1.921-2.921l-.132-.237a.421.421,0,0,0,0-.158Zm0,1.184,2.369,3.448h0l.395.658h0l.211.211h0v.211h0a.816.816,0,0,1,.158.342l.342.526a.369.369,0,0,1,.211.263v.132h0v.553h0V18.9h0v.447h0l.184,4.921h0l.184,3.632h-.158l-3.105.132h-.605L150.47,21.9V18.765h0v-.684h0v-.553h0v-.289h0v-.605h0l-.158-4.263Zm-2.053,12.816h0v.868h0v.79h0v.158h0v.947H140.47v.5h0v-.79h0v-.474h0v-.579h0v-.368h0v-.658h7.237ZM139.891,11.66H147.6v3.053H139.97V11.686Zm-4.553,0H139.1v1.658h0v1.895h0V15.4h0v.737h0v.184h0v2.895h0V20h0v1.421h0v.921l.158,4.026v.947h0V28.45H135.5v-1h0V26.371h0v-.316h0v-.342h0V22.134h0V20.818h0v-.237h0V18.213h0v-.447h0V16.37h0v-.263h0v-.868h0v-.184h0v-.237a.5.5,0,0,1,0-.184V13.475h0V11.818Zm-11.843.447h0l3.29-.132c2.447,0,3.684.342,3.684.921h.316a5.549,5.549,0,0,1,.605.5,3.263,3.263,0,0,1,.474.553l.316.553.237.632a6.426,6.426,0,0,1,.158.816v.579a6,6,0,0,1,0,1.421h0a2.213,2.213,0,0,1,0,.526h0a3.632,3.632,0,0,1-1.658,1.895h0a.474.474,0,0,1-.184.132h-.184a1.526,1.526,0,0,1,1.053.474h0a3.344,3.344,0,0,1,.368.447,1.079,1.079,0,0,1,.184.289,3.1,3.1,0,0,1,.29.5h0v.158h0a3.631,3.631,0,0,1,.316,1.263h0v.605h0l.421,1.895h0V26.4h0a1.554,1.554,0,0,1,.211.5.631.631,0,0,1,0,.211h0v.184h0a5.412,5.412,0,0,1,.29.474h0V27.9h-3.895a5.685,5.685,0,0,1-.632-1.29v-.184a2.947,2.947,0,0,1-.316-1l-.263-1.105a2.126,2.126,0,0,0-.211-1.079.657.657,0,0,1,0-.184,2.131,2.131,0,0,0-.447-.632l-.158-.132h0a3.184,3.184,0,0,0-1.026-.368H124V20.792h0V19.265h1.526a7.9,7.9,0,0,0,1.5-.184,1.105,1.105,0,0,0,.316,0,2.21,2.21,0,0,0,.5-.184h0a1.737,1.737,0,0,0,1.079-1.763v-.684a1.5,1.5,0,0,0,0-.368.368.368,0,0,0,0-.158l-.158-.316-.184-.237a1.711,1.711,0,0,0-1.237-.421h0a4.816,4.816,0,0,0-1.5,0h-1.895V11.975Zm-4.527.184h3.605l.263,6.9V19.4h0v.184h0v2h0L123.127,29H119.5l-.632-16.922Zm-15.264.553h12.369v.5h0v.605h0v1.5h0v.184h0v.526h-6.842l-3.763.158h-1.237v-.211h0v-.263h0V13.212h0Z" transform="translate(292.887 1436.126)"/></g></svg>