<svg xmlns="http://www.w3.org/2000/svg" width="184.623" height="27.535" viewBox="0 0 184.623 27.535"><defs><style>.a{fill:#d9d9d9;}.b,.c{fill:none;stroke-miterlimit:10;}.b{stroke:#7c0e1a;}.c{stroke:#7c0f1b;}</style></defs><g transform="translate(-727 -1334)"><path class="a" d="M173.319,16.763l.1,2.686-1.913.065h0l-.114-2.946h0v-.26h0v-.431h0v-.309h0V15.4h0V14.59h0l-.065-1.473h1.856v.236h0v.171h0v.814h0v.106h0v.041h0V15.77h0v.073h0v.391h0V16.4h0v.285h0v.057Zm1.937-4.371v-.1h0v-.749h0v-.293h0v-.244h-.977l-1.1.041h-.887l-1.628.057h-1.587v1.3h0v.13h0v.106h.749a.155.155,0,0,0,.114,0l1.864-.065h1.457l1.351-.049h.57v-.138Zm3.256,3.142h0l-.041-.993h0V14.46h0v-.106l-.122-3.386h-.358l-1.416.049h0l.309,8.326h1.758L178.5,15.7Zm5.258,3.72-.065.065.065.057h.155l.057-.057-.065-.057Zm3.386-3.98a.179.179,0,0,0,.114,0h3.223v-.049h0v-.2h0v-.594h0V13.89h0v-.049h-3.3v1.506h.146Zm3.866,3.012h0l.049-.073h0v-.391h-.049V17.7l.041-.073v-.35h-.7a.366.366,0,0,0-.146,0h-3.093V17.6h0v.179h0V18.1h0v.236h0v.391h0v.106h3.9l.049-.049v-.391Zm4.884-4.656h-.049l-.041-.057h0a.268.268,0,0,0-.057-.13v-.049h-.041l-.041-.049-.049-.049h0l-.155-.228h0a.252.252,0,0,0-.171-.269h0l-.138-.22h0v-.057a3.2,3.2,0,0,0-.431-.594h0l-.081-.13h0c-.114-.2-.228-.4-.342-.578s-.155-.244-.228-.358l-.122-.171c-.073-.114-.155-.22-.236-.326l-1.783.073h0v.073l.065.114c.155.269.472.749.944,1.449a3.49,3.49,0,0,0,.26.415l.081.106.073.065.065.106h0l.122.179h0l.155.252.09.155h.057l.138.212h0a.244.244,0,0,0,0,.09V13.7a2.386,2.386,0,0,0,.163.26h0a10.3,10.3,0,0,0,.814,1.278l.44.684.26.415.667,1.026.179.277.081.122.073.114.073.106h0l-.114-3.052Zm4.07-.5.22-.423h-.016l.09-.179h0a.09.09,0,0,0,.057-.049h0a.294.294,0,0,0,0-.09h0c.09,0,.22-.244.407-.643l.374-.659.334-.6.09-.179a.871.871,0,0,0,.073-.155.483.483,0,0,0,0-.065.114.114,0,0,0,0-.049h0l-1.791.065h0l-.106.163c-.106.171-.212.35-.309.537s-.244.464-.366.724h0l-.171.309h0a2.669,2.669,0,0,0-.309.521h0l-.155.277a.244.244,0,0,0-.122.228l-.155.285h0a.879.879,0,0,0-.171.317h0l-.057.106h0l-.765,1.392.114,3.052h0a.143.143,0,0,1,.065-.114l.065-.114.317-.57.187-.342c.2-.358.423-.765.676-1.237l.122-.244.138-.244.236-.407.13-.228.114-.2a3.166,3.166,0,0,0,.252-.513h0l.179-.277c0-.057.065-.1.09-.147l.041-.073a.391.391,0,0,0,0-.114h0m1.929,5v-.155l-.081-2.116a.052.052,0,0,0-.049-.049v-.057h0l.155-2.686-.1-2.507h-.065l-.814,1.628h0V12.3h0l-.187.317-.081.147c-.081.138-.146.269-.212.383s-.212.423-.26.545a.615.615,0,0,0,0,.09.276.276,0,0,0,0,.073v1.831h0v.269h0v.122l-.049.057v.147h0v.179a.082.082,0,0,0,0,.041v.041l.041,1.131v.814h.757l.977-.041.065-.057v-.212Zm3.28-.106v-.513h0v-.163h0v-.049h0l-.073-1.978v-.236h0v-.887h0v-.383h0l-.057-1.441h0v-.073h0v-.342h0v-.081h0v-.92h0v-.26h0V9.951h0l-1.856.065h0v.212h0v.537h0v.814h0V11.7h0v.448h0v.081h0v.3h0v.244h0l.041,1.115h0v.179h0v.659h0V14.8h0l.065,1.766h0v.252h0v.171h0v.537h0v.545h0v-.049l1.465-.041h.415v-.13h0Zm.472-3.516h3.345V13.035h-.22l-1.156-.073h0l-.041.041h-1.1l-.138.041h-.5v.041h-.22a.187.187,0,0,0-.114,0h0v.383h0v1.115h.293m.814-3.256h0l.073.049,1.709-.065v-.041h.033v.041h.773l.065-.057L209.1,9.82l-.065-.057h0l-1.074.041h-2.9l.049,1.489h.057l.057.057h1.107Zm3.06,6.357v-.155h0v-.383h0v-.277h0v-.236h-.741a.171.171,0,0,0-.106,0h-3.125v.342h0v.187h0v.293h-.041V17.7h.049v.391h0v.065h2.621l1.2-.041h0Zm-64.227,2.442-.049-.041h0v-.627h0v-.171a.065.065,0,0,0,.057,0h0V18.9a.065.065,0,0,0,0-.041h0a.521.521,0,0,0-.171,0h-.342V18.9h-.065v-.081h0a2.678,2.678,0,0,1-.814-.293l-.155-.081h0a.561.561,0,0,1-.09-.106,1.627,1.627,0,0,1-.252-.415v-.2a.358.358,0,0,0-.049-.1h0a.09.09,0,0,0-.065,0h0l.065-.106h-1.481l-.179.073h-.285l-.049.049h0a1.31,1.31,0,0,0,.057.35h0a3.125,3.125,0,0,0,.081.415v.13a.7.7,0,0,0,.09.236,2.856,2.856,0,0,0,.342.619,2.645,2.645,0,0,0,.651.627h0l.236.138h0a3.256,3.256,0,0,0,1.3.415h.513V20.54a2.588,2.588,0,0,0,.358,0h.163l.065-.073-.049-.057v-.073s.057,0,.065-.041v-.252m.122-7.879h0v.269a2.214,2.214,0,0,1,1.034.326l.09.073.073.081h0a1.53,1.53,0,0,1,.22.448.959.959,0,0,1,.057.163,2.77,2.77,0,0,1,.057.277h0l.92-.122h0l1.115-.179h0v-.09h0v-.041a8.142,8.142,0,0,0-.228-.814v-.081c-.073-.187-.13-.285-.179-.309h0a2.068,2.068,0,0,0-.553-.676,4.2,4.2,0,0,0-2.572-.741h0v1.1Zm3.345,3.655-.049-.041h-.057a.244.244,0,0,0-.065-.065h0l-.138-.106h0a2.01,2.01,0,0,0-.334-.269h0l-.13-.106-.2-.09-.228-.09-.269-.09-.293-.09c-.407-.114-.9-.22-1.481-.326h0l-.122.106V14.59h0a2.946,2.946,0,0,1-.578-.1h0l-.317-.09h0a2.059,2.059,0,0,1-.269-.1,1.1,1.1,0,0,1-.374-.236.545.545,0,0,1-.179-.383V13.32a.138.138,0,0,1,0-.057.13.13,0,0,1,0-.065.814.814,0,0,1,.081-.13,2.341,2.341,0,0,1,.285-.269h0l.2-.09h0l.342-.041a1.449,1.449,0,0,0,.44-.106h0l-.049-1.628h0l-.594.049a4.07,4.07,0,0,0-2.255,1.009,2.115,2.115,0,0,0-.293.374l-.057.106a2.556,2.556,0,0,0-.285,1.327v.13a2.385,2.385,0,0,0,.472,1.424c.049.065.106.122.163.187a4.167,4.167,0,0,0,2.45.92h.138q0,.073.635.171h0l.716.163a.9.9,0,0,0,.187.073h0a1.823,1.823,0,0,1,.553.293h0l.236.285h0a1,1,0,0,1,0,.163h0a1.678,1.678,0,0,1,0,.293,1.083,1.083,0,0,1-.529.724h-.041l-.122.106h0l-.1.041h-.2a.155.155,0,0,0-.073,0h0s-.041,0-.041.057h-.293v.22h0V19.2h0v.2h0v.114h0v.171h0v.814a4.672,4.672,0,0,0,.635-.057h.049a2.327,2.327,0,0,0,.456-.09h.049c.2-.057.4-.122.6-.2h.065a2.6,2.6,0,0,0,.676-.4h0l.138-.114.122-.114h0a.317.317,0,0,0,.081-.065.293.293,0,0,0,.09-.13l.09-.106h0a1.424,1.424,0,0,0,.22-.326h0a.479.479,0,0,0,.049-.114.342.342,0,0,0,.081-.2l.049-.155h0a2.662,2.662,0,0,0-.374-2.4.236.236,0,0,0,0-.114m4.159,4.273V19.6h0v-.057h0v-.212h0a.261.261,0,0,0,0-.106l-.073-2.3-.041-.309V15.567h0v-.448h.049l-.057-1.628h0v-.073h.049V13h-.049v-.285h.049V11.676h0v-.1h.057v-.936h0l-.065-.065-1.18.041h-.92v.171h0v.244h0V11.2h0v.374h0v.9h0v.138h0v.171h0v.423h0v.1h0v.35h0v.293h0V15.3h0v.2h0v.765h0v.2a.041.041,0,0,0,0,.041l.073,2.051v.285h0v.187h0v.627a.073.073,0,0,0,0,.041h0v.594h0l.065-.065h1.669l.081.049h.171l.049-.049h.138v-.147h0Zm.529-4.07h0a.179.179,0,0,0,.146-.049h1.839l.1-.041h1.66v-.244h0v-.464l-.041-.236h0v-.6h0V14.4h-.163l-1.392.049h-2.32v.073h0v.114h0v.228h-.041V15.6h0v.423h0v.057h.065v.049h.2Zm.96-3.76.049-.041h.09l.065.041,1.978-.065a.057.057,0,0,1,0-.041h.806l-.065-1.807H154v.041h-.9l-.041.041h0v.236h0v.1h0l.041,1.074v.35h.049l1.278-.041Zm7.488-.106h-.049l.041-.114h.049l.855-2.189-1.1-2.255-3.508.13,2.963,6.1Zm2.938,2.914h.081v-.1h0l.057-.138h.09v-.1l.065-.049h-.13l2.906-7.325-3.508.13-5.673,14.187,3.508-.13h0l2.58-6.511Zm.537.317h0v.049h0l-.155.383h0v.049h0l-.944,2.336h0v.09h0l-.4,1.009,1.058,2.181h0l3.508-.13-3.044-6.129Zm-7.708,4.07V19.27h0V19.2h0v-.822h-4.4v.936h0v.521h0v.277h0V20.2h3.158l1.148-.041V19.6Zm26.135-.488h0l.057-.049c-.065-.1-.114-.179-.155-.228v-.041h0v-.09h0a.453.453,0,0,1,0-.1,1.489,1.489,0,0,0-.1-.252h0a.175.175,0,0,0-.041-.13h.049l-.472-1.156h0V16.9a.814.814,0,0,0,0-.171h0a1.766,1.766,0,0,0-.163-.627h0v-.073h0a1.742,1.742,0,0,0-.138-.244l-.1-.147a1.163,1.163,0,0,0-.179-.212l-.057-.065a.716.716,0,0,0-.513-.22h.22a.212.212,0,0,0,.081-.057h.057a1.823,1.823,0,0,0,.814-.928h0a1.816,1.816,0,0,0,.073-.26h0a2.742,2.742,0,0,0,.057-.7v-.293a2.882,2.882,0,0,0-.081-.4,2.592,2.592,0,0,0-.114-.3,3.03,3.03,0,0,0-.155-.277,1.928,1.928,0,0,0-.236-.277,1.791,1.791,0,0,0-.3-.244h-.146c0-.277-.619-.423-1.815-.448l-1.628.065h0l.057,1.473h0l.065.057h.928a3.109,3.109,0,0,1,.741,0h0a.765.765,0,0,1,.594.212.5.5,0,0,1,.1.122.742.742,0,0,1,.073.138v.081a1.26,1.26,0,0,1,.057.187.408.408,0,0,0,0,.1v.244a.863.863,0,0,1-.529.863h-.057l-.244.1h-.155a3.256,3.256,0,0,1-.741.09H178.9v.741h0v.057a.057.057,0,0,0-.049,0h0v.545h0l.049.041h.114l.5-.057h.724a1.465,1.465,0,0,1,.513.171h0l.073.057a.969.969,0,0,1,.22.317v.09a2.617,2.617,0,0,0,.106.537c.033.163.081.391.122.537.073.334.13.5.163.5v.09a3.353,3.353,0,0,0,.3.635.122.122,0,0,0,0,.049h1.921a.179.179,0,0,1-.065-.057m2.979-.6v-.472l-.073-1.978V15.42h0v-.692h0v-.391h0l-.049-1.433h0v-.09h0v-.358h0v-.065h0v-.92h0v-.065h0v-.814h-1.921l.041.212V11.4h.049v.553h0a.163.163,0,0,0,0,.09v.122h-.049v.114h.049v.415h.049v.09h-.049v.3h0v.228h-.041l.041,1.164v.041h0v.13h-.041v.659a.049.049,0,0,0,.041.049V15.4h0l.065,1.758v.228h0v.049h0v.155h0v.529h0v.5h0l1.5-.041h.309v-.562Zm.114-6.357h.049l1.107-.049h.171l1.709-.065h.871l.065-.057-.057-1.441-.065-.057-1.074.041h-2.751l.049,1.481Zm7.187,4.786-.1-2.442h0v.024h0v-.212h0v-.081h0V13.9h0v-.057a.187.187,0,0,0-.114-.13l-.163-.26a.35.35,0,0,0-.073-.171h0l-.073-.114h0l-.1-.114h0l-.212-.317h0l-1.083-1.693H191.9l.081,2.092h0v.326h0v.147h0v.049h0v.269h0v.326l.057,1.408v.122l.1,3.028h.244l1.53-.057h.073l-.09-1.791Zm-24.353,4.582.065,2.312-12.355.529-.081-2.019-16.995.562-.44-13.413,16.93-.57-.106-2.987,12.486-.4.13,4.3,41.03-1.538.431,11.7Zm-.5,1.791-.073-2.312,41.1-1.53-.391-10.581-41.03,1.522-.13-4.3L157.105,6.3l.114,2.987-16.946.562.423,12.307,16.995-.57.065,2.01Z" transform="translate(701.002 1333.003)"/><line class="b" y2="27.535" transform="translate(755.357 1334)"/><line class="c" y2="27.535" transform="translate(832.835 1334)"/><path class="a" d="M9.857,31.6a1.213,1.213,0,0,0,.293-.138.741.741,0,0,0,.212-.236.765.765,0,0,0,.073-.35.692.692,0,0,0-.122-.415.553.553,0,0,0-.358-.244.724.724,0,0,0,.269-.22.594.594,0,0,0,.09-.334.7.7,0,0,0-.065-.309.5.5,0,0,0-.171-.2.684.684,0,0,0-.26-.114,2.214,2.214,0,0,0-.342,0H8.253v2.629H9.507A1.628,1.628,0,0,0,9.857,31.6ZM8.815,29.463h.692a.277.277,0,0,1,.122.049.187.187,0,0,1,.09.09.277.277,0,0,1,.049.2.285.285,0,0,1-.1.244.423.423,0,0,1-.252.073H8.831Zm0,1.734v-.724h.627a.472.472,0,0,1,.3.09.326.326,0,0,1,.114.285.334.334,0,0,1,0,.171.244.244,0,0,1-.1.106.48.48,0,0,1-.13.057H9.466ZM6.959,30.057,6.34,28.991H5.7l.96,1.628v1.026h.578V30.618L8.05,29.2v-.212h-.48Zm12.152-1.066-.586,1.848h0l-.619-1.848H15.465l-.293.488h1.034V31.62h.578V29.5h.692l.692,2.141h.651l.887-2.653Zm-4.517,0-.61,1.042-.61-1.042h-.651l.969,1.628v1.026h.578V30.618l.969-1.628ZM4.6,31.058h.977l.2.586h.6L5.4,28.991H4.8l-.814,2.141H2.759V28.991H2.181V31.62H4.387Zm.488-1.392h0l.342.952H4.745Zm7.594-.309a1.107,1.107,0,0,0-.407-.293,1.359,1.359,0,0,0-1.091,0,1.042,1.042,0,0,0-.407.293,1.294,1.294,0,0,0-.252.44,1.628,1.628,0,0,0-.09.545,1.693,1.693,0,0,0,.09.537,1.343,1.343,0,0,0,.252.431,1.115,1.115,0,0,0,.407.285,1.457,1.457,0,0,0,1.091,0,1.188,1.188,0,0,0,.407-.285,1.343,1.343,0,0,0,.252-.431,1.693,1.693,0,0,0,.09-.537,1.628,1.628,0,0,0-.09-.545,1.294,1.294,0,0,0-.252-.44Zm-.277,1.3a.814.814,0,0,1-.122.285.659.659,0,0,1-.22.2.716.716,0,0,1-.334.073.7.7,0,0,1-.334-.073.659.659,0,0,1-.22-.2.814.814,0,0,1-.122-.285,1.3,1.3,0,0,1-.041-.317,1.5,1.5,0,0,1,.041-.334.928.928,0,0,1,.122-.293.757.757,0,0,1,.22-.2.7.7,0,0,1,.334-.073.716.716,0,0,1,.334.073.757.757,0,0,1,.22.2.928.928,0,0,1,.122.293,1.5,1.5,0,0,1,0,.334,1.3,1.3,0,0,1,0,.317ZM.578,30.7h.61a1.05,1.05,0,0,0,.44-.081.7.7,0,0,0,.285-.187.749.749,0,0,0,.155-.269,1.03,1.03,0,0,0,0-.627.749.749,0,0,0-.155-.269.912.912,0,0,0-.285-.179,1.05,1.05,0,0,0-.44-.1H0V31.62H.578Zm0-1.237h.643a.553.553,0,0,1,.163.057.383.383,0,0,1,.106.122.374.374,0,0,1,.049.2.4.4,0,0,1-.049.2.285.285,0,0,1-.106.114.391.391,0,0,1-.163.057H.578Z" transform="translate(727 1328.613)"/><path class="a" d="M13.241,16.362a1.343,1.343,0,0,0-1.628,1.579,1.441,1.441,0,0,0,1.042,1.034,1.376,1.376,0,0,0,1.441-.61,1.408,1.408,0,0,0,0-1.408,1.563,1.563,0,0,0-.855-.594Z" transform="translate(724.844 1330.962)"/><path class="a" d="M6.153,18.763c-.635-1.986.529-3.834,1.986-5.217,1.766-1.669,4.07-2.2,6.568-2.328h0c-2.246-.92-4.6-1.563-6.511-3.313A19.1,19.1,0,0,1,4.379,3.242,6.511,6.511,0,0,1,3.565,1.5H0V22.255H11A7.353,7.353,0,0,1,6.153,18.763Z" transform="translate(727 1333.721)"/><path class="a" d="M19.193,11.021c.106,0,.106-.1.122-.163a21.382,21.382,0,0,1,.309-4.485A11.4,11.4,0,0,1,21.545,1.49H11.29c1.034.887,1.392,1.367,2.344,2.3A87.7,87.7,0,0,1,19.193,11.021Z" transform="translate(724.899 1333.723)"/><path class="a" d="M118.072,19.406a3.866,3.866,0,0,0-.814-1.237,5.421,5.421,0,0,0-2.572-1.327,7.057,7.057,0,0,1-2.572-.887,1.066,1.066,0,0,1-.407-.879.993.993,0,0,1,.472-.863,2.881,2.881,0,0,1,2.71-.065,5.16,5.16,0,0,1,1.465.863l1.31-2.873a8.05,8.05,0,0,0-2.132-.985,6.7,6.7,0,0,0-6.259,1c-1.831,1.628-2.108,5.054.122,6.511a8.953,8.953,0,0,0,2.507,1.009c.969.236,2.71.716,2.393,1.9-.342,1.31-2.491.944-3.638.513a7.114,7.114,0,0,1-2.36-1.465,5.7,5.7,0,0,1-1.2,3.321,9.043,9.043,0,0,0,3.785,1.994,6.286,6.286,0,0,0,5.917-1.156,4.827,4.827,0,0,0,1.612-3.711,4.289,4.289,0,0,0-.334-1.628" transform="translate(707.071 1331.988)"/><path class="a" d="M83.263,18.78,74.44,11.6V26.024h3.817v-6.9l9.051,6.829V11.52H83.263Z" transform="translate(713.149 1331.856)"/><path class="a" d="M104.129,20.416v-8.9h-3.882v8.628c0,1.628-.765,2.588-2.442,2.588s-2.442-.944-2.442-2.588V11.52H91.57v8.9c0,3.907,2.67,5.82,6.292,5.82a6.237,6.237,0,0,0,5.234-2.23c.049-.073.26-.407.513-.871a6.512,6.512,0,0,0,.545-2.719" transform="translate(709.961 1331.856)"/><path class="a" d="M105.73,26.661a5.438,5.438,0,0,0,.513-.871,9.7,9.7,0,0,1-.513.871" transform="translate(707.326 1329.201)"/><path class="a" d="M64.287,22.834V20.367h6.283V17.112H64.287V14.784h6.357V11.52H62.5L60.47,15.508V26.024H70.709V22.834Z" transform="translate(715.748 1331.856)"/><path class="a" d="M50.626,16.316l-3.353-6.17H42.65l7.879,14.529L60.98,4.14H56.845Z" transform="translate(719.064 1333.23)"/></g></svg>