<svg xmlns="http://www.w3.org/2000/svg" xmlns:xlink="http://www.w3.org/1999/xlink" width="249.808" height="20.588" viewBox="0 0 249.808 20.588"><defs><style>.a{fill:none;}.b,.e{fill:#fff;}.c{clip-path:url(#a);}.d{clip-path:url(#c);}.e{fill-rule:evenodd;}</style><clipPath id="a"><rect class="a" width="53.272" height="12.449"/></clipPath><clipPath id="c"><rect class="a" width="54.215" height="6.143"/></clipPath></defs><line class="b" y2="20.588" transform="translate(19.971)"/><line class="b" y2="20.588" transform="translate(68.497)"/><line class="b" y2="20.588" transform="translate(127.858)"/><line class="b" y2="20.588" transform="translate(190.367)"/><path class="b" d="M7.368,21.4a.8.8,0,0,0,.218-.1.526.526,0,0,0,.163-.181.553.553,0,0,0,.054-.263.526.526,0,0,0-.091-.318.436.436,0,0,0-.272-.181.526.526,0,0,0,.2-.163.417.417,0,0,0,.073-.245.608.608,0,0,0-.045-.236.4.4,0,0,0-.127-.145.771.771,0,0,0-.2-.082,1.17,1.17,0,0,0-.263,0H6.17v1.96h.907A1.234,1.234,0,0,0,7.368,21.4Zm-.78-1.6H7.2a.172.172,0,0,1,.064.145.245.245,0,0,1,0,.118.2.2,0,0,1-.073.181A.3.3,0,0,1,7,20.3H6.588Zm0,1.3v-.544h.472a.354.354,0,0,1,.227.064.272.272,0,0,1,.082.218.263.263,0,0,1,0,.127.1.1,0,0,1-.064.082H7.077ZM5.2,20.237l-.454-.771h-.49l.726,1.2v.762h.463v-.753l.644-1.053v-.154H5.662Zm9.074-.771-.426,1.388h0l-.436-1.379H11.6l-.209.363h.771v1.6h.426V19.828H13.1l.508,1.6h.49l.653-1.96Zm-3.375,0-.463.771-.454-.771h-.49l.726,1.2v.762h.426v-.753l.735-1.207ZM3.439,20.99h.735l.145.436h.445l-.726-1.96H3.629l-.608,1.606H2.114V19.465h-.49v1.96h1.66ZM3.8,19.946h0l.245.726h-.5Zm5.68-.227a.907.907,0,0,0-.309-.218.962.962,0,0,0-.408-.082.907.907,0,0,0-.4.082.762.762,0,0,0-.309.218.971.971,0,0,0-.191.327,1.207,1.207,0,0,0-.064.408,1.116,1.116,0,0,0,.064.4.971.971,0,0,0,.191.327.908.908,0,0,0,.708.29.962.962,0,0,0,.408-.073,1.053,1.053,0,0,0,.309-.218.826.826,0,0,0,.181-.327,1.116,1.116,0,0,0,.073-.4,1.207,1.207,0,0,0-.073-.408A.826.826,0,0,0,9.482,19.719Zm-.209.98a.608.608,0,0,1-.091.209.5.5,0,0,1-.163.145.463.463,0,0,1-.254.064.454.454,0,0,1-.245-.064.5.5,0,0,1-.163-.145.608.608,0,0,1-.091-.209,1.143,1.143,0,0,1,0-.245,1.062,1.062,0,0,1,0-.245.581.581,0,0,1,.091-.218.526.526,0,0,1,.163-.154.544.544,0,0,1,.245-.054.554.554,0,0,1,.254.054.526.526,0,0,1,.163.154.581.581,0,0,1,.091.218,1.071,1.071,0,0,1,0,.245,1.125,1.125,0,0,1,0,.245Zm-8.838,0H.907a.78.78,0,0,0,.309-.054.508.508,0,0,0,.209-.145.454.454,0,0,0,.118-.2.681.681,0,0,0,.045-.236.671.671,0,0,0-.045-.227.481.481,0,0,0-.118-.209.6.6,0,0,0-.209-.136.78.78,0,0,0-.309-.027H0v1.96H.436Zm0-.907h.6a.2.2,0,0,1,.082.091.345.345,0,0,1,0,.145.363.363,0,0,1,0,.154.2.2,0,0,1-.082.091l-.127.109H.436Z" transform="translate(0 -1.799)"/><path class="b" d="M9,11a1.007,1.007,0,0,0-1.243,1.18,1.053,1.053,0,0,0,.78.771,1.007,1.007,0,0,0,1.071-.454,1.043,1.043,0,0,0,0-1.053A1.125,1.125,0,0,0,9,11Z" transform="translate(-0.717 -1.016)"/><path class="b" d="M4.6,13.912c-.472-1.488.39-2.885,1.479-3.9a7.413,7.413,0,0,1,4.909-1.751h0c-1.651-.708-3.412-1.18-4.854-2.5A14.055,14.055,0,0,1,3.276,2.307,4.773,4.773,0,0,1,2.668,1H0V16.552H8.23A5.635,5.635,0,0,1,4.6,13.912Z" transform="translate(0 -0.093)"/><path class="b" d="M13.468,8.123c.073,0,.073-.073.082-.118a16.332,16.332,0,0,1,.236-3.375A8.656,8.656,0,0,1,15.219,1H7.57c.771.662,1.025,1.025,1.751,1.715a62.473,62.473,0,0,1,4.147,5.408Z" transform="translate(-0.701 -0.093)"/><path class="b" d="M68.855,13.261a2.577,2.577,0,0,0-.49-.726,3.276,3.276,0,0,0-1.588-.808,4.619,4.619,0,0,1-1.579-.553.635.635,0,0,1-.245-.544.608.608,0,0,1,.29-.526,1.76,1.76,0,0,1,1.67,0,3.176,3.176,0,0,1,.907.526l.808-1.815a5.444,5.444,0,0,0-1.316-.608,4.138,4.138,0,0,0-3.847.626,2.59,2.59,0,0,0,.073,3.992,5.744,5.744,0,0,0,1.552.626c.6.154,1.67.445,1.479,1.171s-1.533.581-2.241.318a4.4,4.4,0,0,1-1.452-.907,3.484,3.484,0,0,1-.735,2.051,5.68,5.68,0,0,0,2.323,1.225,3.883,3.883,0,0,0,3.629-.708,2.985,2.985,0,0,0,.962-2.287,2.65,2.65,0,0,0-.2-1.025" transform="translate(-5.756 -0.74)"/><path class="b" d="M49.5,12.834,44.07,8.415v8.874h2.35l-.009-4.247,5.58,4.2V8.37H49.5Z" transform="translate(-4.082 -0.775)"/><path class="b" d="M61.269,13.841V8.4H58.883v5.308c0,1.007-.472,1.588-1.488,1.588s-1.479-.581-1.479-1.588V8.37h-2.4v5.444c0,2.4,1.642,3.629,3.874,3.629a3.82,3.82,0,0,0,3.221-1.379s.163-.245.318-.535a3.938,3.938,0,0,0,.336-1.67" transform="translate(-4.957 -0.775)"/><path class="b" d="M61.34,16.775a2.868,2.868,0,0,0,.318-.535c-.154.29-.29.49-.318.535" transform="translate(-5.682 -1.504)"/><path class="b" d="M38.7,15.33V13.814h3.865V11.809H38.7V10.375h3.911V8.37H37.6L36.35,10.82v6.47h6.306V15.33Z" transform="translate(-3.367 -0.775)"/><path class="b" d="M31.429,11.785,29.36,7.992H26.52l4.845,8.938L37.8,4.29h-2.55Z" transform="translate(-2.457 -0.397)"/><path class="b" d="M101.308,16.165l-.236-7.422-.091-3.012-7.976.245.073,2.1-11.868.39L81.5,17.1l11.9-.4.054,1.406,7.894-.327V16.156ZM84.731,9.178h0a2.886,2.886,0,0,1,1.815.517,1.515,1.515,0,0,1,.381.472h0a.677.677,0,0,1,.118.218v.054a4.83,4.83,0,0,0,.154.59h0v.064h0l-.78.127h0l-.653.091h0a1.29,1.29,0,0,0-.045-.2.454.454,0,0,0,0-.118,1.089,1.089,0,0,0-.154-.309h0l-.009-.036-.054-.054a1.615,1.615,0,0,0-.726-.227v-.191h0V9.232Zm0,6.687h-.054v.091h0v.054h-.735a2.051,2.051,0,0,1-.907-.29h0l-.2-.136h0a1.76,1.76,0,0,1-.454-.445,1.815,1.815,0,0,1-.245-.426.207.207,0,0,0-.064-.172V14.45a2.314,2.314,0,0,1-.145-.309h0a.909.909,0,0,1,0-.236h.2l.127-.054h.327a.045.045,0,0,1,.045,0h.581v.073h0v.064a.553.553,0,0,1,0,.136,1.225,1.225,0,0,0,.172.29l.073.073h0l.109.064a1.724,1.724,0,0,0,.553.2h0v.045h.136a.172.172,0,0,1,.118,0h0v.254h0v.118h0v.154h0v.272h0v.163Zm2.722-1.388h0a.508.508,0,0,1,0,.109.245.245,0,0,1-.054.145.327.327,0,0,1,0,.082h0a.908.908,0,0,1-.172.281h0l-.064.073a.164.164,0,0,1-.064.091.091.091,0,0,1-.054.045h0l-.082.073a.436.436,0,0,1-.1.082h0a1.751,1.751,0,0,1-.472.272h0a2.867,2.867,0,0,1-.417.145h0a1.479,1.479,0,0,1-.318.064h0a2.894,2.894,0,0,1-.445,0v-.563h0v-.109h0v-.082h0v-.136h0v-.154h.436l.091-.073h-.181a.771.771,0,0,0,.372-.508,1.539,1.539,0,0,0,0-.209h0a.536.536,0,0,0,0-.118h0l-.172-.2h0a1.4,1.4,0,0,0-.381-.2h0l-.127-.054-.5-.3h0c-.281,0-.436-.082-.445-.118h-.091a2.885,2.885,0,0,1-1.751-.735.78.78,0,0,1-.118-.127,1.273,1.273,0,0,1-.136-.218,1.905,1.905,0,0,1-.2-.78v-.091a1.815,1.815,0,0,1,.2-.907.51.51,0,0,1,0-.073,1.18,1.18,0,0,1,.2-.263,2.722,2.722,0,0,1,1.579-.708H84.4v1.134h0a1.107,1.107,0,0,1-.309.073H83.86l-.145.064h0a1.38,1.38,0,0,0-.2.191.554.554,0,0,0-.064.091h0v.263a.408.408,0,0,0,.118.263.771.771,0,0,0,.272.163.844.844,0,0,0,.182.073h0l.227.064h0l.4.064h0V11.7l.082-.073h0c.4.073.744.154,1.034.236l.209.054.181.064.163.064.136.064.091.073h0a1.551,1.551,0,0,1,.236.191h0l.1.073h0a.109.109,0,0,0,.045,0h0a.145.145,0,0,1,0,.082,1.815,1.815,0,0,1,.445,1.951Zm2.622,1.343H88.56v.045h0v-.417h0v-.436h0v-.127h0V14.6h0V13.1h0v-.535h0v-.236h0v-.907h0v-.272h0V10.9h0v-.064h0v-.2h0V10.53h0v-.091h0V9.8h0V9.459h0V9.341h0V9.16h0v-.1h1.47v.662h0v.726h0v.064h0v.29h0v.054h0l.045,1.161h0v.309h0v.953l-.082,1.769a.227.227,0,0,1,0,.073h0v.145h0v.39h0Zm.145-5.58h0v-.191h0V9.3h0V9.124h0v-.1h2.9l.054,1.261h-.535l-1.388.045h-.962Zm.091,2.613h0v-.318h0v-.508h0v-.163h0v-.073h0v-.045h2.695V11.8h0v.426h0v.49h0v.172H90.583a.109.109,0,0,1-.1,0h-.145Zm2.3,2.895H90.338v-.054h0V15.5h0v-.363h0v-.653h3.049v.481h0v.082h0v.191h0v.481Zm3.629-8.765.762,1.579-.617,1.5h0v.073h0l-.5,1.216L93.723,7.073Zm.372,9.763h0l-2.459.091,3.874-9.954,2.459-.091L98.45,11.936h.027v.091h0V12.1h-.054l-1.815,4.537Zm1.815-.064h0l-.744-1.533.281-.708h0v-.054h0l.662-1.642h0l.1-.263h0V12.4l2.069,4.265Z" transform="translate(-7.522 -0.531)"/><path class="b" d="M132.127,15.292l-.272-7.422L103.1,8.941l.236,7.422Zm-27.031.163h0l-.082-2.023v-.209h0v-.154h0v-.136h0v-.191h0v-.118h0v-.581h0l-.045-1.025H106.3v.163h0V11.3h0v.581h0v.073h0v.907h0v.054h0v.272h0V13.3h0v.2h0l.073,1.878Zm10.77-2.985V11.418h2.568V11.8h0v.417h0v.145h-2.5Zm12.975-.463h-.064v-.78h0v-.272h2.414v1.071h-2.5Zm2.813,1.379h0v.29h0v.272h0v.073h0v.272h-2.686v-.272h0V13.85h0v-.2h0V13.7h0v-.236h2.777Zm-2.949-4.7h2.758V9.694h-.581l-1.2.045h-.871V8.7Zm-1.588.054h0l1.3-.054h0v.563h0v.644h0v.054h0v.245h0V11.2h0v.272h0v.617h0v.172l.054,1.379h0v.118h0v.363h0v.091h-1.08v-.381h0V13.45h0v-.127h0v-.172h0l-.054-1.234h0v-.045h0v-.463h0v-.127h0v-.789h0v-.181h0V10.1h0v-.064h0V9.721h0V9.639h0V9.095h0V8.75Zm-.717,4.065h0l.054,1.479h0v.054h0v.154h-1.234V13.133h0v-.109h0v-.091h0v-.191h0v-.054h0V11.472a.318.318,0,0,0,0-.054.325.325,0,0,1,0-.064,3.121,3.121,0,0,1,.181-.381l.145-.263a.681.681,0,0,1,.064-.109l.127-.218h0l.59-1.134h0l.064,1.76Zm-2.722-1.543h0v-.073h0a.653.653,0,0,1,.127-.227h0l.109-.2a.172.172,0,0,1,.091-.163l.1-.191h0c.073-.136.145-.254.218-.363h0l.118-.218h0c.082-.172.163-.345.254-.5s.145-.254.218-.372l.073-.118h0l1.252-.045h0a.127.127,0,0,0,0,.054.606.606,0,0,0-.054.109l-.073.118c-.054.118-.136.254-.227.426l-.263.463c-.127.281-.227.426-.29.445h0a.154.154,0,0,1,0,.064h0l-.064.118h0l-.154.3h0v.127l-.064.1-.127.191h0a2.52,2.52,0,0,1-.181.354.99.99,0,0,1-.073.136l-.091.163-.172.281c0,.064-.064.118-.091.172s-.064.118-.091.172l-.472.907c0,.082-.091.154-.127.236s-.163.281-.227.4v.082a.509.509,0,0,1-.045.073h0l-.082-2.132Zm-4.247-2.241,1.252-.045c.064.073.109.145.172.227l.082.118.154.245.245.408h0l.054.091h0a2,2,0,0,1,.309.417h0l.1.154h0a.172.172,0,0,1,.118.191h0l.109.163h0a.218.218,0,0,1,0,.091h0l.6.907.082,2.141h0a.5.5,0,0,0,0-.073l-.054-.082-.054-.091a1.732,1.732,0,0,1-.127-.191L122,12.979l-.182-.29c-.1-.145-.2-.309-.308-.481a7.157,7.157,0,0,1-.581-.907h0a1.93,1.93,0,0,1-.118-.181h0a.282.282,0,0,1,0-.073h0l-.091-.154h0l-.073-.109-.109-.181h0l-.082-.127h0V10.4h0l-.064-.073a3.188,3.188,0,0,1-.181-.3c-.336-.49-.554-.826-.662-1.007l-.045-.082a.145.145,0,0,0,0-.054Zm0,.408.817,1.189h0l.136.227h0l.073.073h0v.073h0a.281.281,0,0,1,.054.118l.118.181a.127.127,0,0,1,.073.091v.045h0v.191h0v.054h0v.154h0l.064,1.7h0l.064,1.252h-.054l-1.071.045H119.5l-.064-2.114v-1.08h0v-.236h0V11.2h0v-.1h0v-.209h0l-.054-1.47Zm-.708,4.419h0v.3h0v.272h0v.054h0V14.8h-2.74v.172h0V14.7h0v-.163h0v-.2h0v-.127h0v-.227h2.5Zm-2.94-4.673h2.659v1.053h-2.631V9.186Zm-1.57,0h1.3v.572h0V10.4h0v.064h0v.254h0v.064h0v1h0v.272h0v.49h0v.318l.054,1.388v.327h0v.39h-1.3v-.345h0v-.372h0V14.14h0v-.118h0V12.788h0v-.454h0v-.082h0v-.817h0v-.154h0V10.8h0V10.71h0v-.3h0v-.064h0v-.082a.173.173,0,0,1,0-.064V9.8h0V9.231Zm-4.083.154h0l1.134-.045c.844,0,1.27.118,1.27.318h.109a1.915,1.915,0,0,1,.209.172,1.124,1.124,0,0,1,.163.191l.109.191.082.218a2.214,2.214,0,0,1,.054.281s0,.064,0,.1v.1a2.069,2.069,0,0,1,0,.49h0a.763.763,0,0,1,0,.181h0a1.252,1.252,0,0,1-.572.653h0a.163.163,0,0,1-.064.045h-.064a.526.526,0,0,1,.363.163h0a1.152,1.152,0,0,1,.127.154.372.372,0,0,1,.064.1,1.069,1.069,0,0,1,.1.172h0v.054h0a1.252,1.252,0,0,1,.109.436h0v.209h0l.145.653h0v.091h0a.536.536,0,0,1,.073.172.217.217,0,0,1,0,.073h0v.064h0a1.866,1.866,0,0,1,.1.163h0v.045H112.3a1.961,1.961,0,0,1-.218-.445v-.064a1.016,1.016,0,0,1-.109-.345l-.091-.381a.733.733,0,0,0-.073-.372.227.227,0,0,1,0-.064.735.735,0,0,0-.154-.218l-.054-.045h0a1.1,1.1,0,0,0-.354-.127H110.3v-.39h0V11.8h.526a2.722,2.722,0,0,0,.517-.064.381.381,0,0,0,.109,0,.762.762,0,0,0,.172-.064h0a.6.6,0,0,0,.372-.608v-.236a.518.518,0,0,0,0-.127.127.127,0,0,0,0-.054l-.054-.109-.064-.082a.59.59,0,0,0-.426-.145h0a1.661,1.661,0,0,0-.517,0h-.653V9.285Zm-1.561.064h1.243l.091,2.377v.073h0v.064h0v.69h0l.1,2.559h-1.252l-.218-5.834Zm-5.263.191h4.265v.172h0v.209h0v.517h0v.064h0v.181h-2.359l-1.3.054h-.426V10.71h0v-.091h0V9.712h0Z" transform="translate(-9.55 -0.729)"/><g transform="translate(132.476 6.987)"><g class="c"><g class="c"><path class="b" d="M202.517,18.432h-6.17V17.1h-.354v1.334h-1.161a1.527,1.527,0,1,0,0,.354h1.161V20.12h.354v-1.3h6.17Zm-9.192,1.352a1.18,1.18,0,1,1,1.18-1.18,1.18,1.18,0,0,1-1.18,1.18m7.939.118a.309.309,0,1,0,.308.309.309.309,0,0,0-.308-.309m1.252.853V18.94h-2.069v1.815h-.227v.263h2.65v-.263Zm-.263-.526h-.245v-.581l-.245.245a.617.617,0,0,1,.082.318.59.59,0,0,1-.6.6.6.6,0,1,1,.3-1.116l.236-.245h-.544V19.2h.989Z" transform="translate(-150.243 -8.569)"/><path class="b" d="M180.666,7.7c.907,0,3.312.417,3.312,3.793s-2.368,3.793-3.312,3.793-3.276-.39-3.276-3.766,2.368-3.82,3.276-3.82m0,6.352c.8,0,1.815-.5,1.815-2.522s-1.025-2.513-1.815-2.513-1.815.517-1.815,2.541.971,2.5,1.815,2.5" transform="translate(-148.908 -7.7)"/><path class="b" d="M190.8,12.527c0,1.9-1.134,2.722-2.931,2.722a3.04,3.04,0,0,1-2.268-.907,2.586,2.586,0,0,1-.553-1.742V7.89h1.515v4.637a1.261,1.261,0,0,0,1.279,1.443c1.016,0,1.434-.5,1.434-1.37V7.89H190.8Z" transform="translate(-149.617 -7.718)"/><path class="b" d="M193.243,12.81c0,.408.163,1.134,1.352,1.125.7,0,1.37-.163,1.461-.907s-.508-.717-1.261-.907l-.771-.181c-1.016-.309-2.078-.508-2.078-2.087,0-.808.49-2.132,2.8-2.132s2.931,1.379,2.831,2.332h-1.434c0-.327-.245-1.043-1.552-1.043-.472,0-1.062.263-1.107.726a.617.617,0,0,0,.417.735l1.742.426c.971.245,1.933.671,1.933,1.96,0,2.169-2.25,2.35-2.876,2.341-2.5,0-2.94-1.261-2.895-2.414Z" transform="translate(-150.243 -7.702)"/><path class="b" d="M172.263,15.167H170.73V7.89h1.533v2.8h2.631V7.89h1.515v7.277h-1.524v-3.2h-2.613Z" transform="translate(-148.291 -7.718)"/><path class="b" d="M169.719,9.333V7.89h-5.5V9.333h1.987v5.825h1.434V9.333Z" transform="translate(-147.688 -7.718)"/><path class="b" d="M163.211,15.158V7.89h-1.506v4.274L159.074,7.89H157.64v7.268h1.506V10.884l2.659,4.274Z" transform="translate(-147.078 -7.718)"/><path class="b" d="M156.711,9.16h-2.967v1.515h2.749v1.279h-2.749v1.869h3v1.334H152.21V7.89h4.5Z" transform="translate(-146.575 -7.718)"/><path class="b" d="M203.08,9.16H200.1v1.515h2.758v1.279H200.1v1.869h3v1.334H198.57V7.89h4.51Z" transform="translate(-150.869 -7.718)"/><path class="b" d="M147.425,15.159H146V7.9h3.257c1.388,0,2.06,1.043,2.042,2.423a2.051,2.051,0,0,1-2.1,2.3h-1.815Zm1.452-3.729c.907,0,.907-.835.907-1.189,0-.626-.263-1-1.125-1H147.4V11.43Z" transform="translate(-146 -7.719)"/><path class="b" d="M204.15,7.84a.472.472,0,0,1,.472.481.481.481,0,1,1-.481-.481Zm0,.073a.408.408,0,1,0,.39.408.4.4,0,0,0-.39-.408Zm-.082.681h-.1V8.058h.154a.236.236,0,0,1,.163,0,.109.109,0,0,1,.054.109.145.145,0,0,1-.109.127h0c.045,0,.082,0,.091.127a.254.254,0,0,0,0,.127h-.091V8.412a.1.1,0,0,0-.118-.091h-.054Zm0-.29h.054c.073,0,.136,0,.136-.091s0-.1-.136-.1h-.054Z" transform="translate(-151.341 -7.713)"/></g></g></g><g transform="translate(195.593 7.831)"><g class="d"><g class="d"><path class="e" d="M249.922,13.5v1.143h4.7V13.5a1.679,1.679,0,0,1-1.316-.771l-2.377-4.056h-1.751l-.336.59,2.042,3.566c.272.49-.064.681-.454.671h-.508m-4.655,0v1.143h3.766V13.5h-.408c-.4,0-.7-.245-.436-.671l1.18-1.978-.744-1.207-2.06,3.212c-.408.626-.762.6-1.316.6m5.181-.7h-1.815l.553-.98h.708Zm8.593-2.967c1.3,0,1.3.563,1.3,1.134h1.216v-2.3h-2.513Zm-.29,2.849c0,.835,1.37.835,1.37.835V14.6h-4.936V13.5s1.37,0,1.37-.835V8.626h2.2Zm-2.477-2.849c-1.307,0-1.307.563-1.307,1.134h-1.216v-2.3h2.523Zm-29.1,2.8c0,.826,1.37.835,1.37.835v1.134H223.59V13.5s1.37,0,1.37-.835V10.586c0-.835-1.37-.826-1.37-.826V8.626h3.566Zm5.862.508c0,.553,0,1.633-1.6,1.633-3.012,0-.907-2.568-2.722-2.568h-1.27V10.995h1.425c.535,0,.907-.163.907-.563s-.327-.535-.907-.535h-1.425V8.626h2.3c1.27,0,2.105.626,2.105,1.651,0,.553-.272.971-.971,1.379,1,.354.853,1.053.853,1.66,0,.118,0,.309.236.309s.236-.191.236-.309v-.726h.826Zm36.758-.826v2.287H265.7V13.408h1.914c.517,0,.907-.209.907-1.1Zm-4.355,2.287h-3.575V13.5s1.379,0,1.379-.835V10.586c0-.835-1.379-.826-1.379-.826V8.626h3.575Zm.281-2.414V11.058h.272a.7.7,0,0,0,.78-.708h1.1v2.513h-1.08c0-.363-.245-.671-.78-.671Zm4.074-1.27V8.626H265.7v1.18h1.914c.517,0,.907.209.907,1.107ZM243.289,9.761V8.626h-4.7V9.761a1.67,1.67,0,0,1,1.316.78l2.368,4.056h1.751l.345-.59-2.042-3.566c-.281-.5.064-.681.454-.681Zm4.655,0V8.626h-3.766V9.761h.436c.4,0,.708.254.445.681l-1.18,1.978.69,1.152,2.06-3.212c.408-.626.762-.6,1.316-.6m-28.818,2.831c0,.826,1.37.835,1.37.835v1.134H215.56V13.5s1.37,0,1.37-.835V10.586c0-.835-1.37-.826-1.37-.826V8.626h3.566Zm.281-4c2.332,0,4.1,0,4.1,1.815s-1.769,1.815-4.1,1.815V11.194c1.007,0,1.742,0,1.742-.735s-.735-.617-1.742-.617Zm17.422,4c0,.826,1.37.835,1.37.835v1.134h-4.945V13.5s1.37,0,1.37-.835V10.586c0-.835-1.37-.826-1.37-.826V8.626H238.2V9.761s-1.379,0-1.379.826Z" transform="translate(-215.56 -8.626)"/></g></g></g></svg>