<svg xmlns="http://www.w3.org/2000/svg" width="50.711" height="27.618" viewBox="0 0 50.711 27.618"><defs><style>.a{fill:#fff;}</style></defs><g transform="translate(-592 -7.267)"><path class="a" d="M849.469,5.823C845.994.948,836.047,2.077,826.1,8.12a3.12,3.12,0,0,0-.2-.5c12.262-7.753,24.34-9.926,27.926-4.9,2.212,3.1.708,8.353-3.441,14.046a5.928,5.928,0,0,0-.642-2.426c1.265-3.338,1.271-6.353-.271-8.516" transform="translate(-212.172 7.252)"/><path class="a" d="M906.3,500.475c0,2.333,1.71,3.494,3.617,4.57l1.7.965a2.131,2.131,0,0,1,1.339,1.91c0,1.058-.781,1.715-2.039,1.715-2.318,0-3.015-1.926-3.394-3.812l-.058-.295h-1.136v5.306h.881l.108-.121c.2-.229.2-.229.4-.229a5.451,5.451,0,0,1,1.286.21,9.363,9.363,0,0,0,2.113.316c1.918,0,4.62-1.286,4.62-4.146,0-1.994-1.194-2.889-2.639-3.773l-3.17-1.878a1.962,1.962,0,0,1-1.081-1.768,1.654,1.654,0,0,1,1.863-1.539c1.016,0,2.263.376,2.9,3.315l.061.289h1.113l-.139-4.749h-.889l-.105.184a.249.249,0,0,1-.21.139,2.716,2.716,0,0,1-.445-.132,7.627,7.627,0,0,0-2.281-.455c-2.557,0-4.412,1.671-4.412,3.973" transform="translate(-290.457 -476.172)"/><path class="a" d="M3.252,260.3c0-3.754,1.763-5.088,3.27-5.088a2.674,2.674,0,0,1,2.652,2.741v6.514a2.209,2.209,0,0,1-2.244,1.45c-1.7,0-3.68-1.473-3.68-5.617m8.576-13.191-.095.034h0c-.526.187-2.6.868-4.272,1.281l-.279.068v1.163l.4-.042c.939-.1,1.294.026,1.429.147s.163.421.163.868v3.907a4.44,4.44,0,0,0-2.741-.876,6.021,6.021,0,0,0-4.546,2.3A8.285,8.285,0,0,0,0,261.24c0,6.737,5.119,6.932,5.7,6.932a4.779,4.779,0,0,0,3.475-1.307V267.9l.421.313,4.738-1.676v-1.121l-.395.032c-.921.071-1.273-.063-1.407-.187s-.16-.35-.16-.742V247.3l-.508-.2Z" transform="translate(592 -233.333)"/><path class="a" d="M1260.24,266.034c-1.292-.229-1.457-.258-1.457-2.134v-5.893c0-3.336-1.337-5.027-3.97-5.027a5.289,5.289,0,0,0-3.944,1.823v-8.113l-.481-.289-.048.018-.124.05c-.618.253-3.02.971-4.122,1.276l-.269.074v1.155l.408-.045a5.953,5.953,0,0,1,.692-.026.823.823,0,0,1,.576.168,1.258,1.258,0,0,1,.174.855v13.917c0,1.873-.116,2.036-1.547,2.186l-.329.037V267.2h6.8v-1.163l-.061-.008c-1.313-.139-1.668-.179-1.668-2.157v-6.945a4.277,4.277,0,0,1,2.857-1.628c1.289,0,1.863.873,1.863,2.831V263.9c0,1.818-.313,2.028-1.657,2.128h-.026V267.2h6.635v-1.113l-.3-.053" transform="translate(-621.025 -232.652)"/><path class="a" d="M568.829,916.69A4.454,4.454,0,0,0,573,913.857c.053-.1.01-.171-.089-.124a8.838,8.838,0,0,1-8.166,0c-.1-.047-.142.024-.089.124a4.454,4.454,0,0,0,4.172,2.833" transform="translate(42.221 -882.414)"/><path class="a" d="M598.738,773.445a3.514,3.514,0,0,0,6.553,0c.042-.082.008-.142-.079-.1a7.362,7.362,0,0,1-6.4,0c-.087-.037-.121.024-.079.1" transform="translate(9.033 -745.719)"/><path class="a" d="M630.23,644.731a2.623,2.623,0,0,0,4.914,0c.032-.06.005-.113-.068-.082a6.136,6.136,0,0,1-4.777,0c-.071-.032-.1.021-.068.082" transform="translate(-21.638 -620.415)"/><path class="a" d="M661.423,524.956a1.817,1.817,0,0,0,1.684-1.2c.024-.045,0-.087-.058-.066a4.914,4.914,0,0,1-1.626.255,4.971,4.971,0,0,1-1.628-.255.045.045,0,0,0-.058.066,1.824,1.824,0,0,0,1.686,1.2" transform="translate(-50.373 -502.645)"/><path class="a" d="M621.3,248.654a2.555,2.555,0,1,1,2.555,2.554,2.554,2.554,0,0,1-2.555-2.554" transform="translate(-12.955 -232.36)"/><path class="a" d="M1868.192,980.684a.792.792,0,1,1,.792-.792.792.792,0,0,1-.792.792m0-1.518a.726.726,0,1,0,.726.726.726.726,0,0,0-.726-.726" transform="translate(-1226.273 -946.076)"/><path class="a" d="M1887.6,992.7h.311q.276,0,.276.234a.225.225,0,0,1-.058.166.264.264,0,0,1-.147.074l.234.363h-.14l-.231-.363h-.126v.363h-.121Zm.121.363h.145a.342.342,0,0,0,.15-.024c.031-.016.047-.051.047-.105a.1.1,0,0,0-.05-.095.269.269,0,0,0-.137-.029h-.155Z" transform="translate(-1245.941 -959.318)"/></g></svg>