<svg xmlns="http://www.w3.org/2000/svg" width="110.125" height="36.077" viewBox="0 0 110.125 36.077"><defs><style>.a{fill:#fff;}</style></defs><g transform="translate(-268.086 -1436.514)"><path class="a" d="M80.986,22.794a7.233,7.233,0,0,0-1.375-2.037,9.194,9.194,0,0,0-4.457-2.267,12.963,12.963,0,0,1-4.431-1.554,1.783,1.783,0,0,1-.688-1.528,1.706,1.706,0,0,1,.815-1.477,4.941,4.941,0,0,1,4.686,0,8.914,8.914,0,0,1,2.547,1.477l2.267-5.093a15.281,15.281,0,0,0-3.693-1.706,11.613,11.613,0,0,0-10.8,1.757c-3.183,2.827-3.642,8.71.2,11.206a16.121,16.121,0,0,0,4.355,1.757c1.681.433,4.686,1.248,4.151,3.285s-4.3,1.63-6.29.891A12.352,12.352,0,0,1,64.2,24.959a9.779,9.779,0,0,1-2.063,5.756,15.943,15.943,0,0,0,6.52,3.438,10.9,10.9,0,0,0,10.187-1.986,8.379,8.379,0,0,0,2.7-6.418,7.436,7.436,0,0,0-.56-2.878" transform="translate(296.661 1437.94)"/><path class="a" d="M59.3,20.9,44.07,8.5V33.4h6.6l-.025-11.919L66.3,33.277V8.37h-7Z" transform="translate(268.711 1438.535)"/><path class="a" d="M75.269,23.727V8.446h-6.7v14.9c0,2.827-1.324,4.457-4.177,4.457s-4.151-1.63-4.151-4.457V8.37H53.52V23.65c0,6.749,4.61,10.187,10.875,10.187a10.722,10.722,0,0,0,9.041-3.871s.458-.688.891-1.5a11.053,11.053,0,0,0,.942-4.686" transform="translate(283.328 1438.535)"/><path class="a" d="M61.34,17.743a8.047,8.047,0,0,0,.891-1.5c-.433.815-.815,1.375-.891,1.5" transform="translate(295.424 1450.708)"/><path class="a" d="M42.946,27.9V23.65H53.8V18.022H42.946V14H53.923V8.37H39.865L36.35,15.246V33.4h17.7V27.9Z" transform="translate(256.771 1438.535)"/><path class="a" d="M40.3,25.326,34.491,14.681H26.52l13.6,25.085L58.176,4.29H51.02Z" transform="translate(241.566 1432.224)"/></g></svg>