<svg xmlns="http://www.w3.org/2000/svg" width="151.649" height="30.537" viewBox="0 0 151.649 30.537"><defs><style>.a,.b{fill:#fff;}.b{font-size:12px;font-family:Helvetica;}.c{letter-spacing:0.01em;}.d{letter-spacing:-0.01em;}</style></defs><g transform="translate(-322.735 -1458.304)"><g transform="translate(366.646 1458.304)"><path class="a" d="M79.594,82.75c0-4.152,1.946-5.627,3.61-5.627a2.959,2.959,0,0,1,2.935,3.029v7.2a2.441,2.441,0,0,1-2.48,1.57c-1.876,0-4.065-1.625-4.065-6.2m9.473-14.543h-.1c-.581.212-2.872.965-4.709,1.421l-.306.071v1.287l.447-.047c1.036-.11,1.428,0,1.57.165a1.541,1.541,0,0,1,.181.957v4.316a4.9,4.9,0,0,0-3.029-.965A6.663,6.663,0,0,0,78.1,77.915a9.222,9.222,0,0,0-2.1,5.87c0,7.44,5.658,7.66,6.278,7.66a5.274,5.274,0,0,0,3.861-1.436v1.154l.463.345,5.235-1.852V88.439H91.4c-1.012.078-1.4-.071-1.57-.2s-.173-.385-.173-.785V68.38l-.565-.22Z" transform="translate(-76 -60.971)"/><path class="a" d="M99,70.943a2.825,2.825,0,1,1,2.817,2.817A2.825,2.825,0,0,1,99,70.943" transform="translate(-80.949 -60.961)"/><path class="a" d="M102.305,79.805a2.009,2.009,0,0,0,1.86-1.318c0-.055,0-.1-.063-.078a5.855,5.855,0,0,1-3.594,0c-.071,0-.094,0-.071.078a2.025,2.025,0,0,0,1.868,1.318" transform="translate(-81.257 -63.175)"/><path class="a" d="M99.355,82.972a2.9,2.9,0,0,0,5.423,0c0-.063,0-.126-.071-.086a6.8,6.8,0,0,1-5.282,0c-.078-.039-.11,0-.071.086" transform="translate(-81.022 -64.137)"/><path class="a" d="M98.2,87.775a3.885,3.885,0,0,0,7.244,0c.047-.086,0-.157-.086-.11a8.139,8.139,0,0,1-7.063,0c-.094-.047-.133,0-.086.11" transform="translate(-80.774 -65.165)"/><path class="a" d="M101.548,96.095c2.472,0,3.728-1.428,4.607-3.139.055-.118,0-.2-.1-.141a9.74,9.74,0,0,1-9.017,0c-.11-.055-.157,0-.1.141.879,1.7,2.135,3.139,4.615,3.139" transform="translate(-80.5 -66.272)"/><path class="a" d="M132.63,65.428c-3.846-5.392-14.833-4.144-25.82,2.535a3.084,3.084,0,0,0-.22-.549c13.546-8.57,26.888-10.987,30.851-5.415,2.441,3.43.785,9.229-3.806,15.516a6.584,6.584,0,0,0-.706-2.684c1.4-3.681,1.4-7.016-.3-9.418" transform="translate(-82.583 -59)"/><path class="a" d="M109.57,81.786c0,2.582,1.884,3.861,3.995,5.046L115.44,87.9a2.354,2.354,0,0,1,1.483,2.111c0,1.169-.863,1.9-2.26,1.9-2.558,0-3.328-2.127-3.744-4.214l-.063-.322H109.6v5.863h.973l.118-.133c.228-.259.228-.259.447-.259a6.279,6.279,0,0,1,1.421.235,10.148,10.148,0,0,0,2.354.353c2.119,0,5.1-1.428,5.1-4.583,0-2.205-1.318-3.194-2.912-4.167l-3.524-2.111a2.166,2.166,0,0,1-1.193-1.954,1.821,1.821,0,0,1,2.056-1.7c1.122,0,2.5.416,3.194,3.665l.071.314h1.232l-.157-5.243H117.8l-.118.2a.275.275,0,0,1-.235.149,4.144,4.144,0,0,1-.479-.149,8.358,8.358,0,0,0-2.519-.5c-2.825,0-4.874,1.844-4.874,4.387" transform="translate(-83.224 -62.951)"/><path class="a" d="M138.092,89.824c-1.421-.251-1.609-.283-1.609-2.354V80.964c0-3.689-1.475-5.556-4.387-5.556a5.839,5.839,0,0,0-4.356,2.041V68.454l-.534-.314h-.047l-.141.055c-.683.283-3.335,1.075-4.552,1.413l-.3.086v1.271l.455-.047a5.988,5.988,0,0,1,.785,0,.863.863,0,0,1,.636.188,1.358,1.358,0,0,1,.188.942V87.407c0,2.064-.126,2.245-1.711,2.417h-.361v1.248h7.511v-1.24h-.063c-1.452-.157-1.844-.2-1.844-2.354V79.8a4.692,4.692,0,0,1,3.139-1.8c1.428,0,2.064.965,2.064,3.139v6.381c0,2.009-.353,2.237-1.836,2.354h0v1.287h7.33V89.887l-.337-.063" transform="translate(-85.933 -60.967)"/><path class="a" d="M149.656,84.2c0-.455,0-.879-.039-1.279s-.047-.785-.047-1.083h1.7v1.617h.047a2.763,2.763,0,0,1,.51-.706,3.641,3.641,0,0,1,.785-.6,4.1,4.1,0,0,1,1.036-.424,5.015,5.015,0,0,1,2.692,0,3.633,3.633,0,0,1,.973.487,2.535,2.535,0,0,1,.612.62,6.826,6.826,0,0,1,.353.589,4.709,4.709,0,0,1,1.381-1.4,3.712,3.712,0,0,1,2.017-.5,5.494,5.494,0,0,1,1.923.29,3.068,3.068,0,0,1,1.318.871A3.218,3.218,0,0,1,165.6,84a6.922,6.922,0,0,1,.2,1.734v6.043h-1.774V85.82a4.269,4.269,0,0,0-.118-1,2.127,2.127,0,0,0-.408-.871,2.2,2.2,0,0,0-.785-.62,3.069,3.069,0,0,0-1.287-.235,2.708,2.708,0,0,0-2.558,1.734,3.139,3.139,0,0,0-.22,1.209v5.745h-1.789V86.157a4.246,4.246,0,0,0-.479-2.354,1.789,1.789,0,0,0-1.57-.7,3.626,3.626,0,0,0-1.5.283,2.6,2.6,0,0,0-1.036.785,3.453,3.453,0,0,0-.6,1.216,5.909,5.909,0,0,0-.2,1.57v4.858H149.7Z" transform="translate(-91.831 -63.846)"/><path class="a" d="M171.67,86.1a5.078,5.078,0,0,1,.439-2.127,4.991,4.991,0,0,1,1.193-1.648,5.344,5.344,0,0,1,1.813-1.075,7.024,7.024,0,0,1,4.583,0,5.345,5.345,0,0,1,1.813,1.075,4.968,4.968,0,0,1,1.625,3.775,5.055,5.055,0,0,1-.432,2.127,4.945,4.945,0,0,1-1.193,1.648,5.219,5.219,0,0,1-1.813,1.075,7.024,7.024,0,0,1-4.583,0,5.219,5.219,0,0,1-1.813-1.075,4.834,4.834,0,0,1-1.193-1.648,5.054,5.054,0,0,1-.439-2.127m1.931,0a4.018,4.018,0,0,0,.259,1.46,3.375,3.375,0,0,0,.785,1.169,3.657,3.657,0,0,0,1.209.785,4.387,4.387,0,0,0,3.139,0,3.618,3.618,0,0,0,1.2-.785,3.265,3.265,0,0,0,.785-1.169,4.128,4.128,0,0,0,0-2.92,3.406,3.406,0,0,0-.785-1.169,3.618,3.618,0,0,0-1.2-.785,4.387,4.387,0,0,0-3.139,0,3.657,3.657,0,0,0-1.209.785,3.524,3.524,0,0,0-.785,1.169,4.018,4.018,0,0,0-.259,1.46m4.607-7.919h2.527l-3.312,2.041h-1.57Z" transform="translate(-96.587 -63.128)"/><path class="a" d="M192.207,91.881h-1.97L185.85,81.93h2.088l3.351,7.809h.047l3.186-7.809h1.931Z" transform="translate(-99.639 -63.935)"/><path class="a" d="M200.53,78.667a1.13,1.13,0,0,1,.385-.848,1.35,1.35,0,0,1,1.852,0,1.1,1.1,0,0,1,.385.848,1.146,1.146,0,0,1-.369.871,1.46,1.46,0,0,1-1.884,0,1.146,1.146,0,0,1-.369-.871m.416,2.354h1.789v9.9h-1.789Z" transform="translate(-102.797 -62.971)"/><rect class="a" width="1.789" height="15.147" transform="translate(101.963 12.8)"/><path class="a" d="M211.295,77.834a1.279,1.279,0,1,1,.907-.377,1.287,1.287,0,0,1-.907.377m0-2.441a1.154,1.154,0,1,0,1.146,1.154,1.154,1.154,0,0,0-1.146-1.154" transform="translate(-104.835 -62.499)"/><path class="a" d="M211.11,76h.5q.447,0,.447.377a.377.377,0,0,1-.086.275.424.424,0,0,1-.243.118l.385.589h-.228l-.377-.589h-.2v.589h-.2Zm.2.589h.235a.6.6,0,0,0,.243-.039.18.18,0,0,0,.078-.173.157.157,0,0,0-.078-.149.369.369,0,0,0-.22-.055h-.259Z" transform="translate(-105.074 -62.659)"/></g><text class="b" transform="translate(322.735 1472.593)"><tspan class="c" x="0" y="0">I</tspan><tspan y="0">nclu</tspan><tspan class="d" y="0">y</tspan><tspan y="0">e</tspan></text></g></svg>