<svg xmlns="http://www.w3.org/2000/svg" width="449" height="51.485" viewBox="0 0 449 51.485"><defs><style>.a,.b{fill:#fff;}.b{font-size:10px;font-family:AkzidenzGrotesk-Black;font-weight:800;}.c{fill:red;}</style></defs><g transform="translate(344.264 19.253)"><path class="a" d="M310.553,18.07v7.572h-7.93V18.07H298.26V37.611h4.363V29.174h7.93v8.438h4.236V18.07Z" transform="translate(-298.26 -17.054)"/><path class="a" d="M366.525,17.28c2.643,0,9.6,1.154,9.6,10.388s-6.925,10.388-9.6,10.388S356.91,36.9,356.91,27.668s6.925-10.388,9.615-10.388m0,17.244c2.251,0,5.425-1.374,5.425-6.925s-3.174-6.925-5.425-6.925-5.436,1.374-5.436,6.925,3.174,6.925,5.436,6.925" transform="translate(-289.214 -17.176)"/><path class="a" d="M358.564,26.62h-9.038v3.59h4.617a5.136,5.136,0,0,1-5.148,4.317c-2.251,0-5.436-1.374-5.436-6.925s3.186-6.925,5.436-6.925a5.148,5.148,0,0,1,5.159,4.363H358.4c-1.154-6.925-7.018-7.849-9.407-7.849-2.643,0-9.615,1.154-9.615,10.388s6.925,10.388,9.615,10.388,9.6-1.154,9.6-10.388V26.539" transform="translate(-291.918 -17.19)"/><path class="a" d="M327,18v.45a7.964,7.964,0,0,1,3.093,3.151h2.228V37.5h4.236V21.555h5.183V18Z" transform="translate(-293.827 -17.065)"/><path class="a" d="M322.993,17.28c2.643,0,9.615,1.154,9.615,10.388s-6.925,10.388-9.615,10.388-9.6-1.154-9.6-10.388,6.925-10.388,9.6-10.388m0,17.244c2.308,0,5.436-1.374,5.436-6.925s-3.186-6.925-5.436-6.925-5.425,1.374-5.425,6.925,3.174,6.925,5.425,6.925" transform="translate(-295.926 -17.176)"/><path class="a" d="M375.116,18a12.5,12.5,0,0,1,4.178,9.234,15.617,15.617,0,0,1-4.225,10.123l16.079-9.823Z" transform="translate(-286.413 -17.065)"/></g><text class="b" transform="translate(344.991 8)"><tspan x="0" y="0">Con acceso a</tspan></text><g transform="translate(198.299 13.92)"><path class="a" d="M229.247,32.1l.173,4.617-3.278.115h0l-.185-5.044V31.28h0v-.392h0v-.312h0v-.462h0v-.289h0v-1.4h0l-.115-2.528H228.9v.4h0v.289h0L228.958,28h0v.069h0v.081h0l.081,2.216h-.058v.8h0v.369h.058v.508h0v.092Zm3.382-7.491v-.162h0v-1.27h0V22.67h0V22.3H230.9l-1.881.069h-1.35a.081.081,0,0,0-.069,0h-.162l-2.851.1h-2.332v.058h.069l.058,2.228h0v.219h0v.185h.889l.231-.058h0v-.058h.254a.323.323,0,0,0,.2,0l3.186-.115.427-.058h2.1l2.308-.081h.981v-.185Zm5.6,5.379h0V28.3h0l-.058-.139h0v-.185l-.219-5.771h-.623l-2.412.092h0l.531,14.243h3.013l-.231-6.233Zm9.015,6.371-.115.1.115.1h.254l.1-.1-.115-.092Zm5.771-6.8a.45.45,0,0,0,.2,0h.485l1.339-.058h3.6v-.081h0v-.542h0V27.864h0v-.935h0v-.092h-.2l-.069-.058-2.031.081h-2.02l-.335.058h-1.131a.462.462,0,0,0-.173,0h-.127v2.574h.254Zm6.6,5.148h0l.092-.127v-.058h0v-.669h-.058v-.208l.081-.127v-.4h0v-.058h-.658v.069h-.531a.854.854,0,0,0-.254-.058h-.854v.058h-.681l-1.743.069h-2.078v.566h0v.312h0v.542h0V35h0v.658h0v.173H259.6l.092-.092v-.658Zm8.426-7.964h-.092v-.1a.15.15,0,0,0,0-.069.692.692,0,0,0-.092-.219l-.058-.069V26.2l-.081-.081-.081-.081h0l-.265-.4h0a.45.45,0,0,0-.3-.462h0l-.254-.381h0v-.1a5.655,5.655,0,0,0-.75-1.016h0l-.15-.231h0c-.2-.346-.392-.681-.589-.993l-.392-.612-.2-.289c-.139-.2-.265-.381-.4-.554l-3.07.115h0a.474.474,0,0,0,.069.127,1.155,1.155,0,0,0,.1.2c.265.462.808,1.281,1.627,2.482a6.3,6.3,0,0,0,.439.716,1.291,1.291,0,0,0,.15.185.472.472,0,0,0,.115.1l.115.185h0l.2.312h0l.265.439.162.265h.092l.242.369h0a.393.393,0,0,0,.058.162v.069a4.477,4.477,0,0,0,.289.45h0a20.446,20.446,0,0,0,1.42,2.193l.75,1.154.462.7c.427.669.808,1.258,1.154,1.754.1.173.2.323.3.473l.138.208a1.155,1.155,0,0,1,.127.2l.127.173h0l-.2-5.217Zm6.925-.843.381-.739h-.081l.162-.289h0a.15.15,0,0,0,.115-.081h0a.312.312,0,0,0,0-.15v-.058h0c.15,0,.381-.4.693-1.1.242-.416.462-.785.646-1.154l.566-1.039.162-.3.127-.265a1.077,1.077,0,0,0,.058-.115.287.287,0,0,0,0-.081h0l-3.059.115h0l-.185.277c-.185.289-.358.589-.531.912s-.415.8-.623,1.235h0l-.3.542h0a5.977,5.977,0,0,0-.531.9v.058h0l-.266.473a.45.45,0,0,0-.219.392l-.266.473h0a1.316,1.316,0,0,0-.289.542h0l-.1.185h-.058l-1.223,2.332.185,5.229h0a.807.807,0,0,1,.1-.2l.1-.2c.162-.289.346-.612.542-.981.1-.185.219-.369.323-.577.335-.612.727-1.316,1.154-2.124l.219-.4.231-.427.4-.693.231-.392.185-.335a6.928,6.928,0,0,0,.439-.877h-.069l.312-.473.15-.254.069-.127a1.151,1.151,0,0,0,.081-.185.126.126,0,0,0,0-.058m3.313,8.541v-.127a.081.081,0,0,0,.069-.069l.035-3.636a.085.085,0,0,0-.081-.081v-.092a.058.058,0,0,0,.058,0h0l-.162-4.455-.162-4.294h-.115l-1.42,2.77h0v.081h0c-.1.2-.219.369-.312.542l-.138.254c-.139.231-.266.45-.369.646a6.565,6.565,0,0,0-.439.935.633.633,0,0,0-.058.15.857.857,0,0,0,0,.139v3.163h0v.462h0v.219l-.081.092V31.4h0v.277l.069,1.939V35l.058.058h.785l.185-.058h.323l1.685-.058.1-.115v-.358Zm5.413,0v-.669l-.058-.208h0v-.289h0v-.058a.254.254,0,0,0,0-.092h0l-.127-3.382V29.33h0V27.783h0v-.646h0l-.092-2.459a.058.058,0,0,0,0-.069h0v-.115h0v-.6h0v-.439h0l-.058-1.57h0V21.8h0V20.43h0l-3.174.115h0l.058.358h0v.981h0v1.339h0v.208h0v.762h0v.15h0v.508h0v.439h0v.069l.069,1.916h0v.312h0V28.8h0v.127h0l.115,3.013h0v.427h0v.058h0v.3h0v.912h0v.935h.058l.069-.081,2.516-.058h.542v-.219h0Zm.819-6.014h.854l1.327-.058h1.512l2.228-.058V25.682h-.3l-.069-.069-2.043.081H287.8l-.069.058h-.277l-.265-.058h-.877l-.242.058h-.323l-.242.058h-.727l-.058-.058h0v.012h-.369a.381.381,0,0,0-.2,0h0v.658h0v1.962h.5m1.4-5.6h.058l.127.081,2.92-.1v-.081h.092v.069h1.316l.115-.1-.092-2.459-.115-.092h0l-1.835.069h-4.813l.069,2.551h.092l.1.092,1.893-.069ZM291.3,33.67v-.323h0v-.669h0v-.265h0v-.4H288.39l-1.731.069h-2.078v.577h-.058v.312h.058v.508l-.069.058v.312h.092V34.5h.058v.1h4.328l2.055-.081h.058ZM181.265,37.825a.208.208,0,0,0-.081-.058h0V36.705h0v-.3a.138.138,0,0,0,.092-.058h0v-.462a.162.162,0,0,0,0-.069h0a.646.646,0,0,0-.289-.069h-.346v.081h-.115v-.115h0a4.617,4.617,0,0,1-1.35-.5l-.254-.139h0l-.162-.173a3.461,3.461,0,0,1-.427-.716,1.4,1.4,0,0,0,0-.346.231.231,0,0,0-.081-.15h0a.138.138,0,0,0-.1,0v-.069l.115-.173v-.058h0l-.392.058h-1.016a.162.162,0,0,0-.115.058v.058h-.081v-.058h-.8l-.323.127h-.485l-.058.058v-.058h-.058l-.092.092h0a2.135,2.135,0,0,0,.081.589h0a2.724,2.724,0,0,0,.15.7v.231a1.153,1.153,0,0,0,.15.4,4.618,4.618,0,0,0,.577,1.05,4.49,4.49,0,0,0,1.154,1.073h-.312l.4.254h0a5.448,5.448,0,0,0,2.239.7h.946v-.069a3.74,3.74,0,0,0,.612,0h.277l.115-.127-.092-.081v-.127c.069,0,.1,0,.115-.069v-.346a.647.647,0,0,1-.058-.092m.219-13.47v.519a3.832,3.832,0,0,1,1.778.566l.138.115a.8.8,0,0,1,.127.15h0a3.232,3.232,0,0,1,.381.75,2.1,2.1,0,0,1,.081.289,2.922,2.922,0,0,0,.115.485h0l1.581-.219v.058l1.916-.3h0v-.162h0v-.069a12.921,12.921,0,0,0-.392-1.431v-.15a1.154,1.154,0,0,0-.3-.531h0a.208.208,0,0,0,0-.069A3.67,3.67,0,0,0,185.9,23.2a7.1,7.1,0,0,0-4.4-1.258h0v.069l.069,1.812Zm5.771,6.256-.069-.081-.1-.058h0l-.1-.115h0l-.231-.185h0a4.108,4.108,0,0,0-.577-.45h0l-.219-.173-.358-.162-.381-.15-.462-.15-.5-.15c-.7-.2-1.547-.381-2.539-.554h0l-.208.173v-.173h0a9.234,9.234,0,0,1-.993-.173h0l-.554-.15h0a4.086,4.086,0,0,1-.45-.162,2.228,2.228,0,0,1-.646-.416.877.877,0,0,1-.3-.646v-.623a.323.323,0,0,1,0-.1v-.1a1.926,1.926,0,0,1,.15-.231,5.124,5.124,0,0,1,.5-.462h0l.346-.15h0a5.61,5.61,0,0,0,.589-.081,2.112,2.112,0,0,0,.75-.173h0l-.092-2.782h0l-1.016.081a6.822,6.822,0,0,0-3.867,1.731,3.324,3.324,0,0,0-.5.646l-.1.173a4.455,4.455,0,0,0-.485,2.308V27.3a4.19,4.19,0,0,0,.473,1.9,3.161,3.161,0,0,0,.335.531l.277.323a7.087,7.087,0,0,0,4.271,1.778h.242c0,.092.392.2,1.085.3h0l1.235.277.312.127h0a2.874,2.874,0,0,1,.946.5h0l.4.5h0a1.154,1.154,0,0,1,0,.289h0a1.858,1.858,0,0,1-.935,1.743h-.139l-.208.185h0l-.173.069h-.473s-.069.058-.069.1h-.554v.069h0v.335h0v.265h0v.346h0v.2h0v.173h0v1.35a7.571,7.571,0,0,0,1.085-.1h.081a4.121,4.121,0,0,0,.773-.15h.092a8.138,8.138,0,0,0,1.016-.346h.115a4.028,4.028,0,0,0,1.154-.669h0l.231-.2.219-.185h0l.139-.115a.577.577,0,0,0,.15-.219,2.118,2.118,0,0,0,.15-.185h0a2.309,2.309,0,0,0,.416-.681h0c0-.069.058-.127.081-.2a.819.819,0,0,0,.139-.346L187.74,35h0a4.536,4.536,0,0,0-.646-4.121.266.266,0,0,0-.069-.185M194.158,38V37.04h0v-.2h0v-.058h0v-.4h0a.37.37,0,0,0,0-.185l-.127-3.924-.081-.519v-1.8h.011v-.762h.081l-.1-2.851h0V26.2h.092v-.716h-.092v-.3h.092l-.242-1.731h0v-.092h.1v-1.6h0l-.127-.115-2.02.069h-.427l-.162.058h-.139v-.162h-.831l-.058.069v.231h0v.716h0v.623h0V24.8h0v.242h0v.289h0v.589h0V26.1h0v.6h0v.508h0l.081,2.308h0v.346h0v1.316h0v.358a.1.1,0,0,0,0,.081l.115,3.463v.542h0v.323h0v1.062a.092.092,0,0,0,0,.081h0V38.1h0v.058l.1-.115,2.851-.069h0l.139.081h.542l.081-.081h.231v-.242h0Zm.9-6.983h0c.127,0,.208,0,.242-.081h.542a.173.173,0,0,0,.092.058l1.558-.058.208-.069h.877l.173-.058h2.839V29.433l-.069-.4h.081V27.991h-.069v-.139h-.277l-2.378.081h-4.155v.115h0v.023h0v.185h0v.392h-.069V29.9h0v.7h0v.115h.1V30.8h.346Zm1.639-6.429.092-.069h.15l.1.069,3.393-.115V24.4h.115v.069h1.293l-.115-3.093h0l-1.881.058v.058H198.2v.058h-.993l-.069.058h-1.062v.058h-.162l-.069-.069h-1.42l-.092.081h0v.242h0v.173h0l.058,1.847h0v.092h0v.462h0l.069.069h0l2.2-.069Zm12.824-.185h-.092l.081-.2h.081l1.685-3.728-1.87-3.867-6,.219,5.067,10.457Zm5.033,4.986h.127V29.11h-.069l.1-.242h.162v-.081l.115-.081h-.219l4.963-12.558-6,.231-9.592,24.239,6-.219h0l4.421-11.15Zm.912.542h0v.092h0l-.254.658h0v.081h0l-1.6,3.994h0v.15h0l-.681,1.72,1.812,3.67h0l6-.219-5.056-10.388Zm-13.193,6.925V36.37h0v-.219h0v-1.27H199.4l-2.055.058h-2.4v1.8h0v.889h0v.485h0v.127h5.517l1.951-.069v-.935Zm44.738-.831h0l.092-.092-.265-.392h0l-.081-.058h0a1.4,1.4,0,0,0-.058-.162l.058-.058a.242.242,0,0,0-.058-.162,1.706,1.706,0,0,0-.173-.439h-.058a1.348,1.348,0,0,1-.058-.231h.081l-.358-1.57h-.058v-.508h0a2.608,2.608,0,0,0-.277-1.073h0V31.1h0l-.231-.416-.173-.254a3.46,3.46,0,0,0-.3-.369l-.1-.1a1.223,1.223,0,0,0-.889-.369v-.358h.369a.473.473,0,0,0,.15-.092.243.243,0,0,0,0-.069h.092a3.059,3.059,0,0,0,1.385-1.593h0a2.692,2.692,0,0,0,.127-.45h0a4.931,4.931,0,0,0,.092-1.154,1.79,1.79,0,0,0,0-.254v-.254a4.323,4.323,0,0,0-.15-.693,2.713,2.713,0,0,0-.2-.508,2.746,2.746,0,0,0-.265-.473,2.655,2.655,0,0,0-.4-.485,3.463,3.463,0,0,0-.5-.4h-.254q0-.7-3.116-.762l-2.759.1h0V22.2l.092,2.516h0l.1.092,1.593-.058a4.271,4.271,0,0,1,1.27,0h0a1.258,1.258,0,0,1,1.154.554,1.742,1.742,0,0,1,.127.254.7.7,0,0,1,.058.138,2.456,2.456,0,0,1,.092.312.889.889,0,0,1,0,.173v.416a1.489,1.489,0,0,1-.912,1.477h-.092a3.047,3.047,0,0,1-.427.15,1.628,1.628,0,0,1-.254.069,6.671,6.671,0,0,1-1.27.162h-1.281v.058h0v1.27h0v.092a.115.115,0,0,0-.081,0h0v.935h0l.081.069h.185l.866-.092h1.189a2.632,2.632,0,0,1,.877.3h0l.127.1a1.87,1.87,0,0,1,.381.531.9.9,0,0,0,0,.162c.058.335.127.635.185.912s.138.681.2.923c.139.577.231.854.277.854v.162a7.526,7.526,0,0,0,.519,1.085.2.2,0,0,0,.069.069h3.278a.439.439,0,0,1-.115-.1m5.1-1.039v-.8l-.127-3.393v-.785h0V28.614h0v-.658h0l-.092-2.447h0v-.162h0v-.612h0v-.127h0l-.058-1.581h0v-.1h0V21.538h0v-.069h-.115l-1.731.069h-1.374l.058.358v1.016h.092v.946h0a.289.289,0,0,0,0,.15v.208h-.081v.392h.092l-.081.312v.4h.081v.15h-.081v.508h0l.081.069h0v.381h-.081l.081,1.985.069.069h0v.208l-.069.069v1.154a.092.092,0,0,0,.081.081v.081a.081.081,0,0,0-.058,0h0l.115,3.013v.381h0V33.6h0v.265h0v.912h0v.854h3.093v-.946Zm.2-10.873h0l.081.058,1.893-.069.081-.069h.127l.092.058,2.92-.1v-.058h1.42l.115-.1-.092-2.459-.115-.092-1.847.069H252.17l.081,2.551Zm12.3,8.184-.012-3.982h0v-.092h0V27.61h0l-.058-.139h0v-.265h0a.277.277,0,0,0,0-.092.3.3,0,0,0-.185-.219l-.289-.439a.542.542,0,0,0-.127-.3l-.115-.115h0l-.219-.277h0l-.162-.2h0l-.358-.531h0l-1.847-2.9h-.1l.127,3.59h0v.566h0v.242h0v.081h0v.462h0v.554h0l.092,2.412v.208l.162,5.183h.693l2.632-.1h.127l-.15-3.07Zm-41.749,7.9.115,3.948-21.146.9-.139-3.463-29.087.97L171.8,19.334l28.983-.97-.185-5.113,21.377-.681.231,7.341L292.43,17.3l.8,20Zm-.843,3.059-.127-3.959,70.409-2.62L291.587,18.3,221.352,20.9l-.231-7.353-19.553.669.185,5.113-28.995.97.7,21.088,29.087-.97.127,3.463Z" transform="translate(-171.8 -12.57)"/></g><line class="c" y2="34.685" transform="translate(48.12 12.235)"/><rect class="c" width="0.439" height="34.685" transform="translate(47.901 12.235)"/><line class="c" y2="34.685" transform="translate(182.982 12.235)"/><rect class="c" width="0.439" height="34.685" transform="translate(182.763 12.235)"/><line class="c" y2="34.685" transform="translate(330.609 12.235)"/><rect class="c" width="0.439" height="34.685" transform="translate(330.39 12.235)"/><path class="a" d="M16.863,45.611a1.466,1.466,0,0,0,.508-.231,1.154,1.154,0,0,0,.358-.4,1.235,1.235,0,0,0,.139-.589,1.258,1.258,0,0,0-.208-.727,1.154,1.154,0,0,0-.623-.416,1.073,1.073,0,0,0,.462-.369.981.981,0,0,0,.15-.566,1.154,1.154,0,0,0-.1-.531.843.843,0,0,0-.289-.346,1.293,1.293,0,0,0-.462-.185,2.966,2.966,0,0,0-.577-.058H14.128v4.5h2.147a2.413,2.413,0,0,0,.589-.081Zm-1.778-3.647H16.24a.969.969,0,0,1,.219.081.4.4,0,0,1,.15.162.439.439,0,0,1,.058.254.473.473,0,0,1-.173.416.693.693,0,0,1-.427.127h-1Zm0,2.955V43.672h1.073a.8.8,0,0,1,.519.15.589.589,0,0,1,.2.5.716.716,0,0,1,0,.289.473.473,0,0,1-.162.173.831.831,0,0,1-.231.1h-.277Zm-3.174-1.962-1.05-1.778H9.707l1.651,2.747V45.68h.981V43.949l1.512-2.424v-.346h-.9Zm20.776-1.778-1,3.163h0l-.993-3.163H26.548l-.5.831h1.766v3.67h.993V42.01h1.154l1.154,3.67h1.154l1.5-4.5Zm-7.722,0-1.05,1.778-1.05-1.778H21.711l1.651,2.747V45.68h.993V43.949l1.662-2.77ZM7.849,44.641h1.7l.346,1h1.027L9.234,41.179H8.218l-1.385,3.67H4.721v-3.67H3.728v4.5H7.514Zm.843-2.389h0L9.257,43.9H8.08Zm12.985-.531a1.9,1.9,0,0,0-.693-.5,2.216,2.216,0,0,0-.935-.185,2.158,2.158,0,0,0-.923.185,2.055,2.055,0,0,0-.7.5,2.4,2.4,0,0,0-.427.75,2.736,2.736,0,0,0-.15.935,2.678,2.678,0,0,0,.15.923,2.309,2.309,0,0,0,.427.739,2.216,2.216,0,0,0,.7.5,2.309,2.309,0,0,0,.923.173,2.412,2.412,0,0,0,.958-.127,2.043,2.043,0,0,0,.693-.5,2.308,2.308,0,0,0,.439-.739,2.978,2.978,0,0,0,.15-.923,3.047,3.047,0,0,0-.15-.935,2.424,2.424,0,0,0-.439-.762ZM21.2,43.96a1.12,1.12,0,0,1-1.154.958,1.235,1.235,0,0,1-.566-.127,1.362,1.362,0,0,1-.381-.346,1.535,1.535,0,0,1-.208-.485,2.147,2.147,0,0,1-.069-.554,2.309,2.309,0,0,1,.069-.566,1.6,1.6,0,0,1,.208-.5A1.085,1.085,0,0,1,19.484,42a1.235,1.235,0,0,1,.566-.127,1.154,1.154,0,0,1,.566.127.923.923,0,0,1,.381.346,1.154,1.154,0,0,1,.208.5,2.309,2.309,0,0,1,.069.566,2.147,2.147,0,0,1-.046.589Zm-20.211.1H2.031a1.893,1.893,0,0,0,.716-.127,1.327,1.327,0,0,0,.485-.323,1.154,1.154,0,0,0,.265-.462,1.662,1.662,0,0,0,.092-.531,1.6,1.6,0,0,0-.127-.473,1.154,1.154,0,0,0-.265-.462,1.327,1.327,0,0,0-.485-.323A1.893,1.893,0,0,0,2,41.236H0v4.5H.993Zm0-2.112h.762a1.581,1.581,0,0,1,.335,0,.716.716,0,0,1,.277.092.462.462,0,0,1,.185.208.785.785,0,0,1,0,.693.462.462,0,0,1-.185.208.716.716,0,0,1-.277.092,1.581,1.581,0,0,1-.335,0H.993Z" transform="translate(0 5.741)"/><path class="a" d="M16.813,25.88a2.4,2.4,0,0,0-2.089.462,2.308,2.308,0,0,0-.716,2.251,2.447,2.447,0,0,0,1.778,1.766,2.3,2.3,0,0,0,2.459-3.451,2.643,2.643,0,0,0-1.431-1.027Z" transform="translate(2.151 3.392)"/><path class="a" d="M10.538,37.49c-1.085-3.463.9-6.625,3.382-8.945,3.024-2.851,6.925-3.763,11.242-3.982l.058-.069c-3.855-1.581-7.907-2.632-11.185-5.667a33.034,33.034,0,0,1-6.545-7.918A11.265,11.265,0,0,1,6.117,7.93H0V43.515H18.837C15.675,42.638,12.073,40.664,10.538,37.49Z" transform="translate(0 0.634)"/><path class="a" d="M27.123,24.228c.173,0,.162-.162.2-.277a36.463,36.463,0,0,1,.589-7.676A19.484,19.484,0,0,1,31.14,7.93H13.63c1.766,1.5,2.308,2.308,4.005,3.9C21.352,15.837,23.949,20,27.123,24.228Z" transform="translate(2.102 0.634)"/><path class="a" d="M145.3,30.526a6.3,6.3,0,0,0-1.3-1.985,8.38,8.38,0,0,0-4.04-2.078c-1.281-.358-2.966-.542-4.028-1.4a1.639,1.639,0,0,1-.635-1.385,1.581,1.581,0,0,1,.739-1.35,4.5,4.5,0,0,1,4.248-.092,8.2,8.2,0,0,1,2.308,1.35l2.055-4.513a13.031,13.031,0,0,0-3.336-1.535c-3.255-.923-7.191-.773-9.823,1.57-2.874,2.574-3.3,7.918.2,10.169a13.955,13.955,0,0,0,3.959,1.616c1.524.369,4.248,1.154,3.763,2.978-.542,2.055-3.913,1.477-5.714.808a11.2,11.2,0,0,1-3.694-2.308,8.888,8.888,0,0,1-1.881,5.206,14.036,14.036,0,0,0,5.933,3.128c4.617,1.154,7.872-.462,9.234-1.812a7.56,7.56,0,0,0,2.459-5.771,6.706,6.706,0,0,0-.519-2.609" transform="translate(19.76 2.035)"/><path class="a" d="M105.789,29.211,91.95,17.957V40.569h5.979V29.742l14.2,10.711V17.83h-6.337Z" transform="translate(14.183 2.161)"/><path class="a" d="M130.636,31.773V17.83h-6.083V31.358c0,2.574-1.154,4.051-3.774,4.051s-3.786-1.477-3.786-4.051V17.83H110.91V31.773c0,6.117,4.178,9.13,9.869,9.13,3.463,0,6.475-1.154,8.207-3.463.069-.115.392-.635.8-1.362a10.042,10.042,0,0,0,.854-4.259" transform="translate(17.107 2.161)"/><path class="a" d="M126.55,34.962a8.265,8.265,0,0,0,.8-1.362c-.4.727-.727,1.247-.8,1.362" transform="translate(19.519 4.594)"/><path class="a" d="M82.491,35.571V31.7h9.846V26.591H82.491V22.943l9.961.012V17.83H79.686L76.5,24.074V40.569H92.567v-5Z" transform="translate(11.799 2.161)"/><path class="a" d="M69.312,28.75l-5.263-9.661H56.8L69.162,41.862,85.541,9.67H79.054Z" transform="translate(8.761 0.903)"/></svg>